<svg width="350" height="233" viewBox="0 0 350 233" fill="none" xmlns="http://www.w3.org/2000/svg">
<rect y="0.721375" width="350" height="232.279" fill="#3D32BF"/>
<path d="M121.574 118H118.85V107.418H115.36V105.15H125.063V107.418H121.574V118ZM131.58 110.441L134.261 105.15H137.196L132.934 112.999V118H130.227V113.087L125.964 105.15H128.917L131.58 110.441ZM142.078 111.197H142.975C143.812 111.197 144.439 111.033 144.855 110.705C145.271 110.371 145.479 109.888 145.479 109.255C145.479 108.616 145.304 108.145 144.952 107.84C144.606 107.535 144.061 107.383 143.317 107.383H142.078V111.197ZM148.23 109.158C148.23 110.541 147.797 111.599 146.93 112.331C146.068 113.063 144.841 113.43 143.247 113.43H142.078V118H139.353V105.15H143.458C145.017 105.15 146.2 105.487 147.009 106.161C147.823 106.829 148.23 107.828 148.23 109.158ZM158.597 118H151.196V105.15H158.597V107.383H153.921V110.204H158.271V112.437H153.921V115.75H158.597V118ZM174.342 118H171.239L169.499 111.25C169.434 111.01 169.323 110.515 169.165 109.765C169.013 109.009 168.925 108.502 168.901 108.244C168.866 108.561 168.778 109.07 168.638 109.773C168.497 110.471 168.389 110.969 168.312 111.268L166.581 118H163.487L160.209 105.15H162.889L164.533 112.164C164.82 113.459 165.028 114.581 165.157 115.53C165.192 115.196 165.271 114.681 165.394 113.983C165.523 113.28 165.643 112.735 165.755 112.349L167.627 105.15H170.202L172.074 112.349C172.156 112.671 172.259 113.163 172.382 113.825C172.505 114.487 172.598 115.056 172.663 115.53C172.722 115.073 172.815 114.505 172.944 113.825C173.073 113.14 173.19 112.586 173.296 112.164L174.931 105.15H177.611L174.342 118ZM182.493 110.854H183.372C184.233 110.854 184.869 110.711 185.279 110.424C185.689 110.137 185.894 109.686 185.894 109.07C185.894 108.461 185.683 108.027 185.262 107.77C184.846 107.512 184.198 107.383 183.319 107.383H182.493V110.854ZM182.493 113.069V118H179.768V105.15H183.513C185.259 105.15 186.551 105.47 187.388 106.108C188.226 106.741 188.645 107.705 188.645 109C188.645 109.756 188.437 110.43 188.021 111.021C187.605 111.607 187.016 112.067 186.255 112.401C188.188 115.29 189.448 117.156 190.034 118H187.011L183.943 113.069H182.493ZM192.191 118V105.15H194.916V118H192.191ZM203.647 118H200.923V107.418H197.433V105.15H207.136V107.418H203.647V118ZM217.054 118H209.654V105.15H217.054V107.383H212.379V110.204H216.729V112.437H212.379V115.75H217.054V118ZM223.008 110.854H223.887C224.749 110.854 225.384 110.711 225.795 110.424C226.205 110.137 226.41 109.686 226.41 109.07C226.41 108.461 226.199 108.027 225.777 107.77C225.361 107.512 224.714 107.383 223.835 107.383H223.008V110.854ZM223.008 113.069V118H220.284V105.15H224.028C225.774 105.15 227.066 105.47 227.904 106.108C228.742 106.741 229.161 107.705 229.161 109C229.161 109.756 228.953 110.43 228.537 111.021C228.121 111.607 227.532 112.067 226.77 112.401C228.704 115.29 229.964 117.156 230.549 118H227.526L224.459 113.069H223.008Z" fill="#FEFEFE"/>
<path d="M0 176L14.5833 177.049C29.1667 178.177 58.3333 180.156 87.5 188.667C116.667 197.177 145.833 211.823 175 219.284C204.167 226.667 233.333 226.667 262.5 220.333C291.667 214 320.833 201.333 335.417 195L350 188.667V233H335.417C320.833 233 291.667 233 262.5 233C233.333 233 204.167 233 175 233C145.833 233 116.667 233 87.5 233C58.3333 233 29.1667 233 14.5833 233H0V176Z" fill="#6C59BC"/>
<path d="M189.167 59.625H160.833C159.269 59.625 158 60.8422 158 62.3438V78.6562C158 80.1578 159.269 81.375 160.833 81.375H189.167C190.731 81.375 192 80.1578 192 78.6562V62.3438C192 60.8422 190.731 59.625 189.167 59.625ZM189.639 78.6562C189.639 78.9061 189.427 79.1094 189.167 79.1094H160.833C160.573 79.1094 160.361 78.9061 160.361 78.6562V62.3438C160.361 62.0939 160.573 61.8906 160.833 61.8906H189.167C189.427 61.8906 189.639 62.0939 189.639 62.3438V78.6562ZM168.035 71.293V69.707C168.035 69.3317 167.718 69.0273 167.326 69.0273H165.674C165.282 69.0273 164.965 69.3317 164.965 69.707V71.293C164.965 71.6683 165.282 71.9727 165.674 71.9727H167.326C167.718 71.9727 168.035 71.6683 168.035 71.293ZM173.701 71.293V69.707C173.701 69.3317 173.384 69.0273 172.993 69.0273H171.34C170.949 69.0273 170.632 69.3317 170.632 69.707V71.293C170.632 71.6683 170.949 71.9727 171.34 71.9727H172.993C173.384 71.9727 173.701 71.6683 173.701 71.293ZM179.368 71.293V69.707C179.368 69.3317 179.051 69.0273 178.66 69.0273H177.007C176.616 69.0273 176.299 69.3317 176.299 69.707V71.293C176.299 71.6683 176.616 71.9727 177.007 71.9727H178.66C179.051 71.9727 179.368 71.6683 179.368 71.293ZM185.035 71.293V69.707C185.035 69.3317 184.718 69.0273 184.326 69.0273H182.674C182.282 69.0273 181.965 69.3317 181.965 69.707V71.293C181.965 71.6683 182.282 71.9727 182.674 71.9727H184.326C184.718 71.9727 185.035 71.6683 185.035 71.293ZM165.201 75.9375V74.3516C165.201 73.9762 164.884 73.6719 164.493 73.6719H162.84C162.449 73.6719 162.132 73.9762 162.132 74.3516V75.9375C162.132 76.3129 162.449 76.6172 162.84 76.6172H164.493C164.884 76.6172 165.201 76.3129 165.201 75.9375ZM187.868 75.9375V74.3516C187.868 73.9762 187.551 73.6719 187.16 73.6719H185.507C185.116 73.6719 184.799 73.9762 184.799 74.3516V75.9375C184.799 76.3129 185.116 76.6172 185.507 76.6172H187.16C187.551 76.6172 187.868 76.3129 187.868 75.9375ZM165.201 66.6484V65.0625C165.201 64.6871 164.884 64.3828 164.493 64.3828H162.84C162.449 64.3828 162.132 64.6871 162.132 65.0625V66.6484C162.132 67.0238 162.449 67.3281 162.84 67.3281H164.493C164.884 67.3281 165.201 67.0238 165.201 66.6484ZM170.868 66.6484V65.0625C170.868 64.6871 170.551 64.3828 170.16 64.3828H168.507C168.116 64.3828 167.799 64.6871 167.799 65.0625V66.6484C167.799 67.0238 168.116 67.3281 168.507 67.3281H170.16C170.551 67.3281 170.868 67.0238 170.868 66.6484ZM176.535 66.6484V65.0625C176.535 64.6871 176.218 64.3828 175.826 64.3828H174.174C173.782 64.3828 173.465 64.6871 173.465 65.0625V66.6484C173.465 67.0238 173.782 67.3281 174.174 67.3281H175.826C176.218 67.3281 176.535 67.0238 176.535 66.6484ZM182.201 66.6484V65.0625C182.201 64.6871 181.884 64.3828 181.493 64.3828H179.84C179.449 64.3828 179.132 64.6871 179.132 65.0625V66.6484C179.132 67.0238 179.449 67.3281 179.84 67.3281H181.493C181.884 67.3281 182.201 67.0238 182.201 66.6484ZM187.868 66.6484V65.0625C187.868 64.6871 187.551 64.3828 187.16 64.3828H185.507C185.116 64.3828 184.799 64.6871 184.799 65.0625V66.6484C184.799 67.0238 185.116 67.3281 185.507 67.3281H187.16C187.551 67.3281 187.868 67.0238 187.868 66.6484ZM182.083 75.5977V74.6914C182.083 74.316 181.766 74.0117 181.375 74.0117H168.625C168.234 74.0117 167.917 74.316 167.917 74.6914V75.5977C167.917 75.973 168.234 76.2773 168.625 76.2773H181.375C181.766 76.2773 182.083 75.973 182.083 75.5977Z" fill="white"/>
</svg>
