<svg width="350" height="233" viewBox="0 0 350 233" fill="none" xmlns="http://www.w3.org/2000/svg">
<rect width="350" height="232.279" fill="#3D32BF"/>
<path d="M114.28 118.558C114.28 120.069 114.011 121.338 113.472 122.363C112.938 123.383 112.153 124.13 111.116 124.604L114.21 128.059H110.721L108.365 125.176H108.163C106.194 125.176 104.683 124.604 103.628 123.462C102.573 122.319 102.046 120.679 102.046 118.54C102.046 116.401 102.573 114.77 103.628 113.645C104.688 112.514 106.206 111.948 108.181 111.948C110.155 111.948 111.664 112.517 112.707 113.653C113.756 114.79 114.28 116.425 114.28 118.558ZM104.902 118.558C104.902 119.993 105.175 121.074 105.72 121.801C106.265 122.527 107.079 122.891 108.163 122.891C110.337 122.891 111.424 121.446 111.424 118.558C111.424 115.663 110.343 114.216 108.181 114.216C107.097 114.216 106.279 114.582 105.729 115.314C105.178 116.041 104.902 117.122 104.902 118.558ZM127.942 112.15V120.465C127.942 121.414 127.728 122.246 127.301 122.961C126.879 123.676 126.267 124.224 125.464 124.604C124.661 124.985 123.712 125.176 122.616 125.176C120.964 125.176 119.681 124.754 118.767 123.91C117.852 123.061 117.395 121.9 117.395 120.43V112.15H120.111V120.017C120.111 121.007 120.311 121.733 120.709 122.196C121.107 122.659 121.767 122.891 122.686 122.891C123.577 122.891 124.222 122.659 124.62 122.196C125.024 121.728 125.227 120.995 125.227 119.999V112.15H127.942ZM139.029 125H131.629V112.15H139.029V114.383H134.353V117.204H138.704V119.437H134.353V122.75H139.029V125ZM159.138 118.558C159.138 120.685 158.61 122.319 157.556 123.462C156.501 124.604 154.989 125.176 153.02 125.176C151.052 125.176 149.54 124.604 148.485 123.462C147.431 122.319 146.903 120.679 146.903 118.54C146.903 116.401 147.431 114.77 148.485 113.645C149.546 112.514 151.063 111.948 153.038 111.948C155.013 111.948 156.521 112.517 157.564 113.653C158.613 114.79 159.138 116.425 159.138 118.558ZM149.76 118.558C149.76 119.993 150.032 121.074 150.577 121.801C151.122 122.527 151.936 122.891 153.02 122.891C155.194 122.891 156.281 121.446 156.281 118.558C156.281 115.663 155.2 114.216 153.038 114.216C151.954 114.216 151.137 114.582 150.586 115.314C150.035 116.041 149.76 117.122 149.76 118.558ZM169.671 112.15H172.422L168.054 125H165.083L160.723 112.15H163.474L165.891 119.797C166.026 120.248 166.164 120.775 166.304 121.379C166.451 121.977 166.542 122.393 166.577 122.627C166.641 122.088 166.861 121.145 167.236 119.797L169.671 112.15ZM181.988 125H174.588V112.15H181.988V114.383H177.312V117.204H181.663V119.437H177.312V122.75H181.988V125ZM187.942 117.854H188.821C189.682 117.854 190.318 117.711 190.728 117.424C191.138 117.137 191.343 116.686 191.343 116.07C191.343 115.461 191.133 115.027 190.711 114.77C190.295 114.512 189.647 114.383 188.768 114.383H187.942V117.854ZM187.942 120.069V125H185.217V112.15H188.962C190.708 112.15 192 112.47 192.838 113.108C193.676 113.741 194.094 114.705 194.094 116C194.094 116.756 193.886 117.43 193.47 118.021C193.054 118.607 192.466 119.067 191.704 119.401C193.637 122.29 194.897 124.156 195.483 125H192.46L189.392 120.069H187.942ZM200.321 125H197.64V112.15H205.006V114.383H200.321V117.696H204.68V119.92H200.321V125ZM208.059 125V112.15H210.784V122.75H215.996V125H208.059ZM230.44 118.558C230.44 120.685 229.913 122.319 228.858 123.462C227.803 124.604 226.292 125.176 224.323 125.176C222.354 125.176 220.842 124.604 219.788 123.462C218.733 122.319 218.206 120.679 218.206 118.54C218.206 116.401 218.733 114.77 219.788 113.645C220.848 112.514 222.366 111.948 224.34 111.948C226.315 111.948 227.824 112.517 228.867 113.653C229.916 114.79 230.44 116.425 230.44 118.558ZM221.062 118.558C221.062 119.993 221.335 121.074 221.879 121.801C222.424 122.527 223.239 122.891 224.323 122.891C226.497 122.891 227.584 121.446 227.584 118.558C227.584 115.663 226.503 114.216 224.34 114.216C223.256 114.216 222.439 114.582 221.888 115.314C221.338 116.041 221.062 117.122 221.062 118.558ZM246.159 125H243.056L241.316 118.25C241.252 118.01 241.14 117.515 240.982 116.765C240.83 116.009 240.742 115.502 240.718 115.244C240.683 115.561 240.595 116.07 240.455 116.773C240.314 117.471 240.206 117.969 240.129 118.268L238.398 125H235.304L232.026 112.15H234.707L236.35 119.164C236.637 120.459 236.845 121.581 236.974 122.53C237.009 122.196 237.088 121.681 237.211 120.983C237.34 120.28 237.461 119.735 237.572 119.349L239.444 112.15H242.019L243.891 119.349C243.973 119.671 244.076 120.163 244.199 120.825C244.322 121.487 244.416 122.056 244.48 122.53C244.539 122.073 244.632 121.505 244.761 120.825C244.89 120.14 245.007 119.586 245.113 119.164L246.748 112.15H249.428L246.159 125Z" fill="#FEFEFE"/>
<path d="M0 175.279L14.5833 176.328C29.1667 177.456 58.3333 179.435 87.5 187.945C116.667 196.456 145.833 211.102 175 218.563C204.167 225.945 233.333 225.945 262.5 219.612C291.667 213.279 320.833 200.612 335.417 194.279L350 187.945V232.279H335.417C320.833 232.279 291.667 232.279 262.5 232.279C233.333 232.279 204.167 232.279 175 232.279C145.833 232.279 116.667 232.279 87.5 232.279C58.3333 232.279 29.1667 232.279 14.5833 232.279H0V175.279Z" fill="#6C59BC"/>
<path d="M177.169 80.0449L164.937 77.383L164.425 79.916L176.656 82.5586L177.169 80.0449ZM180.356 74.4375L170.762 66.1682L169.169 68.1533L178.762 76.4227L180.356 74.4375ZM178.406 76.9963L167.075 71.5371L166.031 73.8896L177.356 79.3359L178.406 76.9963ZM175.375 62.0625L173.375 63.6094L180.831 73.9412L182.831 72.3943L175.375 62.0625ZM176.656 83.2031H164.156V85.7619H176.656V83.2031ZM179.137 88.3594H161.669V80.625H159.169V90.9375H181.637V80.625H179.137V88.3594Z" fill="white"/>
</svg>
