<svg width="350" height="233" viewBox="0 0 350 233" fill="none" xmlns="http://www.w3.org/2000/svg">
<rect y="0.721375" width="350" height="232.279" fill="#3D32BF"/>
<path d="M42.5742 126H39.8496V115.418H36.3604V113.15H46.0635V115.418H42.5742V126ZM51.3056 118.854H52.1845C53.0459 118.854 53.6816 118.711 54.0918 118.424C54.5019 118.137 54.707 117.686 54.707 117.07C54.707 116.461 54.4961 116.027 54.0742 115.77C53.6582 115.512 53.0107 115.383 52.1318 115.383H51.3056V118.854ZM51.3056 121.069V126H48.581V113.15H52.3252C54.0712 113.15 55.3632 113.47 56.2011 114.108C57.039 114.741 57.458 115.705 57.458 117C57.458 117.756 57.25 118.43 56.8339 119.021C56.4179 119.607 55.8291 120.067 55.0673 120.401C57.0009 123.29 58.2607 125.156 58.8466 126H55.8232L52.7558 121.069H51.3056ZM68.87 126L67.9384 122.941H63.2538L62.3222 126H59.3866L63.9218 113.098H67.2529L71.8056 126H68.87ZM67.288 120.656C66.4267 117.885 65.9404 116.317 65.829 115.954C65.7236 115.591 65.6474 115.304 65.6005 115.093C65.4071 115.843 64.8534 117.697 63.9394 120.656H67.288ZM73.9716 126V113.15H76.6962V126H73.9716ZM91.87 126H88.4071L82.8172 116.279H82.7381C82.8495 117.996 82.9051 119.221 82.9051 119.953V126H80.4705V113.15H83.9071L89.4881 122.774H89.5496C89.4618 121.104 89.4178 119.924 89.4178 119.232V113.15H91.87V126ZM105.826 126H103.101V115.418H99.6121V113.15H109.315V115.418H105.826V126ZM111.833 126V113.15H114.557V126H111.833ZM123.79 115.233C122.764 115.233 121.97 115.62 121.408 116.394C120.845 117.161 120.564 118.233 120.564 119.61C120.564 122.476 121.639 123.908 123.79 123.908C124.692 123.908 125.785 123.683 127.068 123.231V125.517C126.013 125.956 124.836 126.176 123.535 126.176C121.666 126.176 120.236 125.61 119.246 124.479C118.256 123.343 117.76 121.714 117.76 119.593C117.76 118.257 118.004 117.088 118.49 116.086C118.976 115.078 119.674 114.308 120.582 113.774C121.496 113.235 122.565 112.966 123.79 112.966C125.038 112.966 126.292 113.268 127.551 113.871L126.673 116.086C126.192 115.857 125.709 115.658 125.222 115.488C124.736 115.318 124.258 115.233 123.79 115.233ZM140.686 126H137.592L134.226 120.586L133.075 121.412V126H130.35V113.15H133.075V119.03L134.147 117.519L137.628 113.15H140.651L136.169 118.837L140.686 126ZM150.244 126H142.843V113.15H150.244V115.383H145.568V118.204H149.919V120.437H145.568V123.75H150.244V126ZM158.43 126H155.706V115.418H152.216V113.15H161.919V115.418H158.43V126ZM169.653 113.15H173.652C175.474 113.15 176.795 113.411 177.616 113.933C178.442 114.448 178.855 115.271 178.855 116.402C178.855 117.17 178.673 117.8 178.31 118.292C177.953 118.784 177.475 119.08 176.877 119.18V119.268C177.692 119.449 178.278 119.789 178.635 120.287C178.999 120.785 179.18 121.447 179.18 122.273C179.18 123.445 178.755 124.359 177.906 125.016C177.062 125.672 175.914 126 174.46 126H169.653V113.15ZM172.377 118.239H173.959C174.698 118.239 175.231 118.125 175.559 117.896C175.893 117.668 176.06 117.29 176.06 116.763C176.06 116.271 175.878 115.919 175.515 115.708C175.158 115.491 174.589 115.383 173.81 115.383H172.377V118.239ZM172.377 120.401V123.75H174.153C174.903 123.75 175.457 123.606 175.814 123.319C176.171 123.032 176.35 122.593 176.35 122.001C176.35 120.935 175.588 120.401 174.065 120.401H172.377ZM193.95 119.558C193.95 121.685 193.422 123.319 192.368 124.462C191.313 125.604 189.801 126.176 187.832 126.176C185.864 126.176 184.352 125.604 183.297 124.462C182.243 123.319 181.715 121.679 181.715 119.54C181.715 117.401 182.243 115.77 183.297 114.645C184.358 113.514 185.875 112.948 187.85 112.948C189.825 112.948 191.333 113.517 192.376 114.653C193.425 115.79 193.95 117.425 193.95 119.558ZM184.572 119.558C184.572 120.993 184.844 122.074 185.389 122.801C185.934 123.527 186.748 123.891 187.832 123.891C190.006 123.891 191.093 122.446 191.093 119.558C191.093 116.663 190.012 115.216 187.85 115.216C186.766 115.216 185.949 115.582 185.398 116.314C184.847 117.041 184.572 118.122 184.572 119.558ZM208.816 119.558C208.816 121.685 208.288 123.319 207.234 124.462C206.179 125.604 204.667 126.176 202.699 126.176C200.73 126.176 199.218 125.604 198.163 124.462C197.109 123.319 196.581 121.679 196.581 119.54C196.581 117.401 197.109 115.77 198.163 114.645C199.224 113.514 200.742 112.948 202.716 112.948C204.691 112.948 206.2 113.517 207.243 114.653C208.291 115.79 208.816 117.425 208.816 119.558ZM199.438 119.558C199.438 120.993 199.71 122.074 200.255 122.801C200.8 123.527 201.615 123.891 202.699 123.891C204.872 123.891 205.959 122.446 205.959 119.558C205.959 116.663 204.878 115.216 202.716 115.216C201.632 115.216 200.815 115.582 200.264 116.314C199.713 117.041 199.438 118.122 199.438 119.558ZM222.355 126H219.261L215.895 120.586L214.744 121.412V126H212.019V113.15H214.744V119.03L215.816 117.519L219.296 113.15H222.32L217.837 118.837L222.355 126ZM224.512 126V113.15H227.237V126H224.512ZM242.41 126H238.948L233.358 116.279H233.279C233.39 117.996 233.446 119.221 233.446 119.953V126H231.011V113.15H234.448L240.029 122.774H240.09C240.002 121.104 239.958 119.924 239.958 119.232V113.15H242.41V126ZM251.072 118.784H256.169V125.446C255.343 125.716 254.564 125.903 253.831 126.009C253.105 126.12 252.361 126.176 251.599 126.176C249.659 126.176 248.177 125.607 247.152 124.471C246.132 123.328 245.622 121.69 245.622 119.558C245.622 117.483 246.214 115.866 247.398 114.706C248.587 113.546 250.234 112.966 252.337 112.966C253.656 112.966 254.927 113.229 256.152 113.757L255.246 115.937C254.309 115.468 253.333 115.233 252.32 115.233C251.142 115.233 250.198 115.629 249.489 116.42C248.781 117.211 248.426 118.274 248.426 119.61C248.426 121.005 248.71 122.071 249.279 122.81C249.853 123.542 250.685 123.908 251.775 123.908C252.343 123.908 252.92 123.85 253.506 123.732V121.052H251.072V118.784ZM272.577 122.432C272.577 123.592 272.158 124.506 271.32 125.174C270.488 125.842 269.328 126.176 267.84 126.176C266.469 126.176 265.256 125.918 264.201 125.402V122.871C265.069 123.258 265.801 123.53 266.399 123.688C267.002 123.847 267.553 123.926 268.051 123.926C268.649 123.926 269.106 123.812 269.422 123.583C269.744 123.354 269.905 123.015 269.905 122.563C269.905 122.312 269.835 122.089 269.694 121.896C269.554 121.696 269.346 121.506 269.07 121.324C268.801 121.143 268.247 120.853 267.409 120.454C266.624 120.085 266.035 119.73 265.643 119.391C265.25 119.051 264.937 118.655 264.702 118.204C264.468 117.753 264.351 117.226 264.351 116.622C264.351 115.485 264.735 114.592 265.502 113.941C266.276 113.291 267.342 112.966 268.701 112.966C269.369 112.966 270.005 113.045 270.609 113.203C271.218 113.361 271.854 113.584 272.516 113.871L271.637 115.989C270.951 115.708 270.383 115.512 269.932 115.4C269.486 115.289 269.047 115.233 268.613 115.233C268.098 115.233 267.702 115.354 267.427 115.594C267.152 115.834 267.014 116.147 267.014 116.534C267.014 116.774 267.069 116.985 267.181 117.167C267.292 117.343 267.468 117.516 267.708 117.686C267.954 117.85 268.531 118.148 269.44 118.582C270.641 119.156 271.464 119.733 271.909 120.313C272.355 120.888 272.577 121.594 272.577 122.432ZM279.445 118.441L282.126 113.15H285.062L280.799 120.999V126H278.092V121.087L273.829 113.15H276.782L279.445 118.441ZM294.804 122.432C294.804 123.592 294.385 124.506 293.547 125.174C292.715 125.842 291.555 126.176 290.066 126.176C288.695 126.176 287.482 125.918 286.428 125.402V122.871C287.295 123.258 288.027 123.53 288.625 123.688C289.229 123.847 289.779 123.926 290.277 123.926C290.875 123.926 291.332 123.812 291.649 123.583C291.971 123.354 292.132 123.015 292.132 122.563C292.132 122.312 292.062 122.089 291.921 121.896C291.78 121.696 291.572 121.506 291.297 121.324C291.027 121.143 290.474 120.853 289.636 120.454C288.851 120.085 288.262 119.73 287.869 119.391C287.477 119.051 287.163 118.655 286.929 118.204C286.694 117.753 286.577 117.226 286.577 116.622C286.577 115.485 286.961 114.592 287.729 113.941C288.502 113.291 289.568 112.966 290.928 112.966C291.596 112.966 292.232 113.045 292.835 113.203C293.444 113.361 294.08 113.584 294.742 113.871L293.863 115.989C293.178 115.708 292.609 115.512 292.158 115.4C291.713 115.289 291.274 115.233 290.84 115.233C290.324 115.233 289.929 115.354 289.653 115.594C289.378 115.834 289.24 116.147 289.24 116.534C289.24 116.774 289.296 116.985 289.407 117.167C289.519 117.343 289.694 117.516 289.935 117.686C290.181 117.85 290.758 118.148 291.666 118.582C292.867 119.156 293.691 119.733 294.136 120.313C294.581 120.888 294.804 121.594 294.804 122.432ZM302.63 126H299.905V115.418H296.416V113.15H306.119V115.418H302.63V126ZM316.037 126H308.637V113.15H316.037V115.383H311.361V118.204H315.712V120.437H311.361V123.75H316.037V126ZM324.707 126L321.613 115.919H321.534C321.645 117.97 321.701 119.338 321.701 120.023V126H319.267V113.15H322.976L326.017 122.977H326.069L329.295 113.15H333.004V126H330.464V119.918C330.464 119.631 330.467 119.3 330.473 118.925C330.484 118.55 330.525 117.554 330.596 115.937H330.517L327.203 126H324.707Z" fill="#FEFEFE"/>
<path d="M0 176L14.5833 177.049C29.1667 178.177 58.3333 180.156 87.5 188.667C116.667 197.177 145.833 211.823 175 219.284C204.167 226.667 233.333 226.667 262.5 220.333C291.667 214 320.833 201.333 335.417 195L350 188.667V233H335.417C320.833 233 291.667 233 262.5 233C233.333 233 204.167 233 175 233C145.833 233 116.667 233 87.5 233C58.3333 233 29.1667 233 14.5833 233H0V176Z" fill="#6C59BC"/>
<path d="M183.87 72.6906C183.575 72.5922 183.28 72.4992 182.984 72.4117C183.034 72.2094 183.077 72.007 183.121 71.8047C183.794 68.5453 183.351 65.9258 181.858 65.0617C180.42 64.2359 178.073 65.0945 175.7 67.1617C175.465 67.364 175.235 67.5773 175.016 67.7906C174.869 67.6484 174.716 67.5062 174.562 67.3695C172.074 65.1601 169.58 64.2305 168.088 65.1C166.655 65.9312 166.228 68.3976 166.83 71.482C166.89 71.7883 166.955 72.089 167.032 72.3953C166.682 72.4937 166.337 72.6031 166.015 72.718C163.095 73.7297 161 75.3265 161 76.9781C161 78.6844 163.231 80.3961 166.266 81.4351C166.513 81.5172 166.759 81.5992 167.01 81.6703C166.928 81.9984 166.857 82.3211 166.791 82.6547C166.217 85.6898 166.666 88.0961 168.098 88.9219C169.575 89.775 172.058 88.9 174.475 86.7836C174.666 86.614 174.858 86.4391 175.049 86.2531C175.29 86.4883 175.541 86.7125 175.793 86.9312C178.134 88.9437 180.447 89.7586 181.874 88.9328C183.351 88.0797 183.832 85.493 183.209 82.343C183.159 82.1023 183.105 81.8562 183.045 81.6047C183.22 81.5555 183.389 81.5008 183.559 81.4461C186.714 80.4015 189 78.7117 189 76.9781C189 75.3211 186.845 73.7133 183.87 72.6906ZM176.471 68.0476C178.505 66.2758 180.403 65.5812 181.267 66.0789C182.191 66.6094 182.547 68.7531 181.967 71.5695C181.929 71.7555 181.891 71.9359 181.841 72.1164C180.627 71.843 179.397 71.6461 178.161 71.5367C177.45 70.5195 176.673 69.5461 175.831 68.6328C176.045 68.4305 176.252 68.2391 176.471 68.0476ZM170.144 79.8164C170.423 80.2922 170.707 80.768 171.008 81.2328C170.155 81.1398 169.307 81.0031 168.47 80.8226C168.711 80.0351 169.012 79.2203 169.362 78.389C169.613 78.8703 169.87 79.3461 170.144 79.8164ZM168.487 73.2375C169.274 73.0625 170.111 72.9203 170.98 72.8109C170.691 73.2648 170.406 73.7297 170.138 74.2C169.87 74.6648 169.608 75.1406 169.362 75.6219C169.017 74.807 168.727 74.0086 168.487 73.2375ZM169.985 77.0055C170.346 76.2508 170.74 75.5125 171.155 74.7851C171.571 74.0578 172.02 73.3523 172.49 72.6578C173.31 72.5976 174.147 72.5648 175 72.5648C175.853 72.5648 176.695 72.5976 177.51 72.6578C177.975 73.3469 178.418 74.0523 178.839 74.7742C179.26 75.4961 179.654 76.2344 180.026 76.9836C179.659 77.7383 179.266 78.482 178.845 79.2148C178.429 79.9422 177.986 80.6476 177.521 81.3476C176.706 81.4078 175.859 81.4351 175 81.4351C174.141 81.4351 173.31 81.4078 172.506 81.3586C172.03 80.6641 171.582 79.9531 171.161 79.2258C170.74 78.4984 170.352 77.7601 169.985 77.0055ZM179.862 79.8055C180.141 79.3242 180.403 78.8375 180.66 78.3453C181.01 79.1383 181.316 79.9422 181.584 80.768C180.737 80.9594 179.878 81.107 179.014 81.2055C179.309 80.7461 179.588 80.2758 179.862 79.8055ZM180.649 75.6219C180.392 75.1406 180.13 74.6594 179.856 74.189C179.588 73.7242 179.309 73.2648 179.02 72.8109C179.9 72.9203 180.742 73.068 181.53 73.2484C181.278 74.0578 180.983 74.8453 180.649 75.6219ZM175.011 69.4695C175.585 70.093 176.127 70.7492 176.63 71.4273C175.547 71.3781 174.459 71.3781 173.376 71.4273C173.912 70.7219 174.464 70.0656 175.011 69.4695ZM168.667 66.1172C169.586 65.5812 171.626 66.3469 173.775 68.25C173.912 68.3703 174.048 68.5015 174.191 68.6328C173.343 69.5461 172.561 70.5195 171.845 71.5367C170.609 71.6461 169.384 71.8375 168.17 72.1055C168.098 71.8265 168.038 71.5422 167.978 71.2578C167.464 68.6109 167.803 66.6148 168.667 66.1172ZM167.327 80.5328C167.098 80.4672 166.873 80.3961 166.649 80.3195C165.484 79.9531 164.161 79.3734 163.204 78.6133C162.652 78.2305 162.28 77.6398 162.176 76.9781C162.176 75.9773 163.904 74.6976 166.398 73.8281C166.709 73.7187 167.027 73.6203 167.344 73.5273C167.716 74.714 168.164 75.8789 168.684 77.0055C168.159 78.1484 167.705 79.3297 167.327 80.5328ZM173.704 85.8922C172.802 86.718 171.757 87.3742 170.62 87.8226C170.012 88.1125 169.312 88.1398 168.689 87.8937C167.82 87.3906 167.459 85.4601 167.951 82.8625C168.011 82.5562 168.077 82.25 168.153 81.9492C169.378 82.2117 170.614 82.3922 171.866 82.4851C172.588 83.5078 173.381 84.4867 174.229 85.4055C174.054 85.575 173.879 85.739 173.704 85.8922ZM175.044 84.5633C174.486 83.9617 173.928 83.2945 173.387 82.5781C173.912 82.6 174.453 82.6109 175 82.6109C175.563 82.6109 176.116 82.6 176.662 82.5726C176.159 83.2672 175.618 83.9289 175.044 84.5633ZM182.191 86.2039C182.142 86.8711 181.814 87.4945 181.289 87.9156C180.42 88.4187 178.566 87.7625 176.564 86.0453C176.334 85.8484 176.105 85.6351 175.87 85.4164C176.706 84.4922 177.477 83.5133 178.177 82.4851C179.43 82.3812 180.677 82.1898 181.907 81.9109C181.962 82.1351 182.011 82.3594 182.055 82.5781C182.323 83.7594 182.366 84.9898 182.191 86.2039ZM183.187 80.325C183.034 80.3742 182.88 80.4234 182.722 80.4672C182.339 79.275 181.869 78.1101 181.327 76.9781C181.852 75.8625 182.295 74.714 182.667 73.5383C182.952 73.6203 183.225 73.7078 183.488 73.7953C186.036 74.6703 187.824 75.9719 187.824 76.9672C187.824 78.039 185.916 79.4226 183.187 80.325ZM175 79.5047C176.384 79.5047 177.505 78.3836 177.505 77C177.505 75.6164 176.384 74.4953 175 74.4953C173.616 74.4953 172.495 75.6164 172.495 77C172.495 78.3836 173.616 79.5047 175 79.5047Z" fill="white"/>
</svg>
