<svg width="350" height="233" viewBox="0 0 350 233" fill="none" xmlns="http://www.w3.org/2000/svg">
<rect y="0.721375" width="350" height="232.279" fill="#3D32BF"/>
<path d="M59.6172 109.15H63.6162C65.4385 109.15 66.7598 109.411 67.5801 109.933C68.4062 110.448 68.8193 111.271 68.8193 112.402C68.8193 113.17 68.6377 113.8 68.2744 114.292C67.917 114.784 67.4395 115.08 66.8418 115.18V115.268C67.6562 115.449 68.2422 115.789 68.5996 116.287C68.9629 116.785 69.1445 117.447 69.1445 118.273C69.1445 119.445 68.7197 120.359 67.8701 121.016C67.0264 121.672 65.8779 122 64.4248 122H59.6172V109.15ZM62.3418 114.239H63.9238C64.6621 114.239 65.1953 114.125 65.5234 113.896C65.8574 113.668 66.0244 113.29 66.0244 112.763C66.0244 112.271 65.8428 111.919 65.4795 111.708C65.1221 111.491 64.5537 111.383 63.7744 111.383H62.3418V114.239ZM62.3418 116.401V119.75H64.1172C64.8672 119.75 65.4209 119.606 65.7783 119.319C66.1357 119.032 66.3145 118.593 66.3145 118.001C66.3145 116.935 65.5527 116.401 64.0293 116.401H62.3418ZM72.2509 122V109.15H74.9755V122H72.2509ZM78.7499 122V109.15H81.4745V119.75H86.6864V122H78.7499ZM89.4677 122V109.15H92.1923V119.75H97.4042V122H89.4677ZM110.279 114.784H115.377V121.446C114.551 121.716 113.771 121.903 113.039 122.009C112.312 122.12 111.568 122.176 110.806 122.176C108.867 122.176 107.385 121.607 106.359 120.471C105.34 119.328 104.83 117.69 104.83 115.558C104.83 113.483 105.422 111.866 106.605 110.706C107.795 109.546 109.441 108.966 111.545 108.966C112.863 108.966 114.135 109.229 115.359 109.757L114.454 111.937C113.516 111.468 112.541 111.233 111.527 111.233C110.349 111.233 109.406 111.629 108.697 112.42C107.988 113.211 107.634 114.274 107.634 115.61C107.634 117.005 107.918 118.071 108.486 118.81C109.06 119.542 109.892 119.908 110.982 119.908C111.551 119.908 112.128 119.85 112.714 119.732V117.052H110.279V114.784ZM126.385 122H118.984V109.15H126.385V111.383H121.709V114.204H126.059V116.437H121.709V119.75H126.385V122ZM141.013 122H137.551L131.961 112.279H131.882C131.993 113.996 132.049 115.221 132.049 115.953V122H129.614V109.15H133.051L138.632 118.774H138.693C138.605 117.104 138.561 115.924 138.561 115.232V109.15H141.013V122ZM152.197 122H144.797V109.15H152.197V111.383H147.521V114.204H151.872V116.437H147.521V119.75H152.197V122ZM158.151 114.854H159.03C159.891 114.854 160.527 114.711 160.937 114.424C161.347 114.137 161.552 113.686 161.552 113.07C161.552 112.461 161.341 112.027 160.92 111.77C160.504 111.512 159.856 111.383 158.977 111.383H158.151V114.854ZM158.151 117.069V122H155.426V109.15H159.171C160.917 109.15 162.209 109.47 163.047 110.108C163.884 110.741 164.303 111.705 164.303 113C164.303 113.756 164.095 114.43 163.679 115.021C163.263 115.607 162.674 116.067 161.913 116.401C163.846 119.29 165.106 121.156 165.692 122H162.669L159.601 117.069H158.151ZM175.715 122L174.784 118.941H170.099L169.168 122H166.232L170.767 109.098H174.098L178.651 122H175.715ZM174.133 116.656C173.272 113.885 172.786 112.317 172.674 111.954C172.569 111.591 172.493 111.304 172.446 111.093C172.253 111.843 171.699 113.697 170.785 116.656H174.133ZM185.774 122H183.049V111.418H179.56V109.15H189.263V111.418H185.774V122ZM203.444 115.558C203.444 117.685 202.917 119.319 201.862 120.462C200.807 121.604 199.295 122.176 197.327 122.176C195.358 122.176 193.846 121.604 192.792 120.462C191.737 119.319 191.209 117.679 191.209 115.54C191.209 113.401 191.737 111.77 192.792 110.645C193.852 109.514 195.37 108.948 197.344 108.948C199.319 108.948 200.828 109.517 201.871 110.653C202.919 111.79 203.444 113.425 203.444 115.558ZM194.066 115.558C194.066 116.993 194.338 118.074 194.883 118.801C195.428 119.527 196.243 119.891 197.327 119.891C199.501 119.891 200.587 118.446 200.587 115.558C200.587 112.663 199.506 111.216 197.344 111.216C196.26 111.216 195.443 111.582 194.892 112.314C194.341 113.041 194.066 114.122 194.066 115.558ZM209.372 114.854H210.25C211.112 114.854 211.748 114.711 212.158 114.424C212.568 114.137 212.773 113.686 212.773 113.07C212.773 112.461 212.562 112.027 212.14 111.77C211.724 111.512 211.077 111.383 210.198 111.383H209.372V114.854ZM209.372 117.069V122H206.647V109.15H210.391C212.137 109.15 213.429 109.47 214.267 110.108C215.105 110.741 215.524 111.705 215.524 113C215.524 113.756 215.316 114.43 214.9 115.021C214.484 115.607 213.895 116.067 213.133 116.401C215.067 119.29 216.327 121.156 216.913 122H213.889L210.822 117.069H209.372ZM231.871 118.432C231.871 119.592 231.452 120.506 230.614 121.174C229.782 121.842 228.621 122.176 227.133 122.176C225.762 122.176 224.549 121.918 223.495 121.402V118.871C224.362 119.258 225.094 119.53 225.692 119.688C226.295 119.847 226.846 119.926 227.344 119.926C227.942 119.926 228.399 119.812 228.715 119.583C229.038 119.354 229.199 119.015 229.199 118.563C229.199 118.312 229.128 118.089 228.988 117.896C228.847 117.696 228.639 117.506 228.364 117.324C228.094 117.143 227.54 116.853 226.703 116.454C225.917 116.085 225.329 115.73 224.936 115.391C224.543 115.051 224.23 114.655 223.996 114.204C223.761 113.753 223.644 113.226 223.644 112.622C223.644 111.485 224.028 110.592 224.795 109.941C225.569 109.291 226.635 108.966 227.995 108.966C228.663 108.966 229.298 109.045 229.902 109.203C230.511 109.361 231.147 109.584 231.809 109.871L230.93 111.989C230.245 111.708 229.676 111.512 229.225 111.4C228.78 111.289 228.34 111.233 227.907 111.233C227.391 111.233 226.996 111.354 226.72 111.594C226.445 111.834 226.307 112.147 226.307 112.534C226.307 112.774 226.363 112.985 226.474 113.167C226.585 113.343 226.761 113.516 227.001 113.686C227.247 113.85 227.825 114.148 228.733 114.582C229.934 115.156 230.757 115.733 231.203 116.313C231.648 116.888 231.871 117.594 231.871 118.432ZM238.739 114.441L241.419 109.15H244.355L240.092 116.999V122H237.385V117.087L233.122 109.15H236.076L238.739 114.441ZM254.097 118.432C254.097 119.592 253.678 120.506 252.84 121.174C252.008 121.842 250.848 122.176 249.36 122.176C247.989 122.176 246.776 121.918 245.721 121.402V118.871C246.588 119.258 247.321 119.53 247.918 119.688C248.522 119.847 249.073 119.926 249.571 119.926C250.168 119.926 250.625 119.812 250.942 119.583C251.264 119.354 251.425 119.015 251.425 118.563C251.425 118.312 251.355 118.089 251.214 117.896C251.074 117.696 250.866 117.506 250.59 117.324C250.321 117.143 249.767 116.853 248.929 116.454C248.144 116.085 247.555 115.73 247.162 115.391C246.77 115.051 246.456 114.655 246.222 114.204C245.988 113.753 245.87 113.226 245.87 112.622C245.87 111.485 246.254 110.592 247.022 109.941C247.795 109.291 248.862 108.966 250.221 108.966C250.889 108.966 251.525 109.045 252.128 109.203C252.738 109.361 253.373 109.584 254.035 109.871L253.157 111.989C252.471 111.708 251.903 111.512 251.451 111.4C251.006 111.289 250.567 111.233 250.133 111.233C249.618 111.233 249.222 111.354 248.947 111.594C248.671 111.834 248.534 112.147 248.534 112.534C248.534 112.774 248.589 112.985 248.701 113.167C248.812 113.343 248.988 113.516 249.228 113.686C249.474 113.85 250.051 114.148 250.959 114.582C252.16 115.156 252.984 115.733 253.429 116.313C253.874 116.888 254.097 117.594 254.097 118.432ZM261.923 122H259.199V111.418H255.709V109.15H265.412V111.418H261.923V122ZM275.33 122H267.93V109.15H275.33V111.383H270.655V114.204H275.005V116.437H270.655V119.75H275.33V122ZM284 122L280.906 111.919H280.827C280.939 113.97 280.994 115.338 280.994 116.023V122H278.56V109.15H282.269L285.31 118.977H285.363L288.588 109.15H292.297V122H289.757V115.918C289.757 115.631 289.76 115.3 289.766 114.925C289.778 114.55 289.819 113.554 289.889 111.937H289.81L286.496 122H284Z" fill="#FEFEFE"/>
<path d="M0 176L14.5833 177.049C29.1667 178.177 58.3333 180.156 87.5 188.667C116.667 197.177 145.833 211.823 175 219.284C204.167 226.667 233.333 226.667 262.5 220.333C291.667 214 320.833 201.333 335.417 195L350 188.667V233H335.417C320.833 233 291.667 233 262.5 233C233.333 233 204.167 233 175 233C145.833 233 116.667 233 87.5 233C58.3333 233 29.1667 233 14.5833 233H0V176Z" fill="#6C59BC"/>
<path d="M142.612 71.3112C141.243 65.2878 138.016 63.3086 137.67 62.5513C137.288 62.0173 136.875 61 136.875 61C136.873 61.0206 136.871 61.0336 136.87 61.0531V61.0672H136.869C136.867 61.0834 136.866 61.0943 136.865 61.1094V61.1257H136.862C136.862 61.1365 136.86 61.1452 136.86 61.1538V61.182H136.857C136.856 61.1907 136.856 61.2015 136.854 61.2091V61.2318H136.852C136.852 61.2394 136.852 61.2481 136.849 61.2546V61.2763H136.847C136.847 61.2871 136.846 61.3001 136.845 61.3109V61.3131C136.842 61.3315 136.839 61.3499 136.835 61.3672V61.3759H136.833C136.832 61.3803 136.83 61.3846 136.83 61.3889V61.4073H136.827V61.4312H136.821V61.4507H136.816V61.4734H136.812V61.494H136.807V61.5124H136.801V61.5276H136.796V61.5471H136.792V61.5623H136.787V61.5763H136.783V61.5926H136.779C136.778 61.5937 136.778 61.5958 136.778 61.5969V61.6077H136.775C136.774 61.6099 136.774 61.6121 136.774 61.6143V61.6208H136.771C136.77 61.624 136.769 61.6294 136.769 61.6316C136.766 61.6392 136.762 61.6467 136.758 61.6543V61.6565C136.756 61.6587 136.754 61.6619 136.753 61.6641V61.6727H136.749V61.6814H136.743V61.6901H136.74V61.7009H136.734V61.7161H136.729V61.7204H136.725V61.7291H136.721V61.741H136.716V61.7497H136.71V61.7616H136.705V61.7703H136.7V61.7789H136.697V61.7897H136.691V61.7984H136.687V61.8049H136.683V61.8136H136.676V61.8233H136.672V61.8298H136.666V61.8385H136.662V61.8504H136.657V61.8547H136.653V61.8634H136.647V61.8678H136.643V61.8786H136.638V61.8829H136.634V61.8916H136.628V61.8981H136.625L136.623 61.9024V61.9068H136.621C136.62 61.9089 136.619 61.9089 136.619 61.9111V61.9122H136.618C136.617 61.9154 136.615 61.9176 136.613 61.9198V61.923H136.612C136.607 61.9295 136.604 61.936 136.599 61.9425V61.9436C136.597 61.9457 136.592 61.9501 136.589 61.9544V61.9566H136.588C136.587 61.9577 136.585 61.9588 136.585 61.9598V61.9631H136.583L136.58 61.9663V61.9674H136.579C136.579 61.9685 136.576 61.9696 136.575 61.9718V61.9761H136.572L136.57 61.9783V61.9804H136.568C136.568 61.9826 136.566 61.9826 136.566 61.9837V61.9869H136.561C136.561 61.988 136.56 61.9891 136.559 61.9902V61.9967H136.556V62.001H136.552V62.0075H136.547V62.0162H136.542V62.0075H136.536V62.0118H136.532V62.0183H136.527V62.027H136.521V62.0313H136.517V62.0378H136.513V62.0422H136.508V62.0508H136.502V62.0552H136.497V62.0617H136.492V62.066H136.488V62.0714H136.482V62.0822H136.48V62.0866H136.474V62.092H136.469V62.0942H136.465V62.0985H136.459V62.1093H136.455V62.1137H136.45V62.118H136.445V62.1245H136.44V62.1288H136.435V62.1332H136.43V62.1375H136.426V62.1483H136.422V62.1538H136.415V62.1581H136.411V62.1624H136.405V62.1689H136.401V62.1732H136.396V62.1808H136.391V62.1852H136.385V62.1917H136.383V62.196H136.378V62.2003H136.373V62.2047H136.368V62.2112H136.363V62.2155H136.36C136.359 62.2166 136.359 62.2177 136.359 62.2177V62.2198H136.357L136.352 62.2242C136.352 62.2242 136.35 62.2263 136.348 62.2274V62.2339H136.344V62.2393H136.339V62.2437H136.335V62.248H136.332L136.328 62.2513V62.2545H136.326L136.324 62.2567V62.2599H136.322C136.316 62.2664 136.314 62.2708 136.307 62.2773C136.305 62.2794 136.298 62.2848 136.294 62.2881C136.281 62.2968 136.264 62.3108 136.251 62.3227C136.243 62.3282 136.234 62.3358 136.228 62.3412V62.3422H136.227C136.209 62.3563 136.193 62.3693 136.173 62.3845V62.3856C136.147 62.4073 136.123 62.4278 136.093 62.4527V62.4517H136.091C136.029 62.5026 135.964 62.56 135.89 62.6239V62.625H135.889C135.705 62.7853 135.488 62.9912 135.244 63.2403L135.228 63.2566L135.223 63.2609C133.75 64.7852 131.428 67.9615 131.184 73.0943C131.162 73.519 131.166 73.9318 131.19 74.3337V74.3434C131.308 76.366 131.943 78.0928 132.737 79.4958V79.4968C133.053 80.0558 133.395 80.5639 133.74 81.0189V81.02C134.934 82.5963 136.153 83.5301 136.464 83.7565C136.942 84.8648 136.897 86.7671 136.897 86.7671L137.595 87C137.595 87 137.453 85.1573 137.652 84.2678C137.714 83.9894 137.86 83.7522 138.03 83.5507C138.145 83.4694 138.485 83.2246 138.894 82.8519C138.913 82.8313 138.924 82.8129 138.941 82.7934C140.589 81.2573 143.667 77.4743 142.612 71.3112Z" fill="white"/>
<path d="M174.429 74.0625H171.857V71.25C171.857 70.9049 171.601 70.625 171.286 70.625H170.714C170.399 70.625 170.143 70.9049 170.143 71.25V74.0625H167.571C167.256 74.0625 167 74.3424 167 74.6875V75.3125C167 75.6576 167.256 75.9375 167.571 75.9375H170.143V78.75C170.143 79.0951 170.399 79.375 170.714 79.375H171.286C171.601 79.375 171.857 79.0951 171.857 78.75V75.9375H174.429C174.744 75.9375 175 75.6576 175 75.3125V74.6875C175 74.3424 174.744 74.0625 174.429 74.0625Z" fill="white"/>
<path d="M215.87 70.6906C215.575 70.5922 215.28 70.4992 214.984 70.4117C215.034 70.2094 215.077 70.007 215.121 69.8047C215.794 66.5453 215.351 63.9258 213.858 63.0617C212.42 62.2359 210.073 63.0945 207.7 65.1617C207.465 65.364 207.235 65.5773 207.016 65.7906C206.869 65.6484 206.716 65.5062 206.562 65.3695C204.074 63.1601 201.58 62.2305 200.088 63.1C198.655 63.9312 198.228 66.3976 198.83 69.482C198.89 69.7883 198.955 70.089 199.032 70.3953C198.682 70.4937 198.337 70.6031 198.015 70.718C195.095 71.7297 193 73.3265 193 74.9781C193 76.6844 195.231 78.3961 198.266 79.4351C198.513 79.5172 198.759 79.5992 199.01 79.6703C198.928 79.9984 198.857 80.3211 198.791 80.6547C198.217 83.6898 198.666 86.0961 200.098 86.9219C201.575 87.775 204.058 86.9 206.475 84.7836C206.666 84.614 206.858 84.4391 207.049 84.2531C207.29 84.4883 207.541 84.7125 207.793 84.9312C210.134 86.9437 212.447 87.7586 213.874 86.9328C215.351 86.0797 215.832 83.493 215.209 80.343C215.159 80.1023 215.105 79.8562 215.045 79.6047C215.22 79.5555 215.389 79.5008 215.559 79.4461C218.714 78.4015 221 76.7117 221 74.9781C221 73.3211 218.845 71.7133 215.87 70.6906ZM208.471 66.0476C210.505 64.2758 212.403 63.5812 213.267 64.0789C214.191 64.6094 214.547 66.7531 213.967 69.5695C213.929 69.7555 213.891 69.9359 213.841 70.1164C212.627 69.843 211.397 69.6461 210.161 69.5367C209.45 68.5195 208.673 67.5461 207.831 66.6328C208.045 66.4305 208.252 66.2391 208.471 66.0476ZM202.144 77.8164C202.423 78.2922 202.707 78.768 203.008 79.2328C202.155 79.1398 201.307 79.0031 200.47 78.8226C200.711 78.0351 201.012 77.2203 201.362 76.389C201.613 76.8703 201.87 77.3461 202.144 77.8164ZM200.487 71.2375C201.274 71.0625 202.111 70.9203 202.98 70.8109C202.691 71.2648 202.406 71.7297 202.138 72.2C201.87 72.6648 201.608 73.1406 201.362 73.6219C201.017 72.807 200.727 72.0086 200.487 71.2375ZM201.985 75.0055C202.346 74.2508 202.74 73.5125 203.155 72.7851C203.571 72.0578 204.02 71.3523 204.49 70.6578C205.31 70.5976 206.147 70.5648 207 70.5648C207.853 70.5648 208.695 70.5976 209.51 70.6578C209.975 71.3469 210.418 72.0523 210.839 72.7742C211.26 73.4961 211.654 74.2344 212.026 74.9836C211.659 75.7383 211.266 76.482 210.845 77.2148C210.429 77.9422 209.986 78.6476 209.521 79.3476C208.706 79.4078 207.859 79.4351 207 79.4351C206.141 79.4351 205.31 79.4078 204.506 79.3586C204.03 78.6641 203.582 77.9531 203.161 77.2258C202.74 76.4984 202.352 75.7601 201.985 75.0055ZM211.862 77.8055C212.141 77.3242 212.403 76.8375 212.66 76.3453C213.01 77.1383 213.316 77.9422 213.584 78.768C212.737 78.9594 211.878 79.107 211.014 79.2055C211.309 78.7461 211.588 78.2758 211.862 77.8055ZM212.649 73.6219C212.392 73.1406 212.13 72.6594 211.856 72.189C211.588 71.7242 211.309 71.2648 211.02 70.8109C211.9 70.9203 212.742 71.068 213.53 71.2484C213.278 72.0578 212.983 72.8453 212.649 73.6219ZM207.011 67.4695C207.585 68.093 208.127 68.7492 208.63 69.4273C207.547 69.3781 206.459 69.3781 205.376 69.4273C205.912 68.7219 206.464 68.0656 207.011 67.4695ZM200.667 64.1172C201.586 63.5812 203.626 64.3469 205.775 66.25C205.912 66.3703 206.048 66.5015 206.191 66.6328C205.343 67.5461 204.561 68.5195 203.845 69.5367C202.609 69.6461 201.384 69.8375 200.17 70.1055C200.098 69.8265 200.038 69.5422 199.978 69.2578C199.464 66.6109 199.803 64.6148 200.667 64.1172ZM199.327 78.5328C199.098 78.4672 198.873 78.3961 198.649 78.3195C197.484 77.9531 196.161 77.3734 195.204 76.6133C194.652 76.2305 194.28 75.6398 194.176 74.9781C194.176 73.9773 195.904 72.6976 198.398 71.8281C198.709 71.7187 199.027 71.6203 199.344 71.5273C199.716 72.714 200.164 73.8789 200.684 75.0055C200.159 76.1484 199.705 77.3297 199.327 78.5328ZM205.704 83.8922C204.802 84.718 203.757 85.3742 202.62 85.8226C202.012 86.1125 201.312 86.1398 200.689 85.8937C199.82 85.3906 199.459 83.4601 199.951 80.8625C200.011 80.5562 200.077 80.25 200.153 79.9492C201.378 80.2117 202.614 80.3922 203.866 80.4851C204.588 81.5078 205.381 82.4867 206.229 83.4055C206.054 83.575 205.879 83.739 205.704 83.8922ZM207.044 82.5633C206.486 81.9617 205.928 81.2945 205.387 80.5781C205.912 80.6 206.453 80.6109 207 80.6109C207.563 80.6109 208.116 80.6 208.662 80.5726C208.159 81.2672 207.618 81.9289 207.044 82.5633ZM214.191 84.2039C214.142 84.8711 213.814 85.4945 213.289 85.9156C212.42 86.4187 210.566 85.7625 208.564 84.0453C208.334 83.8484 208.105 83.6351 207.87 83.4164C208.706 82.4922 209.477 81.5133 210.177 80.4851C211.43 80.3812 212.677 80.1898 213.907 79.9109C213.962 80.1351 214.011 80.3594 214.055 80.5781C214.323 81.7594 214.366 82.9898 214.191 84.2039ZM215.187 78.325C215.034 78.3742 214.88 78.4234 214.722 78.4672C214.339 77.275 213.869 76.1101 213.327 74.9781C213.852 73.8625 214.295 72.714 214.667 71.5383C214.952 71.6203 215.225 71.7078 215.488 71.7953C218.036 72.6703 219.824 73.9719 219.824 74.9672C219.824 76.039 217.916 77.4226 215.187 78.325ZM207 77.5047C208.384 77.5047 209.505 76.3836 209.505 75C209.505 73.6164 208.384 72.4953 207 72.4953C205.616 72.4953 204.495 73.6164 204.495 75C204.495 76.3836 205.616 77.5047 207 77.5047Z" fill="white"/>
</svg>
