<svg width="12" height="24" viewBox="0 0 12 24" fill="none" xmlns="http://www.w3.org/2000/svg">
<path d="M11.18 9.518C9.917 3.958 6.938 2.131 6.618 1.432C6.266 0.939 5.885 0 5.885 0C5.883 0.019 5.881 0.031 5.88 0.049V0.062H5.879C5.877 0.077 5.876 0.087 5.875 0.101V0.116H5.873C5.873 0.126 5.871 0.134 5.871 0.142V0.168H5.868C5.867 0.176 5.867 0.186 5.865 0.193V0.214H5.863C5.863 0.221 5.863 0.229 5.861 0.235V0.255H5.859C5.859 0.265 5.858 0.277 5.857 0.287V0.289C5.854 0.306 5.851 0.323 5.848 0.339V0.347H5.846C5.845 0.351 5.843 0.355 5.843 0.359V0.376H5.84V0.398H5.835V0.416H5.83V0.437H5.826V0.456H5.822V0.473H5.816V0.487H5.812V0.505H5.808V0.519H5.803V0.532H5.8V0.547H5.796C5.795 0.548 5.795 0.55 5.795 0.551V0.561H5.792C5.791 0.563 5.791 0.565 5.791 0.567V0.573H5.789C5.788 0.576 5.787 0.581 5.787 0.583C5.784 0.59 5.78 0.597 5.777 0.604V0.606C5.775 0.608 5.773 0.611 5.772 0.613V0.621H5.768V0.629H5.763V0.637H5.76V0.647H5.754V0.661H5.75V0.665H5.746V0.673H5.742V0.684H5.738V0.692H5.732V0.703H5.728V0.711H5.723V0.719H5.72V0.729H5.715V0.737H5.711V0.743H5.707V0.751H5.701V0.76H5.697V0.766H5.692V0.774H5.688V0.785H5.683V0.789H5.68V0.797H5.674V0.801H5.67V0.811H5.666V0.815H5.662V0.823H5.657V0.829H5.654L5.652 0.833V0.837H5.65C5.649 0.839 5.648 0.839 5.648 0.841V0.842H5.647C5.646 0.845 5.645 0.847 5.643 0.849V0.852H5.642C5.637 0.858 5.634 0.864 5.63 0.87V0.871C5.628 0.873 5.623 0.877 5.621 0.881V0.883H5.62C5.619 0.884 5.617 0.885 5.617 0.886V0.889H5.615L5.612 0.892V0.893H5.611C5.611 0.894 5.609 0.895 5.608 0.897V0.901H5.605L5.603 0.903V0.905H5.601C5.601 0.907 5.599 0.907 5.599 0.908V0.911H5.595C5.595 0.912 5.594 0.913 5.593 0.914V0.92H5.59V0.924H5.586V0.93H5.582V0.938H5.577V0.93H5.572V0.934H5.568V0.94H5.563V0.948H5.558V0.952H5.554V0.958H5.55V0.962H5.546V0.97H5.54V0.974H5.536V0.98H5.531V0.984H5.527V0.989H5.522V0.999H5.52V1.003H5.514V1.008H5.51V1.01H5.506V1.014H5.501V1.024H5.497V1.028H5.492V1.032H5.488V1.038H5.483V1.042H5.478V1.046H5.474V1.05H5.47V1.06H5.466V1.065H5.46V1.069H5.456V1.073H5.451V1.079H5.447V1.083H5.442V1.09H5.438V1.094H5.432V1.1H5.43V1.104H5.426V1.108H5.421V1.112H5.417V1.118H5.412V1.122H5.409C5.408 1.123 5.408 1.124 5.408 1.124V1.126H5.406L5.402 1.13C5.402 1.13 5.4 1.132 5.398 1.133V1.139H5.394V1.144H5.39V1.148H5.386V1.152H5.383L5.38 1.155V1.158H5.378L5.376 1.16V1.163H5.374C5.369 1.169 5.367 1.173 5.36 1.179C5.358 1.181 5.352 1.186 5.348 1.189C5.336 1.197 5.321 1.21 5.309 1.221C5.301 1.226 5.293 1.233 5.287 1.238V1.239H5.286C5.27 1.252 5.255 1.264 5.237 1.278V1.279C5.213 1.299 5.19 1.318 5.163 1.341V1.34H5.161C5.104 1.387 5.044 1.44 4.975 1.499V1.5H4.974C4.805 1.648 4.604 1.838 4.379 2.068L4.364 2.083L4.36 2.087C3 3.494 0.856999 6.426 0.630999 11.164C0.610999 11.556 0.614999 11.937 0.636999 12.308V12.317C0.745999 14.184 1.332 15.778 2.065 17.073V17.074C2.357 17.59 2.672 18.059 2.991 18.479V18.48C4.093 19.935 5.218 20.797 5.505 21.006C5.946 22.029 5.905 23.785 5.905 23.785L6.549 24C6.549 24 6.418 22.299 6.602 21.478C6.659 21.221 6.794 21.002 6.951 20.816C7.057 20.741 7.371 20.515 7.748 20.171C7.766 20.152 7.776 20.135 7.792 20.117C9.313 18.699 12.154 15.207 11.18 9.518V9.518Z" fill="#FEFAFA"/>
</svg>
