<svg width="350" height="233" viewBox="0 0 350 233" fill="none" xmlns="http://www.w3.org/2000/svg">
<rect width="350" height="232.279" fill="#3D32BF"/>
<path d="M53.6172 108.429H57.6162C59.4385 108.429 60.7598 108.69 61.5801 109.211C62.4062 109.727 62.8193 110.55 62.8193 111.681C62.8193 112.449 62.6377 113.078 62.2744 113.571C61.917 114.063 61.4395 114.359 60.8418 114.458V114.546C61.6562 114.728 62.2422 115.068 62.5996 115.566C62.9629 116.064 63.1445 116.726 63.1445 117.552C63.1445 118.724 62.7197 119.638 61.8701 120.294C61.0264 120.951 59.8779 121.279 58.4248 121.279H53.6172V108.429ZM56.3418 113.518H57.9238C58.6621 113.518 59.1953 113.404 59.5234 113.175C59.8574 112.947 60.0244 112.569 60.0244 112.041C60.0244 111.549 59.8428 111.198 59.4795 110.987C59.1221 110.77 58.5537 110.661 57.7744 110.661H56.3418V113.518ZM56.3418 115.68V119.029H58.1172C58.8672 119.029 59.4209 118.885 59.7783 118.598C60.1357 118.311 60.3145 117.871 60.3145 117.28C60.3145 116.213 59.5527 115.68 58.0293 115.68H56.3418ZM66.2509 121.279V108.429H68.9755V121.279H66.2509ZM72.7499 121.279V108.429H75.4745V119.029H80.6864V121.279H72.7499ZM83.4677 121.279V108.429H86.1923V119.029H91.4042V121.279H83.4677ZM104.279 114.063H109.377V120.725C108.551 120.994 107.771 121.182 107.039 121.287C106.312 121.399 105.568 121.454 104.806 121.454C102.867 121.454 101.385 120.886 100.359 119.749C99.3396 118.607 98.8299 116.969 98.8299 114.836C98.8299 112.762 99.4217 111.145 100.605 109.985C101.795 108.825 103.441 108.244 105.545 108.244C106.863 108.244 108.135 108.508 109.359 109.035L108.454 111.215C107.516 110.746 106.541 110.512 105.527 110.512C104.349 110.512 103.406 110.908 102.697 111.699C101.988 112.49 101.634 113.553 101.634 114.889C101.634 116.284 101.918 117.35 102.486 118.088C103.06 118.821 103.892 119.187 104.982 119.187C105.551 119.187 106.128 119.128 106.714 119.011V116.33H104.279V114.063ZM120.385 121.279H112.984V108.429H120.385V110.661H115.709V113.483H120.059V115.715H115.709V119.029H120.385V121.279ZM135.013 121.279H131.551L125.961 111.558H125.882C125.993 113.275 126.049 114.499 126.049 115.232V121.279H123.614V108.429H127.051L132.632 118.053H132.693C132.605 116.383 132.561 115.202 132.561 114.511V108.429H135.013V121.279ZM146.197 121.279H138.797V108.429H146.197V110.661H141.521V113.483H145.872V115.715H141.521V119.029H146.197V121.279ZM152.151 114.133H153.03C153.891 114.133 154.527 113.99 154.937 113.702C155.347 113.415 155.552 112.964 155.552 112.349C155.552 111.74 155.341 111.306 154.92 111.048C154.504 110.79 153.856 110.661 152.977 110.661H152.151V114.133ZM152.151 116.348V121.279H149.426V108.429H153.171C154.917 108.429 156.209 108.748 157.047 109.387C157.884 110.02 158.303 110.984 158.303 112.279C158.303 113.034 158.095 113.708 157.679 114.3C157.263 114.886 156.674 115.346 155.913 115.68C157.846 118.569 159.106 120.435 159.692 121.279H156.669L153.601 116.348H152.151ZM169.715 121.279L168.784 118.22H164.099L163.168 121.279H160.232L164.767 108.376H168.098L172.651 121.279H169.715ZM168.133 115.935C167.272 113.163 166.786 111.596 166.674 111.233C166.569 110.869 166.493 110.582 166.446 110.371C166.253 111.121 165.699 112.976 164.785 115.935H168.133ZM179.774 121.279H177.049V110.697H173.56V108.429H183.263V110.697H179.774V121.279ZM197.444 114.836C197.444 116.963 196.917 118.598 195.862 119.741C194.807 120.883 193.295 121.454 191.327 121.454C189.358 121.454 187.846 120.883 186.792 119.741C185.737 118.598 185.209 116.957 185.209 114.819C185.209 112.68 185.737 111.048 186.792 109.923C187.852 108.792 189.37 108.227 191.344 108.227C193.319 108.227 194.828 108.795 195.871 109.932C196.919 111.069 197.444 112.703 197.444 114.836ZM188.066 114.836C188.066 116.272 188.338 117.353 188.883 118.079C189.428 118.806 190.243 119.169 191.327 119.169C193.501 119.169 194.587 117.725 194.587 114.836C194.587 111.942 193.506 110.494 191.344 110.494C190.26 110.494 189.443 110.861 188.892 111.593C188.341 112.32 188.066 113.401 188.066 114.836ZM203.372 114.133H204.25C205.112 114.133 205.748 113.99 206.158 113.702C206.568 113.415 206.773 112.964 206.773 112.349C206.773 111.74 206.562 111.306 206.14 111.048C205.724 110.79 205.077 110.661 204.198 110.661H203.372V114.133ZM203.372 116.348V121.279H200.647V108.429H204.391C206.137 108.429 207.429 108.748 208.267 109.387C209.105 110.02 209.524 110.984 209.524 112.279C209.524 113.034 209.316 113.708 208.9 114.3C208.484 114.886 207.895 115.346 207.133 115.68C209.067 118.569 210.327 120.435 210.913 121.279H207.889L204.822 116.348H203.372ZM225.871 117.71C225.871 118.87 225.452 119.784 224.614 120.452C223.782 121.12 222.621 121.454 221.133 121.454C219.762 121.454 218.549 121.197 217.495 120.681V118.15C218.362 118.536 219.094 118.809 219.692 118.967C220.295 119.125 220.846 119.204 221.344 119.204C221.942 119.204 222.399 119.09 222.715 118.862C223.038 118.633 223.199 118.293 223.199 117.842C223.199 117.59 223.128 117.367 222.988 117.174C222.847 116.975 222.639 116.784 222.364 116.603C222.094 116.421 221.54 116.131 220.703 115.733C219.917 115.364 219.329 115.009 218.936 114.669C218.543 114.329 218.23 113.934 217.996 113.483C217.761 113.032 217.644 112.504 217.644 111.901C217.644 110.764 218.028 109.87 218.795 109.22C219.569 108.57 220.635 108.244 221.995 108.244C222.663 108.244 223.298 108.324 223.902 108.482C224.511 108.64 225.147 108.863 225.809 109.15L224.93 111.268C224.245 110.987 223.676 110.79 223.225 110.679C222.78 110.568 222.34 110.512 221.907 110.512C221.391 110.512 220.996 110.632 220.72 110.872C220.445 111.113 220.307 111.426 220.307 111.813C220.307 112.053 220.363 112.264 220.474 112.446C220.585 112.621 220.761 112.794 221.001 112.964C221.247 113.128 221.825 113.427 222.733 113.861C223.934 114.435 224.757 115.012 225.203 115.592C225.648 116.166 225.871 116.872 225.871 117.71ZM232.739 113.72L235.419 108.429H238.355L234.092 116.278V121.279H231.385V116.366L227.122 108.429H230.076L232.739 113.72ZM248.097 117.71C248.097 118.87 247.678 119.784 246.84 120.452C246.008 121.12 244.848 121.454 243.36 121.454C241.989 121.454 240.776 121.197 239.721 120.681V118.15C240.588 118.536 241.321 118.809 241.918 118.967C242.522 119.125 243.073 119.204 243.571 119.204C244.168 119.204 244.625 119.09 244.942 118.862C245.264 118.633 245.425 118.293 245.425 117.842C245.425 117.59 245.355 117.367 245.214 117.174C245.074 116.975 244.866 116.784 244.59 116.603C244.321 116.421 243.767 116.131 242.929 115.733C242.144 115.364 241.555 115.009 241.162 114.669C240.77 114.329 240.456 113.934 240.222 113.483C239.988 113.032 239.87 112.504 239.87 111.901C239.87 110.764 240.254 109.87 241.022 109.22C241.795 108.57 242.862 108.244 244.221 108.244C244.889 108.244 245.525 108.324 246.128 108.482C246.738 108.64 247.373 108.863 248.035 109.15L247.157 111.268C246.471 110.987 245.903 110.79 245.451 110.679C245.006 110.568 244.567 110.512 244.133 110.512C243.618 110.512 243.222 110.632 242.947 110.872C242.671 111.113 242.534 111.426 242.534 111.813C242.534 112.053 242.589 112.264 242.701 112.446C242.812 112.621 242.988 112.794 243.228 112.964C243.474 113.128 244.051 113.427 244.959 113.861C246.16 114.435 246.984 115.012 247.429 115.592C247.874 116.166 248.097 116.872 248.097 117.71ZM255.923 121.279H253.199V110.697H249.709V108.429H259.412V110.697H255.923V121.279ZM269.33 121.279H261.93V108.429H269.33V110.661H264.655V113.483H269.005V115.715H264.655V119.029H269.33V121.279ZM278 121.279L274.906 111.198H274.827C274.939 113.248 274.994 114.617 274.994 115.302V121.279H272.56V108.429H276.269L279.31 118.255H279.363L282.588 108.429H286.297V121.279H283.757V115.197C283.757 114.909 283.76 114.578 283.766 114.203C283.778 113.828 283.819 112.832 283.889 111.215H283.81L280.496 121.279H278Z" fill="#FEFEFE"/>
<path d="M0 175.279L14.5833 176.328C29.1667 177.456 58.3333 179.435 87.5 187.945C116.667 196.456 145.833 211.102 175 218.563C204.167 225.945 233.333 225.945 262.5 219.612C291.667 213.279 320.833 200.612 335.417 194.279L350 187.945V232.279H335.417C320.833 232.279 291.667 232.279 262.5 232.279C233.333 232.279 204.167 232.279 175 232.279C145.833 232.279 116.667 232.279 87.5 232.279C58.3333 232.279 29.1667 232.279 14.5833 232.279H0V175.279Z" fill="#17A2B8"/>
<g clip-path="url(#clip0)">
<path d="M180.5 74.7786H169.5V78.4036H180.5V74.7786ZM185.599 66.2259L179.99 60.6751C179.732 60.4202 179.383 60.2786 179.016 60.2786H178.667V67.5286H186V67.1831C186 66.8263 185.857 66.4808 185.599 66.2259ZM176.833 67.9818V60.2786H165.375C164.613 60.2786 164 60.8847 164 61.638V87.9193C164 88.6726 164.613 89.2786 165.375 89.2786H184.625C185.387 89.2786 186 88.6726 186 87.9193V69.3411H178.208C177.452 69.3411 176.833 68.7294 176.833 67.9818ZM167.667 64.3568C167.667 64.1064 167.872 63.9036 168.125 63.9036H172.708C172.962 63.9036 173.167 64.1064 173.167 64.3568V65.263C173.167 65.5134 172.962 65.7161 172.708 65.7161H168.125C167.872 65.7161 167.667 65.5134 167.667 65.263V64.3568ZM167.667 67.9818C167.667 67.7314 167.872 67.5286 168.125 67.5286H172.708C172.962 67.5286 173.167 67.7314 173.167 67.9818V68.888C173.167 69.1384 172.962 69.3411 172.708 69.3411H168.125C167.872 69.3411 167.667 69.1384 167.667 68.888V67.9818ZM182.333 85.2005C182.333 85.4509 182.128 85.6536 181.875 85.6536H177.292C177.038 85.6536 176.833 85.4509 176.833 85.2005V84.2943C176.833 84.0439 177.038 83.8411 177.292 83.8411H181.875C182.128 83.8411 182.333 84.0439 182.333 84.2943V85.2005ZM182.333 73.8724V79.3099C182.333 79.8106 181.923 80.2161 181.417 80.2161H168.583C168.077 80.2161 167.667 79.8106 167.667 79.3099V73.8724C167.667 73.3717 168.077 72.9661 168.583 72.9661H181.417C181.923 72.9661 182.333 73.3717 182.333 73.8724Z" fill="white"/>
</g>
<rect width="350" height="232.279" fill="#007BFF"/>
<path d="M53.6172 108.429H57.6162C59.4385 108.429 60.7598 108.69 61.5801 109.211C62.4062 109.727 62.8193 110.55 62.8193 111.681C62.8193 112.449 62.6377 113.078 62.2744 113.571C61.917 114.063 61.4395 114.359 60.8418 114.458V114.546C61.6562 114.728 62.2422 115.068 62.5996 115.566C62.9629 116.064 63.1445 116.726 63.1445 117.552C63.1445 118.724 62.7197 119.638 61.8701 120.294C61.0264 120.951 59.8779 121.279 58.4248 121.279H53.6172V108.429ZM56.3418 113.518H57.9238C58.6621 113.518 59.1953 113.404 59.5234 113.175C59.8574 112.947 60.0244 112.569 60.0244 112.041C60.0244 111.549 59.8428 111.198 59.4795 110.987C59.1221 110.77 58.5537 110.661 57.7744 110.661H56.3418V113.518ZM56.3418 115.68V119.029H58.1172C58.8672 119.029 59.4209 118.885 59.7783 118.598C60.1357 118.311 60.3145 117.871 60.3145 117.28C60.3145 116.213 59.5527 115.68 58.0293 115.68H56.3418ZM66.2509 121.279V108.429H68.9755V121.279H66.2509ZM72.7499 121.279V108.429H75.4745V119.029H80.6864V121.279H72.7499ZM83.4677 121.279V108.429H86.1923V119.029H91.4042V121.279H83.4677ZM104.279 114.063H109.377V120.725C108.551 120.994 107.771 121.182 107.039 121.287C106.312 121.399 105.568 121.454 104.806 121.454C102.867 121.454 101.385 120.886 100.359 119.749C99.3396 118.607 98.8299 116.969 98.8299 114.836C98.8299 112.762 99.4217 111.145 100.605 109.985C101.795 108.825 103.441 108.244 105.545 108.244C106.863 108.244 108.135 108.508 109.359 109.035L108.454 111.215C107.516 110.746 106.541 110.512 105.527 110.512C104.349 110.512 103.406 110.908 102.697 111.699C101.988 112.49 101.634 113.553 101.634 114.889C101.634 116.284 101.918 117.35 102.486 118.088C103.06 118.821 103.892 119.187 104.982 119.187C105.551 119.187 106.128 119.128 106.714 119.011V116.33H104.279V114.063ZM120.385 121.279H112.984V108.429H120.385V110.661H115.709V113.483H120.059V115.715H115.709V119.029H120.385V121.279ZM135.013 121.279H131.551L125.961 111.558H125.882C125.993 113.275 126.049 114.499 126.049 115.232V121.279H123.614V108.429H127.051L132.632 118.053H132.693C132.605 116.383 132.561 115.202 132.561 114.511V108.429H135.013V121.279ZM146.197 121.279H138.797V108.429H146.197V110.661H141.521V113.483H145.872V115.715H141.521V119.029H146.197V121.279ZM152.151 114.133H153.03C153.891 114.133 154.527 113.99 154.937 113.702C155.347 113.415 155.552 112.964 155.552 112.349C155.552 111.74 155.341 111.306 154.92 111.048C154.504 110.79 153.856 110.661 152.977 110.661H152.151V114.133ZM152.151 116.348V121.279H149.426V108.429H153.171C154.917 108.429 156.209 108.748 157.047 109.387C157.884 110.02 158.303 110.984 158.303 112.279C158.303 113.034 158.095 113.708 157.679 114.3C157.263 114.886 156.674 115.346 155.913 115.68C157.846 118.569 159.106 120.435 159.692 121.279H156.669L153.601 116.348H152.151ZM169.715 121.279L168.784 118.22H164.099L163.168 121.279H160.232L164.767 108.376H168.098L172.651 121.279H169.715ZM168.133 115.935C167.272 113.163 166.786 111.596 166.674 111.233C166.569 110.869 166.493 110.582 166.446 110.371C166.253 111.121 165.699 112.976 164.785 115.935H168.133ZM179.774 121.279H177.049V110.697H173.56V108.429H183.263V110.697H179.774V121.279ZM197.444 114.836C197.444 116.963 196.917 118.598 195.862 119.741C194.807 120.883 193.295 121.454 191.327 121.454C189.358 121.454 187.846 120.883 186.792 119.741C185.737 118.598 185.209 116.957 185.209 114.819C185.209 112.68 185.737 111.048 186.792 109.923C187.852 108.792 189.37 108.227 191.344 108.227C193.319 108.227 194.828 108.795 195.871 109.932C196.919 111.069 197.444 112.703 197.444 114.836ZM188.066 114.836C188.066 116.272 188.338 117.353 188.883 118.079C189.428 118.806 190.243 119.169 191.327 119.169C193.501 119.169 194.587 117.725 194.587 114.836C194.587 111.942 193.506 110.494 191.344 110.494C190.26 110.494 189.443 110.861 188.892 111.593C188.341 112.32 188.066 113.401 188.066 114.836ZM203.372 114.133H204.25C205.112 114.133 205.748 113.99 206.158 113.702C206.568 113.415 206.773 112.964 206.773 112.349C206.773 111.74 206.562 111.306 206.14 111.048C205.724 110.79 205.077 110.661 204.198 110.661H203.372V114.133ZM203.372 116.348V121.279H200.647V108.429H204.391C206.137 108.429 207.429 108.748 208.267 109.387C209.105 110.02 209.524 110.984 209.524 112.279C209.524 113.034 209.316 113.708 208.9 114.3C208.484 114.886 207.895 115.346 207.133 115.68C209.067 118.569 210.327 120.435 210.913 121.279H207.889L204.822 116.348H203.372ZM225.871 117.71C225.871 118.87 225.452 119.784 224.614 120.452C223.782 121.12 222.621 121.454 221.133 121.454C219.762 121.454 218.549 121.197 217.495 120.681V118.15C218.362 118.536 219.094 118.809 219.692 118.967C220.295 119.125 220.846 119.204 221.344 119.204C221.942 119.204 222.399 119.09 222.715 118.862C223.038 118.633 223.199 118.293 223.199 117.842C223.199 117.59 223.128 117.367 222.988 117.174C222.847 116.975 222.639 116.784 222.364 116.603C222.094 116.421 221.54 116.131 220.703 115.733C219.917 115.364 219.329 115.009 218.936 114.669C218.543 114.329 218.23 113.934 217.996 113.483C217.761 113.032 217.644 112.504 217.644 111.901C217.644 110.764 218.028 109.87 218.795 109.22C219.569 108.57 220.635 108.244 221.995 108.244C222.663 108.244 223.298 108.324 223.902 108.482C224.511 108.64 225.147 108.863 225.809 109.15L224.93 111.268C224.245 110.987 223.676 110.79 223.225 110.679C222.78 110.568 222.34 110.512 221.907 110.512C221.391 110.512 220.996 110.632 220.72 110.872C220.445 111.113 220.307 111.426 220.307 111.813C220.307 112.053 220.363 112.264 220.474 112.446C220.585 112.621 220.761 112.794 221.001 112.964C221.247 113.128 221.825 113.427 222.733 113.861C223.934 114.435 224.757 115.012 225.203 115.592C225.648 116.166 225.871 116.872 225.871 117.71ZM232.739 113.72L235.419 108.429H238.355L234.092 116.278V121.279H231.385V116.366L227.122 108.429H230.076L232.739 113.72ZM248.097 117.71C248.097 118.87 247.678 119.784 246.84 120.452C246.008 121.12 244.848 121.454 243.36 121.454C241.989 121.454 240.776 121.197 239.721 120.681V118.15C240.588 118.536 241.321 118.809 241.918 118.967C242.522 119.125 243.073 119.204 243.571 119.204C244.168 119.204 244.625 119.09 244.942 118.862C245.264 118.633 245.425 118.293 245.425 117.842C245.425 117.59 245.355 117.367 245.214 117.174C245.074 116.975 244.866 116.784 244.59 116.603C244.321 116.421 243.767 116.131 242.929 115.733C242.144 115.364 241.555 115.009 241.162 114.669C240.77 114.329 240.456 113.934 240.222 113.483C239.988 113.032 239.87 112.504 239.87 111.901C239.87 110.764 240.254 109.87 241.022 109.22C241.795 108.57 242.862 108.244 244.221 108.244C244.889 108.244 245.525 108.324 246.128 108.482C246.738 108.64 247.373 108.863 248.035 109.15L247.157 111.268C246.471 110.987 245.903 110.79 245.451 110.679C245.006 110.568 244.567 110.512 244.133 110.512C243.618 110.512 243.222 110.632 242.947 110.872C242.671 111.113 242.534 111.426 242.534 111.813C242.534 112.053 242.589 112.264 242.701 112.446C242.812 112.621 242.988 112.794 243.228 112.964C243.474 113.128 244.051 113.427 244.959 113.861C246.16 114.435 246.984 115.012 247.429 115.592C247.874 116.166 248.097 116.872 248.097 117.71ZM255.923 121.279H253.199V110.697H249.709V108.429H259.412V110.697H255.923V121.279ZM269.33 121.279H261.93V108.429H269.33V110.661H264.655V113.483H269.005V115.715H264.655V119.029H269.33V121.279ZM278 121.279L274.906 111.198H274.827C274.939 113.248 274.994 114.617 274.994 115.302V121.279H272.56V108.429H276.269L279.31 118.255H279.363L282.588 108.429H286.297V121.279H283.757V115.197C283.757 114.909 283.76 114.578 283.766 114.203C283.778 113.828 283.819 112.832 283.889 111.215H283.81L280.496 121.279H278Z" fill="#FEFEFE"/>
<path d="M0 175.279L14.5833 176.328C29.1667 177.456 58.3333 179.435 87.5 187.945C116.667 196.456 145.833 211.102 175 218.563C204.167 225.945 233.333 225.945 262.5 219.612C291.667 213.279 320.833 200.612 335.417 194.279L350 187.945V232.279H335.417C320.833 232.279 291.667 232.279 262.5 232.279C233.333 232.279 204.167 232.279 175 232.279C145.833 232.279 116.667 232.279 87.5 232.279C58.3333 232.279 29.1667 232.279 14.5833 232.279H0V175.279Z" fill="#17A2B8"/>
<g clip-path="url(#clip1)">
<path d="M180.5 74.7786H169.5V78.4036H180.5V74.7786ZM185.599 66.2259L179.99 60.6751C179.732 60.4202 179.383 60.2786 179.016 60.2786H178.667V67.5286H186V67.1831C186 66.8263 185.857 66.4808 185.599 66.2259ZM176.833 67.9818V60.2786H165.375C164.613 60.2786 164 60.8847 164 61.638V87.9193C164 88.6726 164.613 89.2786 165.375 89.2786H184.625C185.387 89.2786 186 88.6726 186 87.9193V69.3411H178.208C177.452 69.3411 176.833 68.7294 176.833 67.9818ZM167.667 64.3568C167.667 64.1064 167.872 63.9036 168.125 63.9036H172.708C172.962 63.9036 173.167 64.1064 173.167 64.3568V65.263C173.167 65.5134 172.962 65.7161 172.708 65.7161H168.125C167.872 65.7161 167.667 65.5134 167.667 65.263V64.3568ZM167.667 67.9818C167.667 67.7314 167.872 67.5286 168.125 67.5286H172.708C172.962 67.5286 173.167 67.7314 173.167 67.9818V68.888C173.167 69.1384 172.962 69.3411 172.708 69.3411H168.125C167.872 69.3411 167.667 69.1384 167.667 68.888V67.9818ZM182.333 85.2005C182.333 85.4509 182.128 85.6536 181.875 85.6536H177.292C177.038 85.6536 176.833 85.4509 176.833 85.2005V84.2943C176.833 84.0439 177.038 83.8411 177.292 83.8411H181.875C182.128 83.8411 182.333 84.0439 182.333 84.2943V85.2005ZM182.333 73.8724V79.3099C182.333 79.8106 181.923 80.2161 181.417 80.2161H168.583C168.077 80.2161 167.667 79.8106 167.667 79.3099V73.8724C167.667 73.3717 168.077 72.9661 168.583 72.9661H181.417C181.923 72.9661 182.333 73.3717 182.333 73.8724Z" fill="white"/>
</g>
<g clip-path="url(#clip2)">
<path d="M-71.7351 46.1601C-81.7055 36.05 -78.0344 12.6558 -73.2681 -11.1645C-68.5016 -34.9526 -62.6078 -59.167 -47.3276 -68.2963C-32.015 -77.4258 -7.28362 -71.4382 14.9577 -60.7226C37.1992 -49.9747 56.9185 -34.4665 60.9351 -15.7664C64.9519 2.96605 53.2337 24.8905 38.0319 36.376C22.8302 47.8615 4.17691 48.8755 -16.9878 51.002C-38.1204 53.096 -61.7647 56.2702 -71.7351 46.1601Z" fill="#17A2B8"/>
</g>
<defs>
<clipPath id="clip0">
<rect width="22" height="29" fill="white" transform="translate(164 60.2786)"/>
</clipPath>
<clipPath id="clip1">
<rect width="22" height="29" fill="white" transform="translate(164 60.2786)"/>
</clipPath>
<clipPath id="clip2">
<rect width="69" height="69" fill="white" transform="translate(69.4062 68.9988) rotate(179.662)"/>
</clipPath>
</defs>
</svg>
