<svg width="350" height="233" viewBox="0 0 350 233" fill="none" xmlns="http://www.w3.org/2000/svg">
<rect y="0.721375" width="350" height="232.279" fill="#3D32BF"/>
<path d="M53.6172 109.15H57.6162C59.4385 109.15 60.7598 109.411 61.5801 109.933C62.4062 110.448 62.8193 111.271 62.8193 112.402C62.8193 113.17 62.6377 113.8 62.2744 114.292C61.917 114.784 61.4395 115.08 60.8418 115.18V115.268C61.6562 115.449 62.2422 115.789 62.5996 116.287C62.9629 116.785 63.1445 117.447 63.1445 118.273C63.1445 119.445 62.7197 120.359 61.8701 121.016C61.0264 121.672 59.8779 122 58.4248 122H53.6172V109.15ZM56.3418 114.239H57.9238C58.6621 114.239 59.1953 114.125 59.5234 113.896C59.8574 113.668 60.0244 113.29 60.0244 112.763C60.0244 112.271 59.8428 111.919 59.4795 111.708C59.1221 111.491 58.5537 111.383 57.7744 111.383H56.3418V114.239ZM56.3418 116.401V119.75H58.1172C58.8672 119.75 59.4209 119.606 59.7783 119.319C60.1357 119.032 60.3145 118.593 60.3145 118.001C60.3145 116.935 59.5527 116.401 58.0293 116.401H56.3418ZM66.2509 122V109.15H68.9755V122H66.2509ZM72.7499 122V109.15H75.4745V119.75H80.6864V122H72.7499ZM83.4677 122V109.15H86.1923V119.75H91.4042V122H83.4677ZM104.279 114.784H109.377V121.446C108.551 121.716 107.771 121.903 107.039 122.009C106.312 122.12 105.568 122.176 104.806 122.176C102.867 122.176 101.385 121.607 100.359 120.471C99.3396 119.328 98.8299 117.69 98.8299 115.558C98.8299 113.483 99.4217 111.866 100.605 110.706C101.795 109.546 103.441 108.966 105.545 108.966C106.863 108.966 108.135 109.229 109.359 109.757L108.454 111.937C107.516 111.468 106.541 111.233 105.527 111.233C104.349 111.233 103.406 111.629 102.697 112.42C101.988 113.211 101.634 114.274 101.634 115.61C101.634 117.005 101.918 118.071 102.486 118.81C103.06 119.542 103.892 119.908 104.982 119.908C105.551 119.908 106.128 119.85 106.714 119.732V117.052H104.279V114.784ZM120.385 122H112.984V109.15H120.385V111.383H115.709V114.204H120.059V116.437H115.709V119.75H120.385V122ZM135.013 122H131.551L125.961 112.279H125.882C125.993 113.996 126.049 115.221 126.049 115.953V122H123.614V109.15H127.051L132.632 118.774H132.693C132.605 117.104 132.561 115.924 132.561 115.232V109.15H135.013V122ZM146.197 122H138.797V109.15H146.197V111.383H141.521V114.204H145.872V116.437H141.521V119.75H146.197V122ZM152.151 114.854H153.03C153.891 114.854 154.527 114.711 154.937 114.424C155.347 114.137 155.552 113.686 155.552 113.07C155.552 112.461 155.341 112.027 154.92 111.77C154.504 111.512 153.856 111.383 152.977 111.383H152.151V114.854ZM152.151 117.069V122H149.426V109.15H153.171C154.917 109.15 156.209 109.47 157.047 110.108C157.884 110.741 158.303 111.705 158.303 113C158.303 113.756 158.095 114.43 157.679 115.021C157.263 115.607 156.674 116.067 155.913 116.401C157.846 119.29 159.106 121.156 159.692 122H156.669L153.601 117.069H152.151ZM169.715 122L168.784 118.941H164.099L163.168 122H160.232L164.767 109.098H168.098L172.651 122H169.715ZM168.133 116.656C167.272 113.885 166.786 112.317 166.674 111.954C166.569 111.591 166.493 111.304 166.446 111.093C166.253 111.843 165.699 113.697 164.785 116.656H168.133ZM179.774 122H177.049V111.418H173.56V109.15H183.263V111.418H179.774V122ZM197.444 115.558C197.444 117.685 196.917 119.319 195.862 120.462C194.807 121.604 193.295 122.176 191.327 122.176C189.358 122.176 187.846 121.604 186.792 120.462C185.737 119.319 185.209 117.679 185.209 115.54C185.209 113.401 185.737 111.77 186.792 110.645C187.852 109.514 189.37 108.948 191.344 108.948C193.319 108.948 194.828 109.517 195.871 110.653C196.919 111.79 197.444 113.425 197.444 115.558ZM188.066 115.558C188.066 116.993 188.338 118.074 188.883 118.801C189.428 119.527 190.243 119.891 191.327 119.891C193.501 119.891 194.587 118.446 194.587 115.558C194.587 112.663 193.506 111.216 191.344 111.216C190.26 111.216 189.443 111.582 188.892 112.314C188.341 113.041 188.066 114.122 188.066 115.558ZM203.372 114.854H204.25C205.112 114.854 205.748 114.711 206.158 114.424C206.568 114.137 206.773 113.686 206.773 113.07C206.773 112.461 206.562 112.027 206.14 111.77C205.724 111.512 205.077 111.383 204.198 111.383H203.372V114.854ZM203.372 117.069V122H200.647V109.15H204.391C206.137 109.15 207.429 109.47 208.267 110.108C209.105 110.741 209.524 111.705 209.524 113C209.524 113.756 209.316 114.43 208.9 115.021C208.484 115.607 207.895 116.067 207.133 116.401C209.067 119.29 210.327 121.156 210.913 122H207.889L204.822 117.069H203.372ZM225.871 118.432C225.871 119.592 225.452 120.506 224.614 121.174C223.782 121.842 222.621 122.176 221.133 122.176C219.762 122.176 218.549 121.918 217.495 121.402V118.871C218.362 119.258 219.094 119.53 219.692 119.688C220.295 119.847 220.846 119.926 221.344 119.926C221.942 119.926 222.399 119.812 222.715 119.583C223.038 119.354 223.199 119.015 223.199 118.563C223.199 118.312 223.128 118.089 222.988 117.896C222.847 117.696 222.639 117.506 222.364 117.324C222.094 117.143 221.54 116.853 220.703 116.454C219.917 116.085 219.329 115.73 218.936 115.391C218.543 115.051 218.23 114.655 217.996 114.204C217.761 113.753 217.644 113.226 217.644 112.622C217.644 111.485 218.028 110.592 218.795 109.941C219.569 109.291 220.635 108.966 221.995 108.966C222.663 108.966 223.298 109.045 223.902 109.203C224.511 109.361 225.147 109.584 225.809 109.871L224.93 111.989C224.245 111.708 223.676 111.512 223.225 111.4C222.78 111.289 222.34 111.233 221.907 111.233C221.391 111.233 220.996 111.354 220.72 111.594C220.445 111.834 220.307 112.147 220.307 112.534C220.307 112.774 220.363 112.985 220.474 113.167C220.585 113.343 220.761 113.516 221.001 113.686C221.247 113.85 221.825 114.148 222.733 114.582C223.934 115.156 224.757 115.733 225.203 116.313C225.648 116.888 225.871 117.594 225.871 118.432ZM232.739 114.441L235.419 109.15H238.355L234.092 116.999V122H231.385V117.087L227.122 109.15H230.076L232.739 114.441ZM248.097 118.432C248.097 119.592 247.678 120.506 246.84 121.174C246.008 121.842 244.848 122.176 243.36 122.176C241.989 122.176 240.776 121.918 239.721 121.402V118.871C240.588 119.258 241.321 119.53 241.918 119.688C242.522 119.847 243.073 119.926 243.571 119.926C244.168 119.926 244.625 119.812 244.942 119.583C245.264 119.354 245.425 119.015 245.425 118.563C245.425 118.312 245.355 118.089 245.214 117.896C245.074 117.696 244.866 117.506 244.59 117.324C244.321 117.143 243.767 116.853 242.929 116.454C242.144 116.085 241.555 115.73 241.162 115.391C240.77 115.051 240.456 114.655 240.222 114.204C239.988 113.753 239.87 113.226 239.87 112.622C239.87 111.485 240.254 110.592 241.022 109.941C241.795 109.291 242.862 108.966 244.221 108.966C244.889 108.966 245.525 109.045 246.128 109.203C246.738 109.361 247.373 109.584 248.035 109.871L247.157 111.989C246.471 111.708 245.903 111.512 245.451 111.4C245.006 111.289 244.567 111.233 244.133 111.233C243.618 111.233 243.222 111.354 242.947 111.594C242.671 111.834 242.534 112.147 242.534 112.534C242.534 112.774 242.589 112.985 242.701 113.167C242.812 113.343 242.988 113.516 243.228 113.686C243.474 113.85 244.051 114.148 244.959 114.582C246.16 115.156 246.984 115.733 247.429 116.313C247.874 116.888 248.097 117.594 248.097 118.432ZM255.923 122H253.199V111.418H249.709V109.15H259.412V111.418H255.923V122ZM269.33 122H261.93V109.15H269.33V111.383H264.655V114.204H269.005V116.437H264.655V119.75H269.33V122ZM278 122L274.906 111.919H274.827C274.939 113.97 274.994 115.338 274.994 116.023V122H272.56V109.15H276.269L279.31 118.977H279.363L282.588 109.15H286.297V122H283.757V115.918C283.757 115.631 283.76 115.3 283.766 114.925C283.778 114.55 283.819 113.554 283.889 111.937H283.81L280.496 122H278Z" fill="#FEFEFE"/>
<path d="M0 176L14.5833 177.049C29.1667 178.177 58.3333 180.156 87.5 188.667C116.667 197.177 145.833 211.823 175 219.284C204.167 226.667 233.333 226.667 262.5 220.333C291.667 214 320.833 201.333 335.417 195L350 188.667V233H335.417C320.833 233 291.667 233 262.5 233C233.333 233 204.167 233 175 233C145.833 233 116.667 233 87.5 233C58.3333 233 29.1667 233 14.5833 233H0V176Z" fill="#6C59BC"/>
<path d="M180.5 75.5H169.5V79.125H180.5V75.5ZM185.599 66.9473L179.99 61.3965C179.732 61.1416 179.383 61 179.016 61H178.667V68.25H186V67.9045C186 67.5477 185.857 67.2021 185.599 66.9473ZM176.833 68.7031V61H165.375C164.613 61 164 61.6061 164 62.3594V88.6406C164 89.3939 164.613 90 165.375 90H184.625C185.387 90 186 89.3939 186 88.6406V70.0625H178.208C177.452 70.0625 176.833 69.4508 176.833 68.7031ZM167.667 65.0781C167.667 64.8278 167.872 64.625 168.125 64.625H172.708C172.962 64.625 173.167 64.8278 173.167 65.0781V65.9844C173.167 66.2347 172.962 66.4375 172.708 66.4375H168.125C167.872 66.4375 167.667 66.2347 167.667 65.9844V65.0781ZM167.667 68.7031C167.667 68.4528 167.872 68.25 168.125 68.25H172.708C172.962 68.25 173.167 68.4528 173.167 68.7031V69.6094C173.167 69.8597 172.962 70.0625 172.708 70.0625H168.125C167.872 70.0625 167.667 69.8597 167.667 69.6094V68.7031ZM182.333 85.9219C182.333 86.1722 182.128 86.375 181.875 86.375H177.292C177.038 86.375 176.833 86.1722 176.833 85.9219V85.0156C176.833 84.7653 177.038 84.5625 177.292 84.5625H181.875C182.128 84.5625 182.333 84.7653 182.333 85.0156V85.9219ZM182.333 74.5938V80.0312C182.333 80.532 181.923 80.9375 181.417 80.9375H168.583C168.077 80.9375 167.667 80.532 167.667 80.0312V74.5938C167.667 74.093 168.077 73.6875 168.583 73.6875H181.417C181.923 73.6875 182.333 74.093 182.333 74.5938Z" fill="white"/>
</svg>
