<svg width="350" height="233" viewBox="0 0 350 233" fill="none" xmlns="http://www.w3.org/2000/svg">
<rect y="0.721375" width="350" height="232.279" fill="#3D32BF"/>
<path d="M77.0752 111.233C76.0498 111.233 75.2559 111.62 74.6934 112.394C74.1309 113.161 73.8496 114.233 73.8496 115.61C73.8496 118.476 74.9248 119.908 77.0752 119.908C77.9775 119.908 79.0703 119.683 80.3535 119.231V121.517C79.2988 121.956 78.1211 122.176 76.8203 122.176C74.9512 122.176 73.5215 121.61 72.5312 120.479C71.541 119.343 71.0459 117.714 71.0459 115.593C71.0459 114.257 71.2891 113.088 71.7754 112.086C72.2617 111.078 72.959 110.308 73.8672 109.774C74.7812 109.235 75.8506 108.966 77.0752 108.966C78.3232 108.966 79.5771 109.268 80.8369 109.871L79.958 112.086C79.4775 111.857 78.9941 111.658 78.5078 111.488C78.0215 111.318 77.5439 111.233 77.0752 111.233ZM95.2988 115.558C95.2988 117.685 94.7714 119.319 93.7168 120.462C92.6621 121.604 91.1504 122.176 89.1816 122.176C87.2129 122.176 85.7011 121.604 84.6464 120.462C83.5918 119.319 83.0644 117.679 83.0644 115.54C83.0644 113.401 83.5918 111.77 84.6464 110.645C85.707 109.514 87.2246 108.948 89.1992 108.948C91.1738 108.948 92.6826 109.517 93.7255 110.653C94.7744 111.79 95.2988 113.425 95.2988 115.558ZM85.9209 115.558C85.9209 116.993 86.1933 118.074 86.7382 118.801C87.2832 119.527 88.0976 119.891 89.1816 119.891C91.3554 119.891 92.4423 118.446 92.4423 115.558C92.4423 112.663 91.3613 111.216 89.1992 111.216C88.1152 111.216 87.2978 111.582 86.747 112.314C86.1962 113.041 85.9209 114.122 85.9209 115.558ZM103.942 122L100.849 111.919H100.769C100.881 113.97 100.936 115.338 100.936 116.023V122H98.5019V109.15H102.211L105.252 118.977H105.305L108.53 109.15H112.239V122H109.699V115.918C109.699 115.631 109.702 115.3 109.708 114.925C109.72 114.55 109.761 113.554 109.831 111.937H109.752L106.438 122H103.942ZM118.747 115.197H119.643C120.481 115.197 121.108 115.033 121.524 114.705C121.94 114.371 122.148 113.888 122.148 113.255C122.148 112.616 121.973 112.145 121.621 111.84C121.275 111.535 120.73 111.383 119.986 111.383H118.747V115.197ZM124.899 113.158C124.899 114.541 124.466 115.599 123.599 116.331C122.737 117.063 121.51 117.43 119.916 117.43H118.747V122H116.022V109.15H120.127C121.685 109.15 122.869 109.487 123.678 110.161C124.492 110.829 124.899 111.828 124.899 113.158ZM135.731 122L134.8 118.941H130.115L129.183 122H126.248L130.783 109.098H134.114L138.667 122H135.731ZM134.149 116.656C133.288 113.885 132.802 112.317 132.69 111.954C132.585 111.591 132.509 111.304 132.462 111.093C132.268 111.843 131.715 113.697 130.801 116.656H134.149ZM152.232 122H148.769L143.179 112.279H143.1C143.212 113.996 143.267 115.221 143.267 115.953V122H140.833V109.15H144.269L149.85 118.774H149.912C149.824 117.104 149.78 115.924 149.78 115.232V109.15H152.232V122ZM156.015 122V109.15H158.74V122H156.015ZM169.915 122H162.514V109.15H169.915V111.383H165.239V114.204H169.59V116.437H165.239V119.75H169.915V122ZM180.729 118.432C180.729 119.592 180.31 120.506 179.472 121.174C178.64 121.842 177.48 122.176 175.992 122.176C174.621 122.176 173.408 121.918 172.353 121.402V118.871C173.22 119.258 173.953 119.53 174.55 119.688C175.154 119.847 175.705 119.926 176.203 119.926C176.8 119.926 177.257 119.812 177.574 119.583C177.896 119.354 178.057 119.015 178.057 118.563C178.057 118.312 177.987 118.089 177.846 117.896C177.706 117.696 177.498 117.506 177.222 117.324C176.953 117.143 176.399 116.853 175.561 116.454C174.776 116.085 174.187 115.73 173.795 115.391C173.402 115.051 173.089 114.655 172.854 114.204C172.62 113.753 172.503 113.226 172.503 112.622C172.503 111.485 172.886 110.592 173.654 109.941C174.427 109.291 175.494 108.966 176.853 108.966C177.521 108.966 178.157 109.045 178.76 109.203C179.37 109.361 180.006 109.584 180.668 109.871L179.789 111.989C179.103 111.708 178.535 111.512 178.084 111.4C177.638 111.289 177.199 111.233 176.765 111.233C176.25 111.233 175.854 111.354 175.579 111.594C175.303 111.834 175.166 112.147 175.166 112.534C175.166 112.774 175.221 112.985 175.333 113.167C175.444 113.343 175.62 113.516 175.86 113.686C176.106 113.85 176.683 114.148 177.591 114.582C178.793 115.156 179.616 115.733 180.061 116.313C180.507 116.888 180.729 117.594 180.729 118.432ZM199.475 115.452C199.475 117.567 198.872 119.188 197.665 120.312C196.463 121.438 194.726 122 192.453 122H188.814V109.15H192.848C194.946 109.15 196.575 109.704 197.735 110.812C198.895 111.919 199.475 113.466 199.475 115.452ZM196.645 115.522C196.645 112.763 195.426 111.383 192.989 111.383H191.539V119.75H192.708C195.333 119.75 196.645 118.341 196.645 115.522ZM210.544 122L209.613 118.941H204.928L203.997 122H201.061L205.596 109.098H208.927L213.48 122H210.544ZM208.962 116.656C208.101 113.885 207.615 112.317 207.503 111.954C207.398 111.591 207.322 111.304 207.275 111.093C207.082 111.843 206.528 113.697 205.614 116.656H208.962ZM220.603 122H217.878V111.418H214.389V109.15H224.092V111.418H220.603V122ZM234.476 122L233.544 118.941H228.86L227.928 122H224.993L229.528 109.098H232.859L237.412 122H234.476ZM232.894 116.656C232.033 113.885 231.546 112.317 231.435 111.954C231.33 111.591 231.253 111.304 231.207 111.093C231.013 111.843 230.459 113.697 229.545 116.656H232.894ZM239.578 109.15H243.577C245.399 109.15 246.72 109.411 247.54 109.933C248.367 110.448 248.78 111.271 248.78 112.402C248.78 113.17 248.598 113.8 248.235 114.292C247.877 114.784 247.4 115.08 246.802 115.18V115.268C247.617 115.449 248.203 115.789 248.56 116.287C248.923 116.785 249.105 117.447 249.105 118.273C249.105 119.445 248.68 120.359 247.831 121.016C246.987 121.672 245.838 122 244.385 122H239.578V109.15ZM242.302 114.239H243.884C244.622 114.239 245.156 114.125 245.484 113.896C245.818 113.668 245.985 113.29 245.985 112.763C245.985 112.271 245.803 111.919 245.44 111.708C245.082 111.491 244.514 111.383 243.735 111.383H242.302V114.239ZM242.302 116.401V119.75H244.078C244.828 119.75 245.381 119.606 245.739 119.319C246.096 119.032 246.275 118.593 246.275 118.001C246.275 116.935 245.513 116.401 243.99 116.401H242.302ZM260.078 122L259.146 118.941H254.461L253.53 122H250.594L255.129 109.098H258.46L263.013 122H260.078ZM258.496 116.656C257.634 113.885 257.148 112.317 257.037 111.954C256.931 111.591 256.855 111.304 256.808 111.093C256.615 111.843 256.061 113.697 255.147 116.656H258.496ZM272.764 118.432C272.764 119.592 272.345 120.506 271.507 121.174C270.675 121.842 269.515 122.176 268.027 122.176C266.656 122.176 265.443 121.918 264.388 121.402V118.871C265.255 119.258 265.988 119.53 266.585 119.688C267.189 119.847 267.74 119.926 268.238 119.926C268.835 119.926 269.292 119.812 269.609 119.583C269.931 119.354 270.092 119.015 270.092 118.563C270.092 118.312 270.022 118.089 269.881 117.896C269.741 117.696 269.533 117.506 269.257 117.324C268.988 117.143 268.434 116.853 267.596 116.454C266.811 116.085 266.222 115.73 265.829 115.391C265.437 115.051 265.123 114.655 264.889 114.204C264.655 113.753 264.537 113.226 264.537 112.622C264.537 111.485 264.921 110.592 265.689 109.941C266.462 109.291 267.529 108.966 268.888 108.966C269.556 108.966 270.192 109.045 270.795 109.203C271.405 109.361 272.04 109.584 272.702 109.871L271.824 111.989C271.138 111.708 270.57 111.512 270.119 111.4C269.673 111.289 269.234 111.233 268.8 111.233C268.285 111.233 267.889 111.354 267.614 111.594C267.338 111.834 267.201 112.147 267.201 112.534C267.201 112.774 267.256 112.985 267.368 113.167C267.479 113.343 267.655 113.516 267.895 113.686C268.141 113.85 268.718 114.148 269.626 114.582C270.827 115.156 271.651 115.733 272.096 116.313C272.541 116.888 272.764 117.594 272.764 118.432ZM283.034 122H275.633V109.15H283.034V111.383H278.358V114.204H282.708V116.437H278.358V119.75H283.034V122Z" fill="#FEFEFE"/>
<path d="M0 176L14.5833 177.049C29.1667 178.177 58.3333 180.156 87.5 188.667C116.667 197.177 145.833 211.823 175 219.284C204.167 226.667 233.333 226.667 262.5 220.333C291.667 214 320.833 201.333 335.417 195L350 188.667V233H335.417C320.833 233 291.667 233 262.5 233C233.333 233 204.167 233 175 233C145.833 233 116.667 233 87.5 233C58.3333 233 29.1667 233 14.5833 233H0V176Z" fill="#6C59BC"/>
<path d="M190 65.1429V67.7321C190 70.014 184.177 71.875 177 71.875C169.823 71.875 164 70.014 164 67.7321V65.1429C164 62.861 169.823 61 177 61C184.177 61 190 62.861 190 65.1429ZM190 70.9688V76.7946C190 79.0765 184.177 80.9375 177 80.9375C169.823 80.9375 164 79.0765 164 76.7946V70.9688C166.793 72.846 171.905 73.7199 177 73.7199C182.095 73.7199 187.207 72.846 190 70.9688ZM190 80.0312V85.8571C190 88.139 184.177 90 177 90C169.823 90 164 88.139 164 85.8571V80.0312C166.793 81.9085 171.905 82.7824 177 82.7824C182.095 82.7824 187.207 81.9085 190 80.0312Z" fill="white"/>
</svg>
