<svg width="350" height="233" viewBox="0 0 350 233" fill="none" xmlns="http://www.w3.org/2000/svg">
<rect y="0.721375" width="350" height="232.279" fill="#3D32BF"/>
<path d="M76.0752 111.233C75.0498 111.233 74.2559 111.62 73.6934 112.394C73.1309 113.161 72.8496 114.233 72.8496 115.61C72.8496 118.476 73.9248 119.908 76.0752 119.908C76.9775 119.908 78.0703 119.683 79.3535 119.231V121.517C78.2988 121.956 77.1211 122.176 75.8203 122.176C73.9512 122.176 72.5215 121.61 71.5312 120.479C70.541 119.343 70.0459 117.714 70.0459 115.593C70.0459 114.257 70.2891 113.088 70.7754 112.086C71.2617 111.078 71.959 110.308 72.8672 109.774C73.7812 109.235 74.8506 108.966 76.0752 108.966C77.3232 108.966 78.5771 109.268 79.8369 109.871L78.958 112.086C78.4775 111.857 77.9941 111.658 77.5078 111.488C77.0215 111.318 76.5439 111.233 76.0752 111.233ZM94.2988 115.558C94.2988 117.685 93.7714 119.319 92.7168 120.462C91.6621 121.604 90.1504 122.176 88.1816 122.176C86.2129 122.176 84.7011 121.604 83.6464 120.462C82.5918 119.319 82.0644 117.679 82.0644 115.54C82.0644 113.401 82.5918 111.77 83.6464 110.645C84.707 109.514 86.2246 108.948 88.1992 108.948C90.1738 108.948 91.6826 109.517 92.7255 110.653C93.7744 111.79 94.2988 113.425 94.2988 115.558ZM84.9209 115.558C84.9209 116.993 85.1933 118.074 85.7382 118.801C86.2832 119.527 87.0976 119.891 88.1816 119.891C90.3554 119.891 91.4423 118.446 91.4423 115.558C91.4423 112.663 90.3613 111.216 88.1992 111.216C87.1152 111.216 86.2978 111.582 85.747 112.314C85.1962 113.041 84.9209 114.122 84.9209 115.558ZM102.942 122L99.8486 111.919H99.7695C99.8808 113.97 99.9364 115.338 99.9364 116.023V122H97.5019V109.15H101.211L104.252 118.977H104.305L107.53 109.15H111.239V122H108.699V115.918C108.699 115.631 108.702 115.3 108.708 114.925C108.72 114.55 108.761 113.554 108.831 111.937H108.752L105.438 122H102.942ZM117.747 115.197H118.643C119.481 115.197 120.108 115.033 120.524 114.705C120.94 114.371 121.148 113.888 121.148 113.255C121.148 112.616 120.973 112.145 120.621 111.84C120.275 111.535 119.73 111.383 118.986 111.383H117.747V115.197ZM123.899 113.158C123.899 114.541 123.466 115.599 122.599 116.331C121.737 117.063 120.51 117.43 118.916 117.43H117.747V122H115.022V109.15H119.127C120.685 109.15 121.869 109.487 122.678 110.161C123.492 110.829 123.899 111.828 123.899 113.158ZM134.731 122L133.8 118.941H129.115L128.183 122H125.248L129.783 109.098H133.114L137.667 122H134.731ZM133.149 116.656C132.288 113.885 131.802 112.317 131.69 111.954C131.585 111.591 131.509 111.304 131.462 111.093C131.268 111.843 130.715 113.697 129.801 116.656H133.149ZM151.232 122H147.769L142.179 112.279H142.1C142.212 113.996 142.267 115.221 142.267 115.953V122H139.833V109.15H143.269L148.85 118.774H148.912C148.824 117.104 148.78 115.924 148.78 115.232V109.15H151.232V122ZM155.015 122V109.15H157.74V122H155.015ZM168.915 122H161.514V109.15H168.915V111.383H164.239V114.204H168.59V116.437H164.239V119.75H168.915V122ZM179.729 118.432C179.729 119.592 179.31 120.506 178.472 121.174C177.64 121.842 176.48 122.176 174.992 122.176C173.621 122.176 172.408 121.918 171.353 121.402V118.871C172.22 119.258 172.953 119.53 173.55 119.688C174.154 119.847 174.705 119.926 175.203 119.926C175.8 119.926 176.257 119.812 176.574 119.583C176.896 119.354 177.057 119.015 177.057 118.563C177.057 118.312 176.987 118.089 176.846 117.896C176.706 117.696 176.498 117.506 176.222 117.324C175.953 117.143 175.399 116.853 174.561 116.454C173.776 116.085 173.187 115.73 172.795 115.391C172.402 115.051 172.089 114.655 171.854 114.204C171.62 113.753 171.503 113.226 171.503 112.622C171.503 111.485 171.886 110.592 172.654 109.941C173.427 109.291 174.494 108.966 175.853 108.966C176.521 108.966 177.157 109.045 177.76 109.203C178.37 109.361 179.006 109.584 179.668 109.871L178.789 111.989C178.103 111.708 177.535 111.512 177.084 111.4C176.638 111.289 176.199 111.233 175.765 111.233C175.25 111.233 174.854 111.354 174.579 111.594C174.303 111.834 174.166 112.147 174.166 112.534C174.166 112.774 174.221 112.985 174.333 113.167C174.444 113.343 174.62 113.516 174.86 113.686C175.106 113.85 175.683 114.148 176.591 114.582C177.793 115.156 178.616 115.733 179.061 116.313C179.507 116.888 179.729 117.594 179.729 118.432ZM198.475 115.452C198.475 117.567 197.872 119.188 196.665 120.312C195.463 121.438 193.726 122 191.453 122H187.814V109.15H191.848C193.946 109.15 195.575 109.704 196.735 110.812C197.895 111.919 198.475 113.466 198.475 115.452ZM195.645 115.522C195.645 112.763 194.426 111.383 191.989 111.383H190.539V119.75H191.708C194.333 119.75 195.645 118.341 195.645 115.522ZM209.544 122L208.613 118.941H203.928L202.997 122H200.061L204.596 109.098H207.927L212.48 122H209.544ZM207.962 116.656C207.101 113.885 206.615 112.317 206.503 111.954C206.398 111.591 206.322 111.304 206.275 111.093C206.082 111.843 205.528 113.697 204.614 116.656H207.962ZM219.603 122H216.878V111.418H213.389V109.15H223.092V111.418H219.603V122ZM233.476 122L232.544 118.941H227.86L226.928 122H223.993L228.528 109.098H231.859L236.412 122H233.476ZM231.894 116.656C231.033 113.885 230.546 112.317 230.435 111.954C230.33 111.591 230.253 111.304 230.207 111.093C230.013 111.843 229.459 113.697 228.545 116.656H231.894ZM238.578 109.15H242.577C244.399 109.15 245.72 109.411 246.54 109.933C247.367 110.448 247.78 111.271 247.78 112.402C247.78 113.17 247.598 113.8 247.235 114.292C246.877 114.784 246.4 115.08 245.802 115.18V115.268C246.617 115.449 247.203 115.789 247.56 116.287C247.923 116.785 248.105 117.447 248.105 118.273C248.105 119.445 247.68 120.359 246.831 121.016C245.987 121.672 244.838 122 243.385 122H238.578V109.15ZM241.302 114.239H242.884C243.622 114.239 244.156 114.125 244.484 113.896C244.818 113.668 244.985 113.29 244.985 112.763C244.985 112.271 244.803 111.919 244.44 111.708C244.082 111.491 243.514 111.383 242.735 111.383H241.302V114.239ZM241.302 116.401V119.75H243.078C243.828 119.75 244.381 119.606 244.739 119.319C245.096 119.032 245.275 118.593 245.275 118.001C245.275 116.935 244.513 116.401 242.99 116.401H241.302ZM259.078 122L258.146 118.941H253.461L252.53 122H249.594L254.129 109.098H257.46L262.013 122H259.078ZM257.496 116.656C256.634 113.885 256.148 112.317 256.037 111.954C255.931 111.591 255.855 111.304 255.808 111.093C255.615 111.843 255.061 113.697 254.147 116.656H257.496ZM271.764 118.432C271.764 119.592 271.345 120.506 270.507 121.174C269.675 121.842 268.515 122.176 267.027 122.176C265.656 122.176 264.443 121.918 263.388 121.402V118.871C264.255 119.258 264.988 119.53 265.585 119.688C266.189 119.847 266.74 119.926 267.238 119.926C267.835 119.926 268.292 119.812 268.609 119.583C268.931 119.354 269.092 119.015 269.092 118.563C269.092 118.312 269.022 118.089 268.881 117.896C268.741 117.696 268.533 117.506 268.257 117.324C267.988 117.143 267.434 116.853 266.596 116.454C265.811 116.085 265.222 115.73 264.829 115.391C264.437 115.051 264.123 114.655 263.889 114.204C263.655 113.753 263.537 113.226 263.537 112.622C263.537 111.485 263.921 110.592 264.689 109.941C265.462 109.291 266.529 108.966 267.888 108.966C268.556 108.966 269.192 109.045 269.795 109.203C270.405 109.361 271.04 109.584 271.702 109.871L270.824 111.989C270.138 111.708 269.57 111.512 269.119 111.4C268.673 111.289 268.234 111.233 267.8 111.233C267.285 111.233 266.889 111.354 266.614 111.594C266.338 111.834 266.201 112.147 266.201 112.534C266.201 112.774 266.256 112.985 266.368 113.167C266.479 113.343 266.655 113.516 266.895 113.686C267.141 113.85 267.718 114.148 268.626 114.582C269.827 115.156 270.651 115.733 271.096 116.313C271.541 116.888 271.764 117.594 271.764 118.432ZM282.034 122H274.633V109.15H282.034V111.383H277.358V114.204H281.708V116.437H277.358V119.75H282.034V122Z" fill="#FEFEFE"/>
<path d="M0 176L14.5833 177.049C29.1667 178.177 58.3333 180.156 87.5 188.667C116.667 197.177 145.833 211.823 175 219.284C204.167 226.667 233.333 226.667 262.5 220.333C291.667 214 320.833 201.333 335.417 195L350 188.667V233H335.417C320.833 233 291.667 233 262.5 233C233.333 233 204.167 233 175 233C145.833 233 116.667 233 87.5 233C58.3333 233 29.1667 233 14.5833 233H0V176Z" fill="#6C59BC"/>
<path d="M127.227 67.8305C127.121 67.6108 126.898 67.4711 126.654 67.4711C126.654 67.4711 126.653 67.4711 126.653 67.4711L125.889 67.4727C125.645 67.4732 125.422 67.6138 125.317 67.8345L119.062 80.9471C118.968 81.144 118.982 81.3752 119.098 81.5596C119.214 81.7441 119.417 81.856 119.635 81.856H120.574C120.819 81.856 121.042 81.7152 121.147 81.4942L122.784 78.0629H129.809L131.465 81.4966C131.571 81.7164 131.793 81.8561 132.037 81.8561H132.978C132.978 81.8561 132.979 81.8561 132.979 81.8561C133.33 81.8561 133.615 81.5716 133.615 81.2207C133.615 81.1056 133.584 80.9976 133.531 80.9044L127.227 67.8305ZM123.795 75.9451L126.278 70.7392L128.788 75.9451H123.795Z" fill="white"/>
<path d="M153.933 68.1751L153.595 67.4962C153.488 67.2804 153.268 67.144 153.027 67.144H143.543C143.192 67.144 142.908 67.4285 142.908 67.7794V68.6265C142.908 68.9774 143.192 69.2619 143.543 69.2619H150.911L142.803 80.1481C142.66 80.3402 142.637 80.5964 142.744 80.8107L143.082 81.4897C143.19 81.7055 143.41 81.8419 143.651 81.8419H153.081C153.432 81.8419 153.716 81.5574 153.716 81.2065V80.3594C153.716 80.0085 153.432 79.724 153.081 79.724H145.767L153.874 68.8377C154.017 68.6457 154.04 68.3895 153.933 68.1751Z" fill="white"/>
<path d="M142.027 75.8576L141.36 75.3353C141.227 75.2315 141.059 75.1845 140.891 75.2049C140.724 75.2253 140.572 75.3112 140.468 75.4439L138.923 77.4165V67.7795C138.923 67.4286 138.639 67.1441 138.288 67.1441H137.441C137.09 67.1441 136.805 67.4286 136.805 67.7795V77.4165L135.261 75.4439C135.157 75.3113 135.005 75.2253 134.837 75.2049C134.67 75.1845 134.502 75.2315 134.369 75.3353L133.702 75.8576C133.426 76.0739 133.377 76.4732 133.594 76.7495L137.364 81.5652C137.485 81.719 137.669 81.8088 137.864 81.8088C138.06 81.8088 138.244 81.7189 138.365 81.5652L142.135 76.7495C142.351 76.4732 142.303 76.0739 142.027 75.8576Z" fill="white"/>
<path d="M174.429 74.0625H171.857V71.25C171.857 70.9049 171.601 70.625 171.286 70.625H170.714C170.399 70.625 170.143 70.9049 170.143 71.25V74.0625H167.571C167.256 74.0625 167 74.3424 167 74.6875V75.3125C167 75.6576 167.256 75.9375 167.571 75.9375H170.143V78.75C170.143 79.0951 170.399 79.375 170.714 79.375H171.286C171.601 79.375 171.857 79.0951 171.857 78.75V75.9375H174.429C174.744 75.9375 175 75.6576 175 75.3125V74.6875C175 74.3424 174.744 74.0625 174.429 74.0625Z" fill="white"/>
<path d="M215.87 70.6906C215.575 70.5922 215.28 70.4992 214.984 70.4117C215.034 70.2094 215.077 70.007 215.121 69.8047C215.794 66.5453 215.351 63.9258 213.858 63.0617C212.42 62.2359 210.073 63.0945 207.7 65.1617C207.465 65.364 207.235 65.5773 207.016 65.7906C206.869 65.6484 206.716 65.5062 206.562 65.3695C204.074 63.1601 201.58 62.2305 200.088 63.1C198.655 63.9312 198.228 66.3976 198.83 69.482C198.89 69.7883 198.955 70.089 199.032 70.3953C198.682 70.4937 198.337 70.6031 198.015 70.718C195.095 71.7297 193 73.3265 193 74.9781C193 76.6844 195.231 78.3961 198.266 79.4351C198.513 79.5172 198.759 79.5992 199.01 79.6703C198.928 79.9984 198.857 80.3211 198.791 80.6547C198.217 83.6898 198.666 86.0961 200.098 86.9219C201.575 87.775 204.058 86.9 206.475 84.7836C206.666 84.614 206.858 84.4391 207.049 84.2531C207.29 84.4883 207.541 84.7125 207.793 84.9312C210.134 86.9437 212.447 87.7586 213.874 86.9328C215.351 86.0797 215.832 83.493 215.209 80.343C215.159 80.1023 215.105 79.8562 215.045 79.6047C215.22 79.5555 215.389 79.5008 215.559 79.4461C218.714 78.4015 221 76.7117 221 74.9781C221 73.3211 218.845 71.7133 215.87 70.6906ZM208.471 66.0476C210.505 64.2758 212.403 63.5812 213.267 64.0789C214.191 64.6094 214.547 66.7531 213.967 69.5695C213.929 69.7555 213.891 69.9359 213.841 70.1164C212.627 69.843 211.397 69.6461 210.161 69.5367C209.45 68.5195 208.673 67.5461 207.831 66.6328C208.045 66.4305 208.252 66.2391 208.471 66.0476ZM202.144 77.8164C202.423 78.2922 202.707 78.768 203.008 79.2328C202.155 79.1398 201.307 79.0031 200.47 78.8226C200.711 78.0351 201.012 77.2203 201.362 76.389C201.613 76.8703 201.87 77.3461 202.144 77.8164ZM200.487 71.2375C201.274 71.0625 202.111 70.9203 202.98 70.8109C202.691 71.2648 202.406 71.7297 202.138 72.2C201.87 72.6648 201.608 73.1406 201.362 73.6219C201.017 72.807 200.727 72.0086 200.487 71.2375ZM201.985 75.0055C202.346 74.2508 202.74 73.5125 203.155 72.7851C203.571 72.0578 204.02 71.3523 204.49 70.6578C205.31 70.5976 206.147 70.5648 207 70.5648C207.853 70.5648 208.695 70.5976 209.51 70.6578C209.975 71.3469 210.418 72.0523 210.839 72.7742C211.26 73.4961 211.654 74.2344 212.026 74.9836C211.659 75.7383 211.266 76.482 210.845 77.2148C210.429 77.9422 209.986 78.6476 209.521 79.3476C208.706 79.4078 207.859 79.4351 207 79.4351C206.141 79.4351 205.31 79.4078 204.506 79.3586C204.03 78.6641 203.582 77.9531 203.161 77.2258C202.74 76.4984 202.352 75.7601 201.985 75.0055ZM211.862 77.8055C212.141 77.3242 212.403 76.8375 212.66 76.3453C213.01 77.1383 213.316 77.9422 213.584 78.768C212.737 78.9594 211.878 79.107 211.014 79.2055C211.309 78.7461 211.588 78.2758 211.862 77.8055ZM212.649 73.6219C212.392 73.1406 212.13 72.6594 211.856 72.189C211.588 71.7242 211.309 71.2648 211.02 70.8109C211.9 70.9203 212.742 71.068 213.53 71.2484C213.278 72.0578 212.983 72.8453 212.649 73.6219ZM207.011 67.4695C207.585 68.093 208.127 68.7492 208.63 69.4273C207.547 69.3781 206.459 69.3781 205.376 69.4273C205.912 68.7219 206.464 68.0656 207.011 67.4695ZM200.667 64.1172C201.586 63.5812 203.626 64.3469 205.775 66.25C205.912 66.3703 206.048 66.5015 206.191 66.6328C205.343 67.5461 204.561 68.5195 203.845 69.5367C202.609 69.6461 201.384 69.8375 200.17 70.1055C200.098 69.8265 200.038 69.5422 199.978 69.2578C199.464 66.6109 199.803 64.6148 200.667 64.1172ZM199.327 78.5328C199.098 78.4672 198.873 78.3961 198.649 78.3195C197.484 77.9531 196.161 77.3734 195.204 76.6133C194.652 76.2305 194.28 75.6398 194.176 74.9781C194.176 73.9773 195.904 72.6976 198.398 71.8281C198.709 71.7187 199.027 71.6203 199.344 71.5273C199.716 72.714 200.164 73.8789 200.684 75.0055C200.159 76.1484 199.705 77.3297 199.327 78.5328ZM205.704 83.8922C204.802 84.718 203.757 85.3742 202.62 85.8226C202.012 86.1125 201.312 86.1398 200.689 85.8937C199.82 85.3906 199.459 83.4601 199.951 80.8625C200.011 80.5562 200.077 80.25 200.153 79.9492C201.378 80.2117 202.614 80.3922 203.866 80.4851C204.588 81.5078 205.381 82.4867 206.229 83.4055C206.054 83.575 205.879 83.739 205.704 83.8922ZM207.044 82.5633C206.486 81.9617 205.928 81.2945 205.387 80.5781C205.912 80.6 206.453 80.6109 207 80.6109C207.563 80.6109 208.116 80.6 208.662 80.5726C208.159 81.2672 207.618 81.9289 207.044 82.5633ZM214.191 84.2039C214.142 84.8711 213.814 85.4945 213.289 85.9156C212.42 86.4187 210.566 85.7625 208.564 84.0453C208.334 83.8484 208.105 83.6351 207.87 83.4164C208.706 82.4922 209.477 81.5133 210.177 80.4851C211.43 80.3812 212.677 80.1898 213.907 79.9109C213.962 80.1351 214.011 80.3594 214.055 80.5781C214.323 81.7594 214.366 82.9898 214.191 84.2039ZM215.187 78.325C215.034 78.3742 214.88 78.4234 214.722 78.4672C214.339 77.275 213.869 76.1101 213.327 74.9781C213.852 73.8625 214.295 72.714 214.667 71.5383C214.952 71.6203 215.225 71.7078 215.488 71.7953C218.036 72.6703 219.824 73.9719 219.824 74.9672C219.824 76.039 217.916 77.4226 215.187 78.325ZM207 77.5047C208.384 77.5047 209.505 76.3836 209.505 75C209.505 73.6164 208.384 72.4953 207 72.4953C205.616 72.4953 204.495 73.6164 204.495 75C204.495 76.3836 205.616 77.5047 207 77.5047Z" fill="white"/>
</svg>
