<svg width="350" height="233" viewBox="0 0 350 233" fill="none" xmlns="http://www.w3.org/2000/svg">
<rect width="350" height="232.279" fill="#007BFF"/>
<path d="M77.0752 110.512C76.0498 110.512 75.2559 110.899 74.6934 111.672C74.1309 112.44 73.8496 113.512 73.8496 114.889C73.8496 117.754 74.9248 119.187 77.0752 119.187C77.9775 119.187 79.0703 118.961 80.3535 118.51V120.795C79.2988 121.235 78.1211 121.454 76.8203 121.454C74.9512 121.454 73.5215 120.889 72.5312 119.758C71.541 118.621 71.0459 116.992 71.0459 114.871C71.0459 113.535 71.2891 112.366 71.7754 111.365C72.2617 110.357 72.959 109.586 73.8672 109.053C74.7812 108.514 75.8506 108.244 77.0752 108.244C78.3232 108.244 79.5771 108.546 80.8369 109.15L79.958 111.365C79.4775 111.136 78.9941 110.937 78.5078 110.767C78.0215 110.597 77.5439 110.512 77.0752 110.512ZM95.2988 114.836C95.2988 116.963 94.7714 118.598 93.7168 119.74C92.6621 120.883 91.1504 121.454 89.1816 121.454C87.2129 121.454 85.7011 120.883 84.6464 119.74C83.5918 118.598 83.0644 116.957 83.0644 114.819C83.0644 112.68 83.5918 111.048 84.6464 109.923C85.707 108.792 87.2246 108.227 89.1992 108.227C91.1738 108.227 92.6826 108.795 93.7255 109.932C94.7744 111.069 95.2988 112.703 95.2988 114.836ZM85.9209 114.836C85.9209 116.272 86.1933 117.353 86.7382 118.079C87.2832 118.806 88.0976 119.169 89.1816 119.169C91.3554 119.169 92.4423 117.725 92.4423 114.836C92.4423 111.942 91.3613 110.494 89.1992 110.494C88.1152 110.494 87.2978 110.861 86.747 111.593C86.1962 112.32 85.9209 113.401 85.9209 114.836ZM103.942 121.279L100.849 111.198H100.769C100.881 113.248 100.936 114.616 100.936 115.302V121.279H98.5019V108.429H102.211L105.252 118.255H105.305L108.53 108.429H112.239V121.279H109.699V115.197C109.699 114.909 109.702 114.578 109.708 114.203C109.72 113.828 109.761 112.832 109.831 111.215H109.752L106.438 121.279H103.942ZM118.747 114.476H119.643C120.481 114.476 121.108 114.312 121.524 113.984C121.94 113.65 122.148 113.166 122.148 112.533C122.148 111.895 121.973 111.423 121.621 111.118C121.275 110.814 120.73 110.661 119.986 110.661H118.747V114.476ZM124.899 112.437C124.899 113.82 124.466 114.877 123.599 115.61C122.737 116.342 121.51 116.708 119.916 116.708H118.747V121.279H116.022V108.429H120.127C121.685 108.429 122.869 108.766 123.678 109.44C124.492 110.108 124.899 111.107 124.899 112.437ZM135.731 121.279L134.8 118.22H130.115L129.183 121.279H126.248L130.783 108.376H134.114L138.667 121.279H135.731ZM134.149 115.935C133.288 113.163 132.802 111.596 132.69 111.233C132.585 110.869 132.509 110.582 132.462 110.371C132.268 111.121 131.715 112.976 130.801 115.935H134.149ZM152.232 121.279H148.769L143.179 111.558H143.1C143.212 113.275 143.267 114.499 143.267 115.232V121.279H140.833V108.429H144.269L149.85 118.053H149.912C149.824 116.383 149.78 115.202 149.78 114.511V108.429H152.232V121.279ZM156.015 121.279V108.429H158.74V121.279H156.015ZM169.915 121.279H162.514V108.429H169.915V110.661H165.239V113.483H169.59V115.715H165.239V119.029H169.915V121.279ZM180.729 117.71C180.729 118.87 180.31 119.784 179.472 120.452C178.64 121.12 177.48 121.454 175.992 121.454C174.621 121.454 173.408 121.197 172.353 120.681V118.15C173.22 118.536 173.953 118.809 174.55 118.967C175.154 119.125 175.705 119.204 176.203 119.204C176.8 119.204 177.257 119.09 177.574 118.862C177.896 118.633 178.057 118.293 178.057 117.842C178.057 117.59 177.987 117.367 177.846 117.174C177.706 116.975 177.498 116.784 177.222 116.603C176.953 116.421 176.399 116.131 175.561 115.733C174.776 115.364 174.187 115.009 173.795 114.669C173.402 114.329 173.089 113.934 172.854 113.483C172.62 113.031 172.503 112.504 172.503 111.901C172.503 110.764 172.886 109.87 173.654 109.22C174.427 108.57 175.494 108.244 176.853 108.244C177.521 108.244 178.157 108.323 178.76 108.482C179.37 108.64 180.006 108.863 180.668 109.15L179.789 111.268C179.103 110.987 178.535 110.79 178.084 110.679C177.638 110.568 177.199 110.512 176.765 110.512C176.25 110.512 175.854 110.632 175.579 110.872C175.303 111.113 175.166 111.426 175.166 111.813C175.166 112.053 175.221 112.264 175.333 112.446C175.444 112.621 175.62 112.794 175.86 112.964C176.106 113.128 176.683 113.427 177.591 113.861C178.793 114.435 179.616 115.012 180.061 115.592C180.507 116.166 180.729 116.872 180.729 117.71ZM199.475 114.731C199.475 116.846 198.872 118.466 197.665 119.591C196.463 120.716 194.726 121.279 192.453 121.279H188.814V108.429H192.848C194.946 108.429 196.575 108.983 197.735 110.09C198.895 111.198 199.475 112.744 199.475 114.731ZM196.645 114.801C196.645 112.041 195.426 110.661 192.989 110.661H191.539V119.029H192.708C195.333 119.029 196.645 117.619 196.645 114.801ZM210.544 121.279L209.613 118.22H204.928L203.997 121.279H201.061L205.596 108.376H208.927L213.48 121.279H210.544ZM208.962 115.935C208.101 113.163 207.615 111.596 207.503 111.233C207.398 110.869 207.322 110.582 207.275 110.371C207.082 111.121 206.528 112.976 205.614 115.935H208.962ZM220.603 121.279H217.878V110.697H214.389V108.429H224.092V110.697H220.603V121.279ZM234.476 121.279L233.544 118.22H228.86L227.928 121.279H224.993L229.528 108.376H232.859L237.412 121.279H234.476ZM232.894 115.935C232.033 113.163 231.546 111.596 231.435 111.233C231.33 110.869 231.253 110.582 231.207 110.371C231.013 111.121 230.459 112.976 229.545 115.935H232.894ZM239.578 108.429H243.577C245.399 108.429 246.72 108.69 247.54 109.211C248.367 109.727 248.78 110.55 248.78 111.681C248.78 112.448 248.598 113.078 248.235 113.571C247.877 114.063 247.4 114.359 246.802 114.458V114.546C247.617 114.728 248.203 115.068 248.56 115.566C248.923 116.064 249.105 116.726 249.105 117.552C249.105 118.724 248.68 119.638 247.831 120.294C246.987 120.95 245.838 121.279 244.385 121.279H239.578V108.429ZM242.302 113.518H243.884C244.622 113.518 245.156 113.404 245.484 113.175C245.818 112.947 245.985 112.569 245.985 112.041C245.985 111.549 245.803 111.198 245.44 110.987C245.082 110.77 244.514 110.661 243.735 110.661H242.302V113.518ZM242.302 115.68V119.029H244.078C244.828 119.029 245.381 118.885 245.739 118.598C246.096 118.311 246.275 117.871 246.275 117.28C246.275 116.213 245.513 115.68 243.99 115.68H242.302ZM260.078 121.279L259.146 118.22H254.461L253.53 121.279H250.594L255.129 108.376H258.46L263.013 121.279H260.078ZM258.496 115.935C257.634 113.163 257.148 111.596 257.037 111.233C256.931 110.869 256.855 110.582 256.808 110.371C256.615 111.121 256.061 112.976 255.147 115.935H258.496ZM272.764 117.71C272.764 118.87 272.345 119.784 271.507 120.452C270.675 121.12 269.515 121.454 268.027 121.454C266.656 121.454 265.443 121.197 264.388 120.681V118.15C265.255 118.536 265.988 118.809 266.585 118.967C267.189 119.125 267.74 119.204 268.238 119.204C268.835 119.204 269.292 119.09 269.609 118.862C269.931 118.633 270.092 118.293 270.092 117.842C270.092 117.59 270.022 117.367 269.881 117.174C269.741 116.975 269.533 116.784 269.257 116.603C268.988 116.421 268.434 116.131 267.596 115.733C266.811 115.364 266.222 115.009 265.829 114.669C265.437 114.329 265.123 113.934 264.889 113.483C264.655 113.031 264.537 112.504 264.537 111.901C264.537 110.764 264.921 109.87 265.689 109.22C266.462 108.57 267.529 108.244 268.888 108.244C269.556 108.244 270.192 108.323 270.795 108.482C271.405 108.64 272.04 108.863 272.702 109.15L271.824 111.268C271.138 110.987 270.57 110.79 270.119 110.679C269.673 110.568 269.234 110.512 268.8 110.512C268.285 110.512 267.889 110.632 267.614 110.872C267.338 111.113 267.201 111.426 267.201 111.813C267.201 112.053 267.256 112.264 267.368 112.446C267.479 112.621 267.655 112.794 267.895 112.964C268.141 113.128 268.718 113.427 269.626 113.861C270.827 114.435 271.651 115.012 272.096 115.592C272.541 116.166 272.764 116.872 272.764 117.71ZM283.034 121.279H275.633V108.429H283.034V110.661H278.358V113.483H282.708V115.715H278.358V119.029H283.034V121.279Z" fill="#FEFEFE"/>
<path d="M0 175.279L14.5833 176.328C29.1667 177.456 58.3333 179.435 87.5 187.945C116.667 196.456 145.833 211.101 175 218.563C204.167 225.945 233.333 225.945 262.5 219.612C291.667 213.279 320.833 200.612 335.417 194.279L350 187.945V232.279H335.417C320.833 232.279 291.667 232.279 262.5 232.279C233.333 232.279 204.167 232.279 175 232.279C145.833 232.279 116.667 232.279 87.5 232.279C58.3333 232.279 29.1667 232.279 14.5833 232.279H0V175.279Z" fill="#17A2B8"/>
<g clip-path="url(#clip0)">
<path d="M190 64.4214V67.0107C190 69.2925 184.177 71.1536 177 71.1536C169.823 71.1536 164 69.2925 164 67.0107V64.4214C164 62.1396 169.823 60.2786 177 60.2786C184.177 60.2786 190 62.1396 190 64.4214ZM190 70.2473V76.0732C190 78.355 184.177 80.2161 177 80.2161C169.823 80.2161 164 78.355 164 76.0732V70.2473C166.793 72.1246 171.905 72.9985 177 72.9985C182.095 72.9985 187.207 72.1246 190 70.2473ZM190 79.3098V85.1357C190 87.4175 184.177 89.2786 177 89.2786C169.823 89.2786 164 87.4175 164 85.1357V79.3098C166.793 81.1871 171.905 82.061 177 82.061C182.095 82.061 187.207 81.1871 190 79.3098Z" fill="white"/>
</g>
<g clip-path="url(#clip1)">
<path d="M-64.1033 42.4675C-74.0737 32.3574 -70.4026 8.96319 -65.6363 -14.8571C-60.8698 -38.6452 -54.976 -62.8596 -39.6958 -71.9889C-24.3832 -81.1184 0.348189 -75.1308 22.5895 -64.4152C44.831 -53.6674 64.5503 -38.1591 68.5669 -19.459C72.5837 -0.726582 60.8655 21.1979 45.6637 32.6833C30.462 44.1688 11.8087 45.1829 -9.35601 47.3094C-30.4886 49.4034 -54.1329 52.5776 -64.1033 42.4675Z" fill="#17A2B8"/>
</g>
<defs>
<clipPath id="clip0">
<rect width="26" height="29" fill="white" transform="translate(164 60.2786)"/>
</clipPath>
<clipPath id="clip1">
<rect width="69" height="69" fill="white" transform="translate(70.4062 68.9988) rotate(179.662)"/>
</clipPath>
</defs>
</svg>
