<svg width="350" height="233" viewBox="0 0 350 233" fill="none" xmlns="http://www.w3.org/2000/svg">
<rect y="0.721375" width="350" height="232.279" fill="#3D32BF"/>
<path d="M76.0752 113.233C75.0498 113.233 74.2559 113.62 73.6934 114.394C73.1309 115.161 72.8496 116.233 72.8496 117.61C72.8496 120.476 73.9248 121.908 76.0752 121.908C76.9775 121.908 78.0703 121.683 79.3535 121.231V123.517C78.2988 123.956 77.1211 124.176 75.8203 124.176C73.9512 124.176 72.5215 123.61 71.5312 122.479C70.541 121.343 70.0459 119.714 70.0459 117.593C70.0459 116.257 70.2891 115.088 70.7754 114.086C71.2617 113.078 71.959 112.308 72.8672 111.774C73.7812 111.235 74.8506 110.966 76.0752 110.966C77.3232 110.966 78.5771 111.268 79.8369 111.871L78.958 114.086C78.4775 113.857 77.9941 113.658 77.5078 113.488C77.0215 113.318 76.5439 113.233 76.0752 113.233ZM94.2988 117.558C94.2988 119.685 93.7714 121.319 92.7168 122.462C91.6621 123.604 90.1504 124.176 88.1816 124.176C86.2129 124.176 84.7011 123.604 83.6464 122.462C82.5918 121.319 82.0644 119.679 82.0644 117.54C82.0644 115.401 82.5918 113.77 83.6464 112.645C84.707 111.514 86.2246 110.948 88.1992 110.948C90.1738 110.948 91.6826 111.517 92.7255 112.653C93.7744 113.79 94.2988 115.425 94.2988 117.558ZM84.9209 117.558C84.9209 118.993 85.1933 120.074 85.7382 120.801C86.2832 121.527 87.0976 121.891 88.1816 121.891C90.3554 121.891 91.4423 120.446 91.4423 117.558C91.4423 114.663 90.3613 113.216 88.1992 113.216C87.1152 113.216 86.2978 113.582 85.747 114.314C85.1962 115.041 84.9209 116.122 84.9209 117.558ZM102.942 124L99.8486 113.919H99.7695C99.8808 115.97 99.9364 117.338 99.9364 118.023V124H97.5019V111.15H101.211L104.252 120.977H104.305L107.53 111.15H111.239V124H108.699V117.918C108.699 117.631 108.702 117.3 108.708 116.925C108.72 116.55 108.761 115.554 108.831 113.937H108.752L105.438 124H102.942ZM117.747 117.197H118.643C119.481 117.197 120.108 117.033 120.524 116.705C120.94 116.371 121.148 115.888 121.148 115.255C121.148 114.616 120.973 114.145 120.621 113.84C120.275 113.535 119.73 113.383 118.986 113.383H117.747V117.197ZM123.899 115.158C123.899 116.541 123.466 117.599 122.599 118.331C121.737 119.063 120.51 119.43 118.916 119.43H117.747V124H115.022V111.15H119.127C120.685 111.15 121.869 111.487 122.678 112.161C123.492 112.829 123.899 113.828 123.899 115.158ZM134.731 124L133.8 120.941H129.115L128.183 124H125.248L129.783 111.098H133.114L137.667 124H134.731ZM133.149 118.656C132.288 115.885 131.802 114.317 131.69 113.954C131.585 113.591 131.509 113.304 131.462 113.093C131.268 113.843 130.715 115.697 129.801 118.656H133.149ZM151.232 124H147.769L142.179 114.279H142.1C142.212 115.996 142.267 117.221 142.267 117.953V124H139.833V111.15H143.269L148.85 120.774H148.912C148.824 119.104 148.78 117.924 148.78 117.232V111.15H151.232V124ZM155.015 124V111.15H157.74V124H155.015ZM168.915 124H161.514V111.15H168.915V113.383H164.239V116.204H168.59V118.437H164.239V121.75H168.915V124ZM179.729 120.432C179.729 121.592 179.31 122.506 178.472 123.174C177.64 123.842 176.48 124.176 174.992 124.176C173.621 124.176 172.408 123.918 171.353 123.402V120.871C172.22 121.258 172.953 121.53 173.55 121.688C174.154 121.847 174.705 121.926 175.203 121.926C175.8 121.926 176.257 121.812 176.574 121.583C176.896 121.354 177.057 121.015 177.057 120.563C177.057 120.312 176.987 120.089 176.846 119.896C176.706 119.696 176.498 119.506 176.222 119.324C175.953 119.143 175.399 118.853 174.561 118.454C173.776 118.085 173.187 117.73 172.795 117.391C172.402 117.051 172.089 116.655 171.854 116.204C171.62 115.753 171.503 115.226 171.503 114.622C171.503 113.485 171.886 112.592 172.654 111.941C173.427 111.291 174.494 110.966 175.853 110.966C176.521 110.966 177.157 111.045 177.76 111.203C178.37 111.361 179.006 111.584 179.668 111.871L178.789 113.989C178.103 113.708 177.535 113.512 177.084 113.4C176.638 113.289 176.199 113.233 175.765 113.233C175.25 113.233 174.854 113.354 174.579 113.594C174.303 113.834 174.166 114.147 174.166 114.534C174.166 114.774 174.221 114.985 174.333 115.167C174.444 115.343 174.62 115.516 174.86 115.686C175.106 115.85 175.683 116.148 176.591 116.582C177.793 117.156 178.616 117.733 179.061 118.313C179.507 118.888 179.729 119.594 179.729 120.432ZM198.475 117.452C198.475 119.567 197.872 121.188 196.665 122.312C195.463 123.438 193.726 124 191.453 124H187.814V111.15H191.848C193.946 111.15 195.575 111.704 196.735 112.812C197.895 113.919 198.475 115.466 198.475 117.452ZM195.645 117.522C195.645 114.763 194.426 113.383 191.989 113.383H190.539V121.75H191.708C194.333 121.75 195.645 120.341 195.645 117.522ZM209.544 124L208.613 120.941H203.928L202.997 124H200.061L204.596 111.098H207.927L212.48 124H209.544ZM207.962 118.656C207.101 115.885 206.615 114.317 206.503 113.954C206.398 113.591 206.322 113.304 206.275 113.093C206.082 113.843 205.528 115.697 204.614 118.656H207.962ZM219.603 124H216.878V113.418H213.389V111.15H223.092V113.418H219.603V124ZM233.476 124L232.544 120.941H227.86L226.928 124H223.993L228.528 111.098H231.859L236.412 124H233.476ZM231.894 118.656C231.033 115.885 230.546 114.317 230.435 113.954C230.33 113.591 230.253 113.304 230.207 113.093C230.013 113.843 229.459 115.697 228.545 118.656H231.894ZM238.578 111.15H242.577C244.399 111.15 245.72 111.411 246.54 111.933C247.367 112.448 247.78 113.271 247.78 114.402C247.78 115.17 247.598 115.8 247.235 116.292C246.877 116.784 246.4 117.08 245.802 117.18V117.268C246.617 117.449 247.203 117.789 247.56 118.287C247.923 118.785 248.105 119.447 248.105 120.273C248.105 121.445 247.68 122.359 246.831 123.016C245.987 123.672 244.838 124 243.385 124H238.578V111.15ZM241.302 116.239H242.884C243.622 116.239 244.156 116.125 244.484 115.896C244.818 115.668 244.985 115.29 244.985 114.763C244.985 114.271 244.803 113.919 244.44 113.708C244.082 113.491 243.514 113.383 242.735 113.383H241.302V116.239ZM241.302 118.401V121.75H243.078C243.828 121.75 244.381 121.606 244.739 121.319C245.096 121.032 245.275 120.593 245.275 120.001C245.275 118.935 244.513 118.401 242.99 118.401H241.302ZM259.078 124L258.146 120.941H253.461L252.53 124H249.594L254.129 111.098H257.46L262.013 124H259.078ZM257.496 118.656C256.634 115.885 256.148 114.317 256.037 113.954C255.931 113.591 255.855 113.304 255.808 113.093C255.615 113.843 255.061 115.697 254.147 118.656H257.496ZM271.764 120.432C271.764 121.592 271.345 122.506 270.507 123.174C269.675 123.842 268.515 124.176 267.027 124.176C265.656 124.176 264.443 123.918 263.388 123.402V120.871C264.255 121.258 264.988 121.53 265.585 121.688C266.189 121.847 266.74 121.926 267.238 121.926C267.835 121.926 268.292 121.812 268.609 121.583C268.931 121.354 269.092 121.015 269.092 120.563C269.092 120.312 269.022 120.089 268.881 119.896C268.741 119.696 268.533 119.506 268.257 119.324C267.988 119.143 267.434 118.853 266.596 118.454C265.811 118.085 265.222 117.73 264.829 117.391C264.437 117.051 264.123 116.655 263.889 116.204C263.655 115.753 263.537 115.226 263.537 114.622C263.537 113.485 263.921 112.592 264.689 111.941C265.462 111.291 266.529 110.966 267.888 110.966C268.556 110.966 269.192 111.045 269.795 111.203C270.405 111.361 271.04 111.584 271.702 111.871L270.824 113.989C270.138 113.708 269.57 113.512 269.119 113.4C268.673 113.289 268.234 113.233 267.8 113.233C267.285 113.233 266.889 113.354 266.614 113.594C266.338 113.834 266.201 114.147 266.201 114.534C266.201 114.774 266.256 114.985 266.368 115.167C266.479 115.343 266.655 115.516 266.895 115.686C267.141 115.85 267.718 116.148 268.626 116.582C269.827 117.156 270.651 117.733 271.096 118.313C271.541 118.888 271.764 119.594 271.764 120.432ZM282.034 124H274.633V111.15H282.034V113.383H277.358V116.204H281.708V118.437H277.358V121.75H282.034V124Z" fill="#FEFEFE"/>
<path d="M0 176L14.5833 177.049C29.1667 178.177 58.3333 180.156 87.5 188.667C116.667 197.177 145.833 211.823 175 219.284C204.167 226.667 233.333 226.667 262.5 220.333C291.667 214 320.833 201.333 335.417 195L350 188.667V233H335.417C320.833 233 291.667 233 262.5 233C233.333 233 204.167 233 175 233C145.833 233 116.667 233 87.5 233C58.3333 233 29.1667 233 14.5833 233H0V176Z" fill="#6C59BC"/>
<path d="M174.429 74.0625H171.857V71.25C171.857 70.9049 171.601 70.625 171.286 70.625H170.714C170.399 70.625 170.143 70.9049 170.143 71.25V74.0625H167.571C167.256 74.0625 167 74.3424 167 74.6875V75.3125C167 75.6576 167.256 75.9375 167.571 75.9375H170.143V78.75C170.143 79.0951 170.399 79.375 170.714 79.375H171.286C171.601 79.375 171.857 79.0951 171.857 78.75V75.9375H174.429C174.744 75.9375 175 75.6576 175 75.3125V74.6875C175 74.3424 174.744 74.0625 174.429 74.0625Z" fill="white"/>
<path d="M213.87 70.6906C213.575 70.5922 213.28 70.4992 212.984 70.4117C213.034 70.2094 213.077 70.007 213.121 69.8047C213.794 66.5453 213.351 63.9258 211.858 63.0617C210.42 62.2359 208.073 63.0945 205.7 65.1617C205.465 65.364 205.235 65.5773 205.016 65.7906C204.869 65.6484 204.716 65.5062 204.562 65.3695C202.074 63.1601 199.58 62.2305 198.088 63.1C196.655 63.9312 196.228 66.3976 196.83 69.482C196.89 69.7883 196.955 70.089 197.032 70.3953C196.682 70.4937 196.337 70.6031 196.015 70.718C193.095 71.7297 191 73.3265 191 74.9781C191 76.6844 193.231 78.3961 196.266 79.4351C196.513 79.5172 196.759 79.5992 197.01 79.6703C196.928 79.9984 196.857 80.3211 196.791 80.6547C196.217 83.6898 196.666 86.0961 198.098 86.9219C199.575 87.775 202.058 86.9 204.475 84.7836C204.666 84.614 204.858 84.4391 205.049 84.2531C205.29 84.4883 205.541 84.7125 205.793 84.9312C208.134 86.9437 210.447 87.7586 211.874 86.9328C213.351 86.0797 213.832 83.493 213.209 80.343C213.159 80.1023 213.105 79.8562 213.045 79.6047C213.22 79.5555 213.389 79.5008 213.559 79.4461C216.714 78.4015 219 76.7117 219 74.9781C219 73.3211 216.845 71.7133 213.87 70.6906ZM206.471 66.0476C208.505 64.2758 210.403 63.5812 211.267 64.0789C212.191 64.6094 212.547 66.7531 211.967 69.5695C211.929 69.7555 211.891 69.9359 211.841 70.1164C210.627 69.843 209.397 69.6461 208.161 69.5367C207.45 68.5195 206.673 67.5461 205.831 66.6328C206.045 66.4305 206.252 66.2391 206.471 66.0476ZM200.144 77.8164C200.423 78.2922 200.707 78.768 201.008 79.2328C200.155 79.1398 199.307 79.0031 198.47 78.8226C198.711 78.0351 199.012 77.2203 199.362 76.389C199.613 76.8703 199.87 77.3461 200.144 77.8164ZM198.487 71.2375C199.274 71.0625 200.111 70.9203 200.98 70.8109C200.691 71.2648 200.406 71.7297 200.138 72.2C199.87 72.6648 199.608 73.1406 199.362 73.6219C199.017 72.807 198.727 72.0086 198.487 71.2375ZM199.985 75.0055C200.346 74.2508 200.74 73.5125 201.155 72.7851C201.571 72.0578 202.02 71.3523 202.49 70.6578C203.31 70.5976 204.147 70.5648 205 70.5648C205.853 70.5648 206.695 70.5976 207.51 70.6578C207.975 71.3469 208.418 72.0523 208.839 72.7742C209.26 73.4961 209.654 74.2344 210.026 74.9836C209.659 75.7383 209.266 76.482 208.845 77.2148C208.429 77.9422 207.986 78.6476 207.521 79.3476C206.706 79.4078 205.859 79.4351 205 79.4351C204.141 79.4351 203.31 79.4078 202.506 79.3586C202.03 78.6641 201.582 77.9531 201.161 77.2258C200.74 76.4984 200.352 75.7601 199.985 75.0055ZM209.862 77.8055C210.141 77.3242 210.403 76.8375 210.66 76.3453C211.01 77.1383 211.316 77.9422 211.584 78.768C210.737 78.9594 209.878 79.107 209.014 79.2055C209.309 78.7461 209.588 78.2758 209.862 77.8055ZM210.649 73.6219C210.392 73.1406 210.13 72.6594 209.856 72.189C209.588 71.7242 209.309 71.2648 209.02 70.8109C209.9 70.9203 210.742 71.068 211.53 71.2484C211.278 72.0578 210.983 72.8453 210.649 73.6219ZM205.011 67.4695C205.585 68.093 206.127 68.7492 206.63 69.4273C205.547 69.3781 204.459 69.3781 203.376 69.4273C203.912 68.7219 204.464 68.0656 205.011 67.4695ZM198.667 64.1172C199.586 63.5812 201.626 64.3469 203.775 66.25C203.912 66.3703 204.048 66.5015 204.191 66.6328C203.343 67.5461 202.561 68.5195 201.845 69.5367C200.609 69.6461 199.384 69.8375 198.17 70.1055C198.098 69.8265 198.038 69.5422 197.978 69.2578C197.464 66.6109 197.803 64.6148 198.667 64.1172ZM197.327 78.5328C197.098 78.4672 196.873 78.3961 196.649 78.3195C195.484 77.9531 194.161 77.3734 193.204 76.6133C192.652 76.2305 192.28 75.6398 192.176 74.9781C192.176 73.9773 193.904 72.6976 196.398 71.8281C196.709 71.7187 197.027 71.6203 197.344 71.5273C197.716 72.714 198.164 73.8789 198.684 75.0055C198.159 76.1484 197.705 77.3297 197.327 78.5328ZM203.704 83.8922C202.802 84.718 201.757 85.3742 200.62 85.8226C200.012 86.1125 199.312 86.1398 198.689 85.8937C197.82 85.3906 197.459 83.4601 197.951 80.8625C198.011 80.5562 198.077 80.25 198.153 79.9492C199.378 80.2117 200.614 80.3922 201.866 80.4851C202.588 81.5078 203.381 82.4867 204.229 83.4055C204.054 83.575 203.879 83.739 203.704 83.8922ZM205.044 82.5633C204.486 81.9617 203.928 81.2945 203.387 80.5781C203.912 80.6 204.453 80.6109 205 80.6109C205.563 80.6109 206.116 80.6 206.662 80.5726C206.159 81.2672 205.618 81.9289 205.044 82.5633ZM212.191 84.2039C212.142 84.8711 211.814 85.4945 211.289 85.9156C210.42 86.4187 208.566 85.7625 206.564 84.0453C206.334 83.8484 206.105 83.6351 205.87 83.4164C206.706 82.4922 207.477 81.5133 208.177 80.4851C209.43 80.3812 210.677 80.1898 211.907 79.9109C211.962 80.1351 212.011 80.3594 212.055 80.5781C212.323 81.7594 212.366 82.9898 212.191 84.2039ZM213.187 78.325C213.034 78.3742 212.88 78.4234 212.722 78.4672C212.339 77.275 211.869 76.1101 211.327 74.9781C211.852 73.8625 212.295 72.714 212.667 71.5383C212.952 71.6203 213.225 71.7078 213.488 71.7953C216.036 72.6703 217.824 73.9719 217.824 74.9672C217.824 76.039 215.916 77.4226 213.187 78.325ZM205 77.5047C206.384 77.5047 207.505 76.3836 207.505 75C207.505 73.6164 206.384 72.4953 205 72.4953C203.616 72.4953 202.495 73.6164 202.495 75C202.495 76.3836 203.616 77.5047 205 77.5047Z" fill="white"/>
<path d="M149 64.8572V67.2678C149 69.3923 143.625 71.125 137 71.125C130.375 71.125 125 69.3923 125 67.2678V64.8572C125 62.7327 130.375 61 137 61C143.625 61 149 62.7327 149 64.8572ZM149 70.2812V75.7053C149 77.8298 143.625 79.5625 137 79.5625C130.375 79.5625 125 77.8298 125 75.7053V70.2812C127.578 72.029 132.297 72.8427 137 72.8427C141.703 72.8427 146.422 72.029 149 70.2812ZM149 78.7188V84.1428C149 86.2673 143.625 88 137 88C130.375 88 125 86.2673 125 84.1428V78.7188C127.578 80.4665 132.297 81.2802 137 81.2802C141.703 81.2802 146.422 80.4665 149 78.7188Z" fill="white"/>
</svg>
