<svg width="350" height="233" viewBox="0 0 350 233" fill="none" xmlns="http://www.w3.org/2000/svg">
<rect y="0.721375" width="350" height="232.279" fill="#3D32BF"/>
<path d="M114.342 115.197H115.238C116.076 115.197 116.703 115.033 117.119 114.705C117.535 114.371 117.743 113.888 117.743 113.255C117.743 112.616 117.567 112.145 117.216 111.84C116.87 111.535 116.325 111.383 115.581 111.383H114.342V115.197ZM120.494 113.158C120.494 114.541 120.061 115.599 119.193 116.331C118.332 117.063 117.104 117.43 115.511 117.43H114.342V122H111.617V109.15H115.722C117.28 109.15 118.464 109.487 119.272 110.161C120.087 110.829 120.494 111.828 120.494 113.158ZM135.123 115.558C135.123 117.685 134.596 119.319 133.541 120.462C132.486 121.604 130.975 122.176 129.006 122.176C127.037 122.176 125.525 121.604 124.471 120.462C123.416 119.319 122.889 117.679 122.889 115.54C122.889 113.401 123.416 111.77 124.471 110.645C125.531 109.514 127.049 108.948 129.023 108.948C130.998 108.948 132.507 109.517 133.55 110.653C134.599 111.79 135.123 113.425 135.123 115.558ZM125.745 115.558C125.745 116.993 126.018 118.074 126.562 118.801C127.107 119.527 127.922 119.891 129.006 119.891C131.18 119.891 132.267 118.446 132.267 115.558C132.267 112.663 131.186 111.216 129.023 111.216C127.939 111.216 127.122 111.582 126.571 112.314C126.02 113.041 125.745 114.122 125.745 115.558ZM141.051 114.854H141.93C142.791 114.854 143.427 114.711 143.837 114.424C144.247 114.137 144.452 113.686 144.452 113.07C144.452 112.461 144.241 112.027 143.819 111.77C143.403 111.512 142.756 111.383 141.877 111.383H141.051V114.854ZM141.051 117.069V122H138.326V109.15H142.07C143.816 109.15 145.108 109.47 145.946 110.108C146.784 110.741 147.203 111.705 147.203 113C147.203 113.756 146.995 114.43 146.579 115.021C146.163 115.607 145.574 116.067 144.812 116.401C146.746 119.29 148.006 121.156 148.592 122H145.568L142.501 117.069H141.051ZM155.706 122H152.981V111.418H149.492V109.15H159.195V111.418H155.706V122ZM173.376 115.558C173.376 117.685 172.848 119.319 171.794 120.462C170.739 121.604 169.227 122.176 167.259 122.176C165.29 122.176 163.778 121.604 162.723 120.462C161.669 119.319 161.141 117.679 161.141 115.54C161.141 113.401 161.669 111.77 162.723 110.645C163.784 109.514 165.302 108.948 167.276 108.948C169.251 108.948 170.76 109.517 171.803 110.653C172.851 111.79 173.376 113.425 173.376 115.558ZM163.998 115.558C163.998 116.993 164.27 118.074 164.815 118.801C165.36 119.527 166.175 119.891 167.259 119.891C169.432 119.891 170.519 118.446 170.519 115.558C170.519 112.663 169.438 111.216 167.276 111.216C166.192 111.216 165.375 111.582 164.824 112.314C164.273 113.041 163.998 114.122 163.998 115.558ZM179.26 122H176.579V109.15H183.944V111.383H179.26V114.696H183.619V116.92H179.26V122ZM198.661 115.558C198.661 117.685 198.134 119.319 197.079 120.462C196.024 121.604 194.512 122.176 192.544 122.176C190.575 122.176 189.063 121.604 188.009 120.462C186.954 119.319 186.427 117.679 186.427 115.54C186.427 113.401 186.954 111.77 188.009 110.645C189.069 109.514 190.587 108.948 192.561 108.948C194.536 108.948 196.045 109.517 197.088 110.653C198.136 111.79 198.661 113.425 198.661 115.558ZM189.283 115.558C189.283 116.993 189.555 118.074 190.1 118.801C190.645 119.527 191.46 119.891 192.544 119.891C194.718 119.891 195.804 118.446 195.804 115.558C195.804 112.663 194.723 111.216 192.561 111.216C191.477 111.216 190.66 111.582 190.109 112.314C189.558 113.041 189.283 114.122 189.283 115.558ZM201.864 122V109.15H204.589V119.75H209.801V122H201.864ZM212.582 122V109.15H215.306V122H212.582ZM230.744 115.558C230.744 117.685 230.216 119.319 229.162 120.462C228.107 121.604 226.595 122.176 224.627 122.176C222.658 122.176 221.146 121.604 220.091 120.462C219.037 119.319 218.509 117.679 218.509 115.54C218.509 113.401 219.037 111.77 220.091 110.645C221.152 109.514 222.67 108.948 224.644 108.948C226.619 108.948 228.128 109.517 229.171 110.653C230.219 111.79 230.744 113.425 230.744 115.558ZM221.366 115.558C221.366 116.993 221.638 118.074 222.183 118.801C222.728 119.527 223.543 119.891 224.627 119.891C226.8 119.891 227.887 118.446 227.887 115.558C227.887 112.663 226.806 111.216 224.644 111.216C223.56 111.216 222.743 111.582 222.192 112.314C221.641 113.041 221.366 114.122 221.366 115.558Z" fill="#FEFEFE"/>
<path d="M0 176L14.5833 177.049C29.1667 178.177 58.3333 180.156 87.5 188.667C116.667 197.177 145.833 211.823 175 219.284C204.167 226.667 233.333 226.667 262.5 220.333C291.667 214 320.833 201.333 335.417 195L350 188.667V233H335.417C320.833 233 291.667 233 262.5 233C233.333 233 204.167 233 175 233C145.833 233 116.667 233 87.5 233C58.3333 233 29.1667 233 14.5833 233H0V176Z" fill="#6C59BC"/>
<path d="M183 63H167C164.793 63.006 163.006 64.793 163 67V83C163 85.2 164.8 87 167 87H183C185.2 87 187 85.2 187 83V67C187 64.8 185.2 63 183 63ZM180.813 79.855C180.613 80.337 180.296 80.762 179.89 81.089C179.47 81.429 178.938 81.709 178.283 81.909C177.629 82.112 176.851 82.214 175.95 82.214H169.518V68.214H176.32C177.578 68.214 178.586 68.497 179.34 69.074C180.1 69.654 180.478 70.518 180.478 71.684C180.478 72.389 180.306 72.994 179.96 73.494C179.616 73.991 179.12 74.38 178.48 74.65V74.696C179.334 74.876 179.995 75.281 180.43 75.911C180.865 76.541 181.088 77.337 181.088 78.298C181.088 78.836 180.984 79.348 180.788 79.826L180.813 79.853V79.855ZM178.037 76.405C177.627 76.03 177.051 75.847 176.307 75.847H171.985V80.215H176.319C177.059 80.215 177.639 80.023 178.049 79.635C178.459 79.25 178.669 78.701 178.669 77.995C178.662 77.305 178.459 76.771 178.049 76.405H178.032H178.037ZM177.437 73.582C177.833 73.246 178.027 72.765 178.027 72.138C178.027 71.434 177.852 70.934 177.497 70.648C177.145 70.363 176.637 70.215 175.969 70.215H171.969V74.078H175.969C176.552 74.078 177.049 73.908 177.433 73.582H177.437Z" fill="white"/>
</svg>
