<svg width="350" height="233" viewBox="0 0 350 233" fill="none" xmlns="http://www.w3.org/2000/svg">
<rect y="0.721375" width="350" height="232.279" fill="#3D32BF"/>
<path d="M58.2803 115.558C58.2803 117.685 57.7529 119.319 56.6982 120.462C55.6436 121.604 54.1318 122.176 52.1631 122.176C50.1943 122.176 48.6826 121.604 47.6279 120.462C46.5732 119.319 46.0459 117.679 46.0459 115.54C46.0459 113.401 46.5732 111.77 47.6279 110.645C48.6885 109.514 50.2061 108.948 52.1807 108.948C54.1553 108.948 55.6641 109.517 56.707 110.653C57.7559 111.79 58.2803 113.425 58.2803 115.558ZM48.9023 115.558C48.9023 116.993 49.1748 118.074 49.7197 118.801C50.2646 119.527 51.0791 119.891 52.1631 119.891C54.3369 119.891 55.4238 118.446 55.4238 115.558C55.4238 112.663 54.3428 111.216 52.1807 111.216C51.0967 111.216 50.2793 111.582 49.7285 112.314C49.1777 113.041 48.9023 114.122 48.9023 115.558ZM64.208 115.197H65.1045C65.9423 115.197 66.5693 115.033 66.9853 114.705C67.4013 114.371 67.6093 113.888 67.6093 113.255C67.6093 112.616 67.4336 112.145 67.082 111.84C66.7363 111.535 66.1914 111.383 65.4472 111.383H64.208V115.197ZM70.3603 113.158C70.3603 114.541 69.9267 115.599 69.0595 116.331C68.1982 117.063 66.9707 117.43 65.3769 117.43H64.208V122H61.4834V109.15H65.5879C67.1464 109.15 68.33 109.487 69.1386 110.161C69.9531 110.829 70.3603 111.828 70.3603 113.158ZM80.7265 122H73.3261V109.15H80.7265V111.383H76.0507V114.204H80.4013V116.437H76.0507V119.75H80.7265V122ZM95.3554 122H91.8925L86.3026 112.279H86.2235C86.3348 113.996 86.3905 115.221 86.3905 115.953V122H83.9559V109.15H87.3925L92.9735 118.774H93.035C92.9471 117.104 92.9032 115.924 92.9032 115.232V109.15H95.3554V122ZM115.015 115.452C115.015 117.567 114.412 119.188 113.205 120.312C112.004 121.438 110.266 122 107.993 122H104.354V109.15H108.388C110.486 109.15 112.115 109.704 113.275 110.812C114.435 111.919 115.015 113.466 115.015 115.452ZM112.185 115.522C112.185 112.763 110.967 111.383 108.529 111.383H107.079V119.75H108.248C110.873 119.75 112.185 118.341 112.185 115.522ZM118.219 109.15H122.218C124.04 109.15 125.361 109.411 126.181 109.933C127.008 110.448 127.421 111.271 127.421 112.402C127.421 113.17 127.239 113.8 126.876 114.292C126.518 114.784 126.041 115.08 125.443 115.18V115.268C126.258 115.449 126.844 115.789 127.201 116.287C127.564 116.785 127.746 117.447 127.746 118.273C127.746 119.445 127.321 120.359 126.471 121.016C125.628 121.672 124.479 122 123.026 122H118.219V109.15ZM120.943 114.239H122.525C123.263 114.239 123.797 114.125 124.125 113.896C124.459 113.668 124.626 113.29 124.626 112.763C124.626 112.271 124.444 111.919 124.081 111.708C123.723 111.491 123.155 111.383 122.376 111.383H120.943V114.239ZM120.943 116.401V119.75H122.719C123.469 119.75 124.022 119.606 124.38 119.319C124.737 119.032 124.916 118.593 124.916 118.001C124.916 116.935 124.154 116.401 122.631 116.401H120.943ZM143.653 118.432C143.653 119.592 143.234 120.506 142.396 121.174C141.564 121.842 140.404 122.176 138.916 122.176C137.545 122.176 136.332 121.918 135.277 121.402V118.871C136.144 119.258 136.877 119.53 137.474 119.688C138.078 119.847 138.629 119.926 139.127 119.926C139.724 119.926 140.181 119.812 140.498 119.583C140.82 119.354 140.981 119.015 140.981 118.563C140.981 118.312 140.911 118.089 140.77 117.896C140.63 117.696 140.422 117.506 140.146 117.324C139.877 117.143 139.323 116.853 138.485 116.454C137.7 116.085 137.111 115.73 136.718 115.391C136.326 115.051 136.012 114.655 135.778 114.204C135.544 113.753 135.426 113.226 135.426 112.622C135.426 111.485 135.81 110.592 136.578 109.941C137.351 109.291 138.418 108.966 139.777 108.966C140.445 108.966 141.081 109.045 141.684 109.203C142.294 109.361 142.929 109.584 143.591 109.871L142.713 111.989C142.027 111.708 141.459 111.512 141.007 111.4C140.562 111.289 140.123 111.233 139.689 111.233C139.174 111.233 138.778 111.354 138.503 111.594C138.227 111.834 138.09 112.147 138.09 112.534C138.09 112.774 138.145 112.985 138.257 113.167C138.368 113.343 138.544 113.516 138.784 113.686C139.03 113.85 139.607 114.148 140.515 114.582C141.716 115.156 142.54 115.733 142.985 116.313C143.43 116.888 143.653 117.594 143.653 118.432ZM158.185 115.558C158.185 117.685 157.658 119.319 156.603 120.462C155.548 121.604 154.037 122.176 152.068 122.176C150.099 122.176 148.588 121.604 147.533 120.462C146.478 119.319 145.951 117.679 145.951 115.54C145.951 113.401 146.478 111.77 147.533 110.645C148.593 109.514 150.111 108.948 152.086 108.948C154.06 108.948 155.569 109.517 156.612 110.653C157.661 111.79 158.185 113.425 158.185 115.558ZM148.807 115.558C148.807 116.993 149.08 118.074 149.625 118.801C150.17 119.527 150.984 119.891 152.068 119.891C154.242 119.891 155.329 118.446 155.329 115.558C155.329 112.663 154.248 111.216 152.086 111.216C151.002 111.216 150.184 111.582 149.633 112.314C149.083 113.041 148.807 114.122 148.807 115.558ZM164.113 114.854H164.992C165.853 114.854 166.489 114.711 166.899 114.424C167.309 114.137 167.514 113.686 167.514 113.07C167.514 112.461 167.303 112.027 166.881 111.77C166.465 111.512 165.818 111.383 164.939 111.383H164.113V114.854ZM164.113 117.069V122H161.388V109.15H165.132C166.879 109.15 168.171 109.47 169.008 110.108C169.846 110.741 170.265 111.705 170.265 113C170.265 113.756 170.057 114.43 169.641 115.021C169.225 115.607 168.636 116.067 167.875 116.401C169.808 119.29 171.068 121.156 171.654 122H168.63L165.563 117.069H164.113ZM178.768 122H176.044V111.418H172.554V109.15H182.257V111.418H178.768V122ZM197.857 122L196.925 118.941H192.241L191.309 122H188.374L192.909 109.098H196.24L200.792 122H197.857ZM196.275 116.656C195.414 113.885 194.927 112.317 194.816 111.954C194.71 111.591 194.634 111.304 194.587 111.093C194.394 111.843 193.84 113.697 192.926 116.656H196.275ZM202.958 122V109.15H205.683V119.75H210.895V122H202.958ZM218.554 114.784H223.652V121.446C222.826 121.716 222.046 121.903 221.314 122.009C220.587 122.12 219.843 122.176 219.081 122.176C217.142 122.176 215.66 121.607 214.634 120.471C213.615 119.328 213.105 117.69 213.105 115.558C213.105 113.483 213.697 111.866 214.88 110.706C216.07 109.546 217.716 108.966 219.82 108.966C221.138 108.966 222.41 109.229 223.634 109.757L222.729 111.937C221.791 111.468 220.816 111.233 219.802 111.233C218.624 111.233 217.681 111.629 216.972 112.42C216.263 113.211 215.909 114.274 215.909 115.61C215.909 117.005 216.193 118.071 216.761 118.81C217.335 119.542 218.167 119.908 219.257 119.908C219.826 119.908 220.403 119.85 220.989 119.732V117.052H218.554V114.784ZM238.922 115.558C238.922 117.685 238.395 119.319 237.34 120.462C236.286 121.604 234.774 122.176 232.805 122.176C230.836 122.176 229.325 121.604 228.27 120.462C227.215 119.319 226.688 117.679 226.688 115.54C226.688 113.401 227.215 111.77 228.27 110.645C229.33 109.514 230.848 108.948 232.823 108.948C234.797 108.948 236.306 109.517 237.349 110.653C238.398 111.79 238.922 113.425 238.922 115.558ZM229.544 115.558C229.544 116.993 229.817 118.074 230.362 118.801C230.907 119.527 231.721 119.891 232.805 119.891C234.979 119.891 236.066 118.446 236.066 115.558C236.066 112.663 234.985 111.216 232.823 111.216C231.739 111.216 230.921 111.582 230.37 112.314C229.82 113.041 229.544 114.122 229.544 115.558ZM244.85 114.854H245.729C246.59 114.854 247.226 114.711 247.636 114.424C248.046 114.137 248.251 113.686 248.251 113.07C248.251 112.461 248.04 112.027 247.618 111.77C247.202 111.512 246.555 111.383 245.676 111.383H244.85V114.854ZM244.85 117.069V122H242.125V109.15H245.869C247.616 109.15 248.908 109.47 249.745 110.108C250.583 110.741 251.002 111.705 251.002 113C251.002 113.756 250.794 114.43 250.378 115.021C249.962 115.607 249.373 116.067 248.612 116.401C250.545 119.29 251.805 121.156 252.391 122H249.368L246.3 117.069H244.85ZM254.548 122V109.15H257.273V122H254.548ZM266.004 122H263.28V111.418H259.79V109.15H269.493V111.418H266.004V122ZM282.54 122H279.824V116.454H274.736V122H272.011V109.15H274.736V114.187H279.824V109.15H282.54V122ZM291.773 122L288.679 111.919H288.6C288.711 113.97 288.767 115.338 288.767 116.023V122H286.332V109.15H290.041L293.082 118.977H293.135L296.361 109.15H300.069V122H297.529V115.918C297.529 115.631 297.532 115.3 297.538 114.925C297.55 114.55 297.591 113.554 297.661 111.937H297.582L294.269 122H291.773Z" fill="#FEFEFE"/>
<path d="M0 176L14.5833 177.049C29.1667 178.177 58.3333 180.156 87.5 188.667C116.667 197.177 145.833 211.823 175 219.284C204.167 226.667 233.333 226.667 262.5 220.333C291.667 214 320.833 201.333 335.417 195L350 188.667V233H335.417C320.833 233 291.667 233 262.5 233C233.333 233 204.167 233 175 233C145.833 233 116.667 233 87.5 233C58.3333 233 29.1667 233 14.5833 233H0V176Z" fill="#6C59BC"/>
<path d="M166.227 71.8305C166.121 71.6108 165.898 71.4711 165.654 71.4711C165.654 71.4711 165.654 71.4711 165.653 71.4711L164.889 71.4727C164.645 71.4732 164.422 71.6138 164.317 71.8345L158.062 84.9471C157.968 85.144 157.982 85.3752 158.098 85.5596C158.214 85.7441 158.417 85.856 158.635 85.856H159.574C159.819 85.856 160.042 85.7152 160.147 85.4942L161.784 82.0629H168.809L170.465 85.4966C170.571 85.7164 170.793 85.8561 171.037 85.8561H171.978C171.978 85.8561 171.979 85.8561 171.979 85.8561C172.33 85.8561 172.615 85.5716 172.615 85.2207C172.615 85.1056 172.584 84.9976 172.531 84.9044L166.227 71.8305ZM162.795 79.9451L165.278 74.7392L167.788 79.9451H162.795Z" fill="white"/>
<path d="M192.933 72.1751L192.595 71.4962C192.488 71.2804 192.268 71.144 192.027 71.144H182.543C182.192 71.144 181.908 71.4285 181.908 71.7794V72.6265C181.908 72.9774 182.192 73.2619 182.543 73.2619H189.911L181.803 84.1481C181.66 84.3402 181.637 84.5964 181.744 84.8107L182.082 85.4897C182.19 85.7055 182.41 85.8419 182.651 85.8419H192.081C192.432 85.8419 192.716 85.5574 192.716 85.2065V84.3594C192.716 84.0085 192.432 83.724 192.081 83.724H184.767L192.874 72.8377C193.017 72.6457 193.04 72.3895 192.933 72.1751Z" fill="white"/>
<path d="M181.027 79.8576L180.36 79.3353C180.227 79.2315 180.059 79.1845 179.891 79.2049C179.724 79.2253 179.572 79.3112 179.468 79.4439L177.923 81.4165V71.7795C177.923 71.4286 177.639 71.1441 177.288 71.1441H176.441C176.09 71.1441 175.806 71.4286 175.806 71.7795V81.4165L174.261 79.4439C174.157 79.3113 174.005 79.2253 173.838 79.2049C173.67 79.1845 173.502 79.2315 173.369 79.3353L172.702 79.8576C172.426 80.0739 172.377 80.4732 172.594 80.7495L176.364 85.5652C176.485 85.719 176.669 85.8088 176.864 85.8088C177.06 85.8088 177.244 85.7189 177.365 85.5652L181.135 80.7495C181.352 80.4732 181.303 80.0739 181.027 79.8576Z" fill="white"/>
</svg>
