<svg width="350" height="233" viewBox="0 0 350 233" fill="none" xmlns="http://www.w3.org/2000/svg">
<rect y="0.721375" width="350" height="232.279" fill="#3D32BF"/>
<path d="M40.2021 118.432C40.2021 119.592 39.7832 120.506 38.9453 121.174C38.1133 121.842 36.9531 122.176 35.4648 122.176C34.0938 122.176 32.8809 121.918 31.8262 121.402V118.871C32.6934 119.258 33.4258 119.53 34.0234 119.688C34.627 119.847 35.1777 119.926 35.6758 119.926C36.2734 119.926 36.7305 119.812 37.0469 119.583C37.3691 119.354 37.5303 119.015 37.5303 118.563C37.5303 118.312 37.46 118.089 37.3193 117.896C37.1787 117.696 36.9707 117.506 36.6953 117.324C36.4258 117.143 35.8721 116.853 35.0342 116.454C34.249 116.085 33.6602 115.73 33.2676 115.391C32.875 115.051 32.5615 114.655 32.3271 114.204C32.0928 113.753 31.9756 113.226 31.9756 112.622C31.9756 111.485 32.3594 110.592 33.127 109.941C33.9004 109.291 34.9668 108.966 36.3262 108.966C36.9941 108.966 37.6299 109.045 38.2334 109.203C38.8428 109.361 39.4785 109.584 40.1406 109.871L39.2617 111.989C38.5762 111.708 38.0078 111.512 37.5566 111.4C37.1113 111.289 36.6719 111.233 36.2383 111.233C35.7227 111.233 35.3271 111.354 35.0518 111.594C34.7764 111.834 34.6387 112.147 34.6387 112.534C34.6387 112.774 34.6943 112.985 34.8057 113.167C34.917 113.343 35.0928 113.516 35.333 113.686C35.5791 113.85 36.1562 114.148 37.0645 114.582C38.2656 115.156 39.0889 115.733 39.5342 116.313C39.9795 116.888 40.2021 117.594 40.2021 118.432ZM48.0283 122H45.3037V111.418H41.8144V109.15H51.5175V111.418H48.0283V122ZM65.6982 115.558C65.6982 117.685 65.1708 119.319 64.1161 120.462C63.0614 121.604 61.5497 122.176 59.581 122.176C57.6122 122.176 56.1005 121.604 55.0458 120.462C53.9911 119.319 53.4638 117.679 53.4638 115.54C53.4638 113.401 53.9911 111.77 55.0458 110.645C56.1064 109.514 57.6239 108.948 59.5986 108.948C61.5732 108.948 63.082 109.517 64.1249 110.653C65.1737 111.79 65.6982 113.425 65.6982 115.558ZM56.3202 115.558C56.3202 116.993 56.5927 118.074 57.1376 118.801C57.6825 119.527 58.497 119.891 59.581 119.891C61.7548 119.891 62.8417 118.446 62.8417 115.558C62.8417 112.663 61.7607 111.216 59.5986 111.216C58.5146 111.216 57.6972 111.582 57.1464 112.314C56.5956 113.041 56.3202 114.122 56.3202 115.558ZM74.3593 111.233C73.3339 111.233 72.5399 111.62 71.9774 112.394C71.4149 113.161 71.1337 114.233 71.1337 115.61C71.1337 118.476 72.2089 119.908 74.3593 119.908C75.2616 119.908 76.3544 119.683 77.6376 119.231V121.517C76.5829 121.956 75.4052 122.176 74.1044 122.176C72.2352 122.176 70.8055 121.61 69.8153 120.479C68.8251 119.343 68.33 117.714 68.33 115.593C68.33 114.257 68.5731 113.088 69.0595 112.086C69.5458 111.078 70.243 110.308 71.1512 109.774C72.0653 109.235 73.1346 108.966 74.3593 108.966C75.6073 108.966 76.8612 109.268 78.121 109.871L77.2421 112.086C76.7616 111.857 76.2782 111.658 75.7919 111.488C75.3055 111.318 74.828 111.233 74.3593 111.233ZM91.2557 122H88.162L84.7957 116.586L83.6444 117.412V122H80.9198V109.15H83.6444V115.03L84.7166 113.519L88.1971 109.15H91.2205L86.7381 114.837L91.2557 122ZM104.069 122L100.975 111.919H100.896C101.008 113.97 101.063 115.338 101.063 116.023V122H98.6287V109.15H102.338L105.379 118.977H105.431L108.657 109.15H112.366V122H109.826V115.918C109.826 115.631 109.829 115.3 109.835 114.925C109.846 114.55 109.887 113.554 109.958 111.937H109.879L106.565 122H104.069ZM124.015 122L123.084 118.941H118.399L117.467 122H114.532L119.067 109.098H122.398L126.951 122H124.015ZM122.433 116.656C121.572 113.885 121.086 112.317 120.974 111.954C120.869 111.591 120.793 111.304 120.746 111.093C120.552 111.843 119.999 113.697 119.085 116.656H122.433ZM140.516 122H137.053L131.464 112.279H131.384C131.496 113.996 131.551 115.221 131.551 115.953V122H129.117V109.15H132.553L138.134 118.774H138.196C138.108 117.104 138.064 115.924 138.064 115.232V109.15H140.516V122ZM152.166 122L151.234 118.941H146.549L145.618 122H142.682L147.217 109.098H150.548L155.101 122H152.166ZM150.584 116.656C149.722 113.885 149.236 112.317 149.125 111.954C149.019 111.591 148.943 111.304 148.896 111.093C148.703 111.843 148.149 113.697 147.235 116.656H150.584ZM162.145 114.784H167.243V121.446C166.417 121.716 165.637 121.903 164.905 122.009C164.178 122.12 163.434 122.176 162.672 122.176C160.733 122.176 159.251 121.607 158.225 120.471C157.206 119.328 156.696 117.69 156.696 115.558C156.696 113.483 157.288 111.866 158.471 110.706C159.661 109.546 161.307 108.966 163.411 108.966C164.729 108.966 166.001 109.229 167.225 109.757L166.32 111.937C165.382 111.468 164.407 111.233 163.393 111.233C162.215 111.233 161.272 111.629 160.563 112.42C159.854 113.211 159.5 114.274 159.5 115.61C159.5 117.005 159.784 118.071 160.352 118.81C160.926 119.542 161.758 119.908 162.848 119.908C163.417 119.908 163.994 119.85 164.58 119.732V117.052H162.145V114.784ZM178.251 122H170.85V109.15H178.251V111.383H173.575V114.204H177.925V116.437H173.575V119.75H178.251V122ZM186.92 122L183.827 111.919H183.748C183.859 113.97 183.915 115.338 183.915 116.023V122H181.48V109.15H185.189L188.23 118.977H188.283L191.508 109.15H195.217V122H192.677V115.918C192.677 115.631 192.68 115.3 192.686 114.925C192.698 114.55 192.739 113.554 192.809 111.937H192.73L189.417 122H186.92ZM206.401 122H199V109.15H206.401V111.383H201.725V114.204H206.076V116.437H201.725V119.75H206.401V122ZM221.03 122H217.567L211.977 112.279H211.898C212.009 113.996 212.065 115.221 212.065 115.953V122H209.63V109.15H213.067L218.648 118.774H218.709C218.622 117.104 218.578 115.924 218.578 115.232V109.15H221.03V122ZM229.77 122H227.045V111.418H223.556V109.15H233.259V111.418H229.77V122ZM248.577 118.432C248.577 119.592 248.159 120.506 247.321 121.174C246.489 121.842 245.328 122.176 243.84 122.176C242.469 122.176 241.256 121.918 240.201 121.402V118.871C241.069 119.258 241.801 119.53 242.399 119.688C243.002 119.847 243.553 119.926 244.051 119.926C244.649 119.926 245.106 119.812 245.422 119.583C245.744 119.354 245.906 119.015 245.906 118.563C245.906 118.312 245.835 118.089 245.695 117.896C245.554 117.696 245.346 117.506 245.071 117.324C244.801 117.143 244.247 116.853 243.41 116.454C242.624 116.085 242.035 115.73 241.643 115.391C241.25 115.051 240.937 114.655 240.702 114.204C240.468 113.753 240.351 113.226 240.351 112.622C240.351 111.485 240.735 110.592 241.502 109.941C242.276 109.291 243.342 108.966 244.701 108.966C245.369 108.966 246.005 109.045 246.609 109.203C247.218 109.361 247.854 109.584 248.516 109.871L247.637 111.989C246.951 111.708 246.383 111.512 245.932 111.4C245.487 111.289 245.047 111.233 244.614 111.233C244.098 111.233 243.702 111.354 243.427 111.594C243.152 111.834 243.014 112.147 243.014 112.534C243.014 112.774 243.07 112.985 243.181 113.167C243.292 113.343 243.468 113.516 243.708 113.686C243.954 113.85 244.532 114.148 245.44 114.582C246.641 115.156 247.464 115.733 247.91 116.313C248.355 116.888 248.577 117.594 248.577 118.432ZM255.446 114.441L258.126 109.15H261.062L256.799 116.999V122H254.092V117.087L249.829 109.15H252.783L255.446 114.441ZM270.804 118.432C270.804 119.592 270.385 120.506 269.547 121.174C268.715 121.842 267.555 122.176 266.067 122.176C264.696 122.176 263.483 121.918 262.428 121.402V118.871C263.295 119.258 264.028 119.53 264.625 119.688C265.229 119.847 265.78 119.926 266.278 119.926C266.875 119.926 267.332 119.812 267.649 119.583C267.971 119.354 268.132 119.015 268.132 118.563C268.132 118.312 268.062 118.089 267.921 117.896C267.781 117.696 267.572 117.506 267.297 117.324C267.028 117.143 266.474 116.853 265.636 116.454C264.851 116.085 264.262 115.73 263.869 115.391C263.477 115.051 263.163 114.655 262.929 114.204C262.695 113.753 262.577 113.226 262.577 112.622C262.577 111.485 262.961 110.592 263.729 109.941C264.502 109.291 265.569 108.966 266.928 108.966C267.596 108.966 268.232 109.045 268.835 109.203C269.445 109.361 270.08 109.584 270.742 109.871L269.864 111.989C269.178 111.708 268.61 111.512 268.158 111.4C267.713 111.289 267.274 111.233 266.84 111.233C266.324 111.233 265.929 111.354 265.654 111.594C265.378 111.834 265.24 112.147 265.24 112.534C265.24 112.774 265.296 112.985 265.407 113.167C265.519 113.343 265.695 113.516 265.935 113.686C266.181 113.85 266.758 114.148 267.666 114.582C268.867 115.156 269.691 115.733 270.136 116.313C270.581 116.888 270.804 117.594 270.804 118.432ZM278.63 122H275.905V111.418H272.416V109.15H282.119V111.418H278.63V122ZM292.037 122H284.637V109.15H292.037V111.383H287.361V114.204H291.712V116.437H287.361V119.75H292.037V122ZM300.707 122L297.613 111.919H297.534C297.646 113.97 297.701 115.338 297.701 116.023V122H295.267V109.15H298.976L302.017 118.977H302.069L305.295 109.15H309.004V122H306.464V115.918C306.464 115.631 306.467 115.3 306.473 114.925C306.484 114.55 306.526 113.554 306.596 111.937H306.517L303.203 122H300.707Z" fill="#FEFEFE"/>
<path d="M0 176L14.5833 177.049C29.1667 178.177 58.3333 180.156 87.5 188.667C116.667 197.177 145.833 211.823 175 219.284C204.167 226.667 233.333 226.667 262.5 220.333C291.667 214 320.833 201.333 335.417 195L350 188.667V233H335.417C320.833 233 291.667 233 262.5 233C233.333 233 204.167 233 175 233C145.833 233 116.667 233 87.5 233C58.3333 233 29.1667 233 14.5833 233H0V176Z" fill="#6C59BC"/>
<path d="M142.612 71.3112C141.243 65.2878 138.016 63.3086 137.67 62.5513C137.288 62.0173 136.875 61 136.875 61C136.873 61.0206 136.871 61.0336 136.87 61.0531V61.0672H136.869C136.867 61.0834 136.866 61.0943 136.865 61.1094V61.1257H136.862C136.862 61.1365 136.86 61.1452 136.86 61.1538V61.182H136.857C136.856 61.1907 136.856 61.2015 136.854 61.2091V61.2318H136.852C136.852 61.2394 136.852 61.2481 136.849 61.2546V61.2763H136.847C136.847 61.2871 136.846 61.3001 136.845 61.3109V61.3131C136.842 61.3315 136.839 61.3499 136.835 61.3672V61.3759H136.833C136.832 61.3803 136.83 61.3846 136.83 61.3889V61.4073H136.827V61.4312H136.821V61.4507H136.816V61.4734H136.812V61.494H136.807V61.5124H136.801V61.5276H136.796V61.5471H136.792V61.5623H136.787V61.5763H136.783V61.5926H136.779C136.778 61.5937 136.778 61.5958 136.778 61.5969V61.6078H136.775C136.774 61.6099 136.774 61.6121 136.774 61.6142V61.6208H136.771C136.77 61.624 136.769 61.6294 136.769 61.6316C136.766 61.6392 136.762 61.6467 136.758 61.6543V61.6565C136.756 61.6587 136.754 61.6619 136.753 61.6641V61.6728H136.749V61.6814H136.743V61.6901H136.74V61.7009H136.734V61.7161H136.729V61.7204H136.725V61.7291H136.721V61.741H136.716V61.7497H136.71V61.7616H136.705V61.7703H136.7V61.7789H136.697V61.7897H136.691V61.7984H136.687V61.8049H136.683V61.8136H136.676V61.8233H136.672V61.8298H136.666V61.8385H136.662V61.8504H136.657V61.8548H136.653V61.8634H136.647V61.8678H136.643V61.8786H136.638V61.8829H136.634V61.8916H136.628V61.8981H136.625L136.623 61.9024V61.9068H136.621C136.62 61.9089 136.619 61.9089 136.619 61.9111V61.9122H136.618C136.617 61.9154 136.615 61.9176 136.613 61.9198V61.923H136.612C136.607 61.9295 136.604 61.936 136.599 61.9425V61.9436C136.597 61.9458 136.592 61.9501 136.589 61.9544V61.9566H136.588C136.587 61.9577 136.585 61.9588 136.585 61.9598V61.9631H136.583L136.58 61.9663V61.9674H136.579C136.579 61.9685 136.576 61.9696 136.575 61.9718V61.9761H136.572L136.57 61.9783V61.9804H136.568C136.568 61.9826 136.566 61.9826 136.566 61.9837V61.9869H136.561C136.561 61.988 136.56 61.9891 136.559 61.9902V61.9967H136.556V62.001H136.552V62.0075H136.547V62.0162H136.542V62.0075H136.536V62.0118H136.532V62.0183H136.527V62.027H136.521V62.0313H136.517V62.0378H136.513V62.0422H136.508V62.0508H136.502V62.0552H136.497V62.0617H136.492V62.066H136.488V62.0714H136.482V62.0823H136.48V62.0866H136.474V62.092H136.469V62.0942H136.465V62.0985H136.459V62.1093H136.455V62.1137H136.45V62.118H136.445V62.1245H136.44V62.1288H136.435V62.1332H136.43V62.1375H136.426V62.1483H136.422V62.1538H136.415V62.1581H136.411V62.1624H136.405V62.1689H136.401V62.1732H136.396V62.1808H136.391V62.1852H136.385V62.1917H136.383V62.196H136.378V62.2003H136.373V62.2047H136.368V62.2112H136.363V62.2155H136.36C136.359 62.2166 136.359 62.2177 136.359 62.2177V62.2198H136.357L136.352 62.2242C136.352 62.2242 136.35 62.2263 136.348 62.2274V62.2339H136.344V62.2393H136.339V62.2437H136.335V62.248H136.332L136.328 62.2513V62.2545H136.326L136.324 62.2567V62.2599H136.322C136.316 62.2664 136.314 62.2708 136.307 62.2773C136.305 62.2794 136.298 62.2848 136.294 62.2881C136.281 62.2968 136.264 62.3108 136.251 62.3228C136.243 62.3282 136.234 62.3358 136.228 62.3412V62.3423H136.227C136.209 62.3563 136.193 62.3693 136.173 62.3845V62.3856C136.147 62.4073 136.123 62.4278 136.093 62.4528V62.4517H136.091C136.029 62.5026 135.964 62.56 135.89 62.6239V62.625H135.889C135.705 62.7853 135.488 62.9912 135.244 63.2403L135.228 63.2566L135.223 63.2609C133.75 64.7852 131.428 67.9615 131.184 73.0943C131.162 73.519 131.166 73.9318 131.19 74.3337V74.3434C131.308 76.366 131.943 78.0928 132.737 79.4958V79.4968C133.053 80.0558 133.395 80.5639 133.74 81.0189V81.02C134.934 82.5963 136.153 83.5301 136.464 83.7565C136.942 84.8648 136.897 86.7671 136.897 86.7671L137.595 87C137.595 87 137.453 85.1573 137.652 84.2678C137.714 83.9894 137.86 83.7522 138.03 83.5507C138.145 83.4694 138.485 83.2246 138.894 82.8519C138.913 82.8313 138.924 82.8129 138.941 82.7934C140.589 81.2573 143.667 77.4743 142.612 71.3112V71.3112Z" fill="white"/>
<path d="M174.429 74.0625H171.857V71.25C171.857 70.9049 171.601 70.625 171.286 70.625H170.714C170.399 70.625 170.143 70.9049 170.143 71.25V74.0625H167.571C167.256 74.0625 167 74.3424 167 74.6875V75.3125C167 75.6576 167.256 75.9375 167.571 75.9375H170.143V78.75C170.143 79.0951 170.399 79.375 170.714 79.375H171.286C171.601 79.375 171.857 79.0951 171.857 78.75V75.9375H174.429C174.744 75.9375 175 75.6576 175 75.3125V74.6875C175 74.3424 174.744 74.0625 174.429 74.0625Z" fill="white"/>
<path d="M215.87 70.6906C215.575 70.5922 215.28 70.4992 214.984 70.4117C215.034 70.2094 215.077 70.007 215.121 69.8047C215.794 66.5453 215.351 63.9258 213.858 63.0617C212.42 62.2359 210.073 63.0945 207.7 65.1617C207.465 65.364 207.235 65.5773 207.016 65.7906C206.869 65.6484 206.716 65.5062 206.562 65.3695C204.074 63.1601 201.58 62.2305 200.088 63.1C198.655 63.9312 198.228 66.3976 198.83 69.482C198.89 69.7883 198.955 70.089 199.032 70.3953C198.682 70.4937 198.337 70.6031 198.015 70.718C195.095 71.7297 193 73.3265 193 74.9781C193 76.6844 195.231 78.3961 198.266 79.4351C198.513 79.5172 198.759 79.5992 199.01 79.6703C198.928 79.9984 198.857 80.3211 198.791 80.6547C198.217 83.6898 198.666 86.0961 200.098 86.9219C201.575 87.775 204.058 86.9 206.475 84.7836C206.666 84.614 206.858 84.4391 207.049 84.2531C207.29 84.4883 207.541 84.7125 207.793 84.9312C210.134 86.9437 212.447 87.7586 213.874 86.9328C215.351 86.0797 215.832 83.493 215.209 80.343C215.159 80.1023 215.105 79.8562 215.045 79.6047C215.22 79.5555 215.389 79.5008 215.559 79.4461C218.714 78.4015 221 76.7117 221 74.9781C221 73.3211 218.845 71.7133 215.87 70.6906V70.6906ZM208.471 66.0476C210.505 64.2758 212.403 63.5812 213.267 64.0789C214.191 64.6094 214.547 66.7531 213.967 69.5695C213.929 69.7555 213.891 69.9359 213.841 70.1164C212.627 69.843 211.397 69.6461 210.161 69.5367C209.45 68.5195 208.673 67.5461 207.831 66.6328C208.045 66.4305 208.252 66.2391 208.471 66.0476V66.0476ZM202.144 77.8164C202.423 78.2922 202.707 78.768 203.008 79.2328C202.155 79.1398 201.307 79.0031 200.47 78.8226C200.711 78.0351 201.012 77.2203 201.362 76.389C201.613 76.8703 201.87 77.3461 202.144 77.8164V77.8164ZM200.487 71.2375C201.274 71.0625 202.111 70.9203 202.98 70.8109C202.691 71.2648 202.406 71.7297 202.138 72.2C201.87 72.6648 201.608 73.1406 201.362 73.6219C201.017 72.807 200.727 72.0086 200.487 71.2375ZM201.985 75.0055C202.346 74.2508 202.74 73.5125 203.155 72.7851C203.571 72.0578 204.02 71.3523 204.49 70.6578C205.31 70.5976 206.147 70.5648 207 70.5648C207.853 70.5648 208.695 70.5976 209.51 70.6578C209.975 71.3469 210.418 72.0523 210.839 72.7742C211.26 73.4961 211.654 74.2344 212.026 74.9836C211.659 75.7383 211.266 76.482 210.845 77.2148C210.429 77.9422 209.986 78.6476 209.521 79.3476C208.706 79.4078 207.859 79.4351 207 79.4351C206.141 79.4351 205.31 79.4078 204.506 79.3586C204.03 78.6641 203.582 77.9531 203.161 77.2258C202.74 76.4984 202.352 75.7601 201.985 75.0055ZM211.862 77.8055C212.141 77.3242 212.403 76.8375 212.66 76.3453C213.01 77.1383 213.316 77.9422 213.584 78.768C212.737 78.9594 211.878 79.107 211.014 79.2055C211.309 78.7461 211.588 78.2758 211.862 77.8055ZM212.649 73.6219C212.392 73.1406 212.13 72.6594 211.856 72.189C211.588 71.7242 211.309 71.2648 211.02 70.8109C211.9 70.9203 212.742 71.068 213.53 71.2484C213.278 72.0578 212.983 72.8453 212.649 73.6219V73.6219ZM207.011 67.4695C207.585 68.093 208.127 68.7492 208.63 69.4273C207.547 69.3781 206.459 69.3781 205.376 69.4273C205.912 68.7219 206.464 68.0656 207.011 67.4695ZM200.667 64.1172C201.586 63.5812 203.626 64.3469 205.775 66.25C205.912 66.3703 206.048 66.5016 206.191 66.6328C205.343 67.5461 204.561 68.5195 203.845 69.5367C202.609 69.6461 201.384 69.8375 200.17 70.1055C200.098 69.8265 200.038 69.5422 199.978 69.2578C199.464 66.6109 199.803 64.6148 200.667 64.1172V64.1172ZM199.327 78.5328C199.098 78.4672 198.873 78.3961 198.649 78.3195C197.484 77.9531 196.161 77.3734 195.204 76.6133C194.652 76.2305 194.28 75.6398 194.176 74.9781C194.176 73.9773 195.904 72.6976 198.398 71.8281C198.709 71.7187 199.027 71.6203 199.344 71.5273C199.716 72.714 200.164 73.8789 200.684 75.0055C200.159 76.1484 199.705 77.3297 199.327 78.5328V78.5328ZM205.704 83.8922C204.802 84.718 203.757 85.3742 202.62 85.8226C202.012 86.1125 201.313 86.1398 200.689 85.8937C199.82 85.3906 199.459 83.4601 199.951 80.8625C200.011 80.5562 200.077 80.25 200.153 79.9492C201.378 80.2117 202.614 80.3922 203.866 80.4851C204.588 81.5078 205.381 82.4867 206.229 83.4055C206.054 83.575 205.879 83.739 205.704 83.8922ZM207.044 82.5633C206.486 81.9617 205.928 81.2945 205.387 80.5781C205.912 80.6 206.453 80.6109 207 80.6109C207.563 80.6109 208.116 80.6 208.662 80.5726C208.159 81.2672 207.618 81.9289 207.044 82.5633V82.5633ZM214.191 84.2039C214.142 84.8711 213.814 85.4945 213.289 85.9156C212.42 86.4187 210.566 85.7625 208.564 84.0453C208.334 83.8484 208.105 83.6351 207.87 83.4164C208.706 82.4922 209.477 81.5133 210.177 80.4851C211.43 80.3812 212.677 80.1898 213.907 79.9109C213.962 80.1351 214.011 80.3594 214.055 80.5781C214.323 81.7594 214.366 82.9898 214.191 84.2039V84.2039ZM215.187 78.325C215.034 78.3742 214.88 78.4234 214.722 78.4672C214.339 77.275 213.869 76.1101 213.327 74.9781C213.852 73.8625 214.295 72.714 214.667 71.5383C214.952 71.6203 215.225 71.7078 215.488 71.7953C218.036 72.6703 219.824 73.9719 219.824 74.9672C219.824 76.039 217.916 77.4226 215.187 78.325ZM207 77.5047C208.384 77.5047 209.505 76.3836 209.505 75C209.505 73.6164 208.384 72.4953 207 72.4953C205.616 72.4953 204.495 73.6164 204.495 75C204.495 76.3836 205.616 77.5047 207 77.5047Z" fill="white"/>
</svg>
