<svg width="350" height="233" viewBox="0 0 350 233" fill="none" xmlns="http://www.w3.org/2000/svg">
<rect y="0.721375" width="350" height="232.279" fill="#3D32BF"/>
<g clip-path="url(#clip0)">
<path d="M183.885 79.6666H178.551C178.183 79.6666 177.885 79.9646 177.885 80.3333C177.885 80.702 178.183 81 178.551 81H183.885C184.253 81 184.551 80.702 184.551 80.3333C184.551 79.9646 184.253 79.6666 183.885 79.6666Z" fill="white"/>
<path d="M175.319 73.6479C175.442 73.7573 175.6 73.8166 175.762 73.8166C175.796 73.8166 175.83 73.8139 175.863 73.8086C176.06 73.7786 176.233 73.6619 176.334 73.4913L178.022 70.6773C178.131 70.4966 178.148 70.2746 178.067 70.0786C177.987 69.8833 177.818 69.7373 177.612 69.6866L170.853 67.9966C170.557 67.9206 170.245 68.0606 170.101 68.3319C169.958 68.6033 170.019 68.9373 170.249 69.1413L175.319 73.6479ZM176.415 70.7613L175.603 72.1159L173.165 69.9486L176.415 70.7613Z" fill="white"/>
<path d="M183.935 70.0786C183.854 70.2746 183.871 70.4966 183.98 70.6773L185.669 73.4913C185.771 73.6619 185.943 73.7786 186.139 73.8086C186.173 73.8139 186.207 73.8166 186.241 73.8166C186.403 73.8166 186.561 73.7573 186.683 73.6479L191.753 69.1413C191.983 68.9373 192.043 68.6033 191.899 68.3319C191.756 68.0606 191.444 67.9199 191.149 67.9966L184.389 69.6866C184.184 69.7379 184.015 69.8833 183.935 70.0786ZM188.839 69.9486L186.401 72.1166L185.589 70.7613L188.839 69.9486Z" fill="white"/>
<path d="M192.5 51.41C192.379 51.1186 192.074 50.952 191.759 51.0113C191.449 51.0713 191.223 51.34 191.218 51.656C191.169 54.7393 190.805 57.196 190.263 59.1646C187.614 56.9093 184.292 55.6666 180.785 55.6666C177.457 55.6666 174.261 56.808 171.665 58.8813C171.165 56.9613 170.833 54.594 170.785 51.656C170.78 51.3406 170.554 51.072 170.244 51.012C169.928 50.9526 169.624 51.1193 169.503 51.4106C169.284 51.936 164.78 62.8886 166.149 69.6853L166.141 69.8246C166.129 69.9933 166.119 70.162 166.119 70.3333C166.119 78.4206 172.698 85 180.785 85C188.536 85 194.933 78.9593 195.403 71.2293C197.97 64.7093 192.737 51.978 192.5 51.41ZM193.38 74.2906C192.117 77.684 190.011 79.702 188.785 80.5473V77.3533L193.38 74.2906ZM192.373 54.9193C193.869 59.3413 196.102 67.5146 193.807 71.4893C193.709 71.658 193.607 71.82 193.495 71.9686C193.494 71.97 193.493 71.972 193.492 71.9733C193.37 72.136 193.238 72.2866 193.098 72.426C193.084 72.44 193.069 72.4513 193.055 72.4653C192.933 72.5833 192.805 72.6926 192.669 72.794C192.632 72.822 192.593 72.8466 192.555 72.8726C192.437 72.954 192.315 73.03 192.189 73.0993C192.14 73.126 192.09 73.1513 192.039 73.176C191.915 73.2373 191.786 73.2926 191.653 73.3433C191.597 73.3646 191.542 73.3866 191.484 73.406C191.344 73.4533 191.198 73.4926 191.049 73.528C190.993 73.5413 190.94 73.5573 190.883 73.5693C190.677 73.6126 190.463 73.6473 190.238 73.67C189.281 73.7666 188.419 73.86 187.544 74.0353L183.64 74.816C183.498 74.8426 183.396 74.782 183.347 74.7426C183.299 74.7033 183.219 74.616 183.219 74.4713V68.6593C183.219 68.4853 183.341 68.3406 183.444 68.322C183.451 68.322 183.466 68.3206 183.485 68.3193C183.497 68.3186 183.513 68.3166 183.528 68.3153C183.533 68.3146 183.537 68.3146 183.543 68.314C184.474 68.2253 191.169 67.1673 192.373 54.9193ZM180.785 57C184.155 57 187.345 58.2506 189.815 60.5313C187.593 66.6513 183.545 66.9793 183.31 66.996C183.277 67.0006 183.247 67.0126 183.215 67.0193C182.44 67.1813 181.885 67.8526 181.885 68.6586V74.4706C181.885 74.5973 181.899 74.722 181.927 74.8426C181.93 74.8573 181.937 74.8706 181.941 74.8853C181.956 74.942 181.978 74.9953 181.998 75.05L181.058 76.2753L180.057 74.9033C180.063 74.8826 180.073 74.864 180.078 74.8426C180.105 74.722 180.119 74.5973 180.119 74.4706V68.6586C180.119 67.854 179.566 67.1846 178.739 67.0153C178.703 67.008 178.669 66.996 178.632 66.99C178.452 66.978 174.284 66.642 172.087 60.2493C174.514 58.1513 177.587 57 180.785 57ZM169.631 54.9206C170.835 67.1733 177.533 68.2266 178.405 68.308C178.409 68.3086 178.413 68.3086 178.417 68.3093C178.433 68.3106 178.447 68.312 178.459 68.3126C178.476 68.314 178.489 68.3146 178.495 68.3146C178.663 68.34 178.786 68.4846 178.786 68.6586V74.4706C178.786 74.6153 178.705 74.7033 178.657 74.742C178.647 74.7506 178.624 74.76 178.609 74.7693C178.553 74.8033 178.474 74.8373 178.365 74.8153L174.461 74.0346C173.586 73.8593 172.724 73.766 171.768 73.6693C171.503 73.6426 171.253 73.5966 171.011 73.5413C170.959 73.5293 170.907 73.516 170.855 73.5026C170.369 73.3746 169.929 73.188 169.543 72.9353C169.527 72.9253 169.512 72.914 169.497 72.9033C169.099 72.6353 168.753 72.3006 168.461 71.8953C168.454 71.8866 168.448 71.8766 168.442 71.8673C168.324 71.7006 168.219 71.5166 168.119 71.3266C168.07 71.236 168.025 71.142 167.981 71.0466C167.898 70.8673 167.819 70.6826 167.75 70.4846C167.729 70.4253 167.71 70.3646 167.691 70.304C167.61 70.0506 167.535 69.788 167.475 69.506C166.545 65.2113 168.353 58.7 169.631 54.9206ZM172.785 80.5473C171.559 79.7026 169.454 77.6853 168.191 74.294L172.785 77.3533V80.5473ZM173.952 81.7693C174.055 81.6166 174.118 81.4373 174.118 81.2453V77.142C174.118 76.8353 173.967 76.5473 173.705 76.3646L171.655 75C172.566 75.092 173.389 75.1813 174.199 75.3433L178.103 76.124C178.213 76.146 178.325 76.1573 178.436 76.1573C178.443 76.1573 178.451 76.1553 178.458 76.1553C178.485 76.1553 178.512 76.15 178.539 76.1486C178.625 76.1433 178.709 76.1326 178.792 76.1146C178.829 76.1066 178.864 76.0966 178.899 76.0866C178.976 76.0646 179.051 76.036 179.124 76.0033C179.145 75.994 179.168 75.9893 179.189 75.9786L180.504 77.7833C180.628 77.9533 180.824 78.0546 181.035 78.0573C181.037 78.0573 181.04 78.0573 181.043 78.0573C181.25 78.0573 181.445 77.9606 181.571 77.796L182.929 76.0266C182.986 76.0506 183.045 76.07 183.105 76.0873C183.139 76.0973 183.174 76.1073 183.209 76.1146C183.293 76.1333 183.379 76.144 183.465 76.1493C183.492 76.1513 183.518 76.156 183.545 76.156C183.553 76.156 183.56 76.158 183.567 76.158C183.678 76.158 183.79 76.1466 183.901 76.1246L187.805 75.344C188.453 75.214 189.122 75.1333 189.827 75.0586L187.853 76.3733C187.602 76.5486 187.451 76.836 187.451 77.1426V81.246C187.451 81.438 187.514 81.6166 187.617 81.7693C185.615 82.9693 183.28 83.6666 180.785 83.6666C178.287 83.6666 175.953 82.9693 173.952 81.7693Z" fill="white"/>
</g>
<path d="M84.2021 118.432C84.2021 119.592 83.7832 120.506 82.9453 121.174C82.1133 121.842 80.9531 122.176 79.4648 122.176C78.0938 122.176 76.8809 121.918 75.8262 121.402V118.871C76.6934 119.258 77.4258 119.53 78.0234 119.688C78.627 119.847 79.1777 119.926 79.6758 119.926C80.2734 119.926 80.7305 119.812 81.0469 119.583C81.3691 119.354 81.5303 119.015 81.5303 118.563C81.5303 118.312 81.46 118.089 81.3193 117.896C81.1787 117.696 80.9707 117.506 80.6953 117.324C80.4258 117.143 79.8721 116.853 79.0342 116.454C78.249 116.085 77.6602 115.73 77.2676 115.391C76.875 115.051 76.5615 114.655 76.3271 114.204C76.0928 113.753 75.9756 113.226 75.9756 112.622C75.9756 111.485 76.3594 110.592 77.127 109.941C77.9004 109.291 78.9668 108.966 80.3262 108.966C80.9941 108.966 81.6299 109.045 82.2334 109.203C82.8428 109.361 83.4785 109.584 84.1406 109.871L83.2617 111.989C82.5762 111.708 82.0078 111.512 81.5566 111.4C81.1113 111.289 80.6719 111.233 80.2383 111.233C79.7227 111.233 79.3271 111.354 79.0518 111.594C78.7764 111.834 78.6387 112.147 78.6387 112.534C78.6387 112.774 78.6943 112.985 78.8057 113.167C78.917 113.343 79.0928 113.516 79.333 113.686C79.5791 113.85 80.1562 114.148 81.0645 114.582C82.2656 115.156 83.0889 115.733 83.5342 116.313C83.9795 116.888 84.2021 117.594 84.2021 118.432ZM97.5302 109.15V117.465C97.5302 118.414 97.3164 119.246 96.8886 119.961C96.4668 120.676 95.8545 121.224 95.0517 121.604C94.249 121.985 93.2998 122.176 92.2041 122.176C90.5517 122.176 89.2685 121.754 88.3545 120.91C87.4404 120.061 86.9834 118.9 86.9834 117.43V109.15H89.6992V117.017C89.6992 118.007 89.8984 118.733 90.2968 119.196C90.6953 119.659 91.3545 119.891 92.2744 119.891C93.165 119.891 93.8095 119.659 94.208 119.196C94.6123 118.728 94.8144 117.995 94.8144 116.999V109.15H97.5302ZM103.941 115.197H104.838C105.676 115.197 106.303 115.033 106.719 114.705C107.135 114.371 107.343 113.888 107.343 113.255C107.343 112.616 107.167 112.145 106.815 111.84C106.47 111.535 105.925 111.383 105.181 111.383H103.941V115.197ZM110.094 113.158C110.094 114.541 109.66 115.599 108.793 116.331C107.932 117.063 106.704 117.43 105.11 117.43H103.941V122H101.217V109.15H105.321C106.88 109.15 108.063 109.487 108.872 110.161C109.686 110.829 110.094 111.828 110.094 113.158ZM120.46 122H113.059V109.15H120.46V111.383H115.784V114.204H120.135V116.437H115.784V119.75H120.46V122ZM126.414 114.854H127.293C128.154 114.854 128.79 114.711 129.2 114.424C129.61 114.137 129.815 113.686 129.815 113.07C129.815 112.461 129.604 112.027 129.182 111.77C128.766 111.512 128.119 111.383 127.24 111.383H126.414V114.854ZM126.414 117.069V122H123.689V109.15H127.433C129.18 109.15 130.472 109.47 131.309 110.108C132.147 110.741 132.566 111.705 132.566 113C132.566 113.756 132.358 114.43 131.942 115.021C131.526 115.607 130.937 116.067 130.176 116.401C132.109 119.29 133.369 121.156 133.955 122H130.931L127.864 117.069H126.414ZM151.857 122H149.141V116.454H144.052V122H141.328V109.15H144.052V114.187H149.141V109.15H151.857V122ZM163.05 122H155.649V109.15H163.05V111.383H158.374V114.204H162.724V116.437H158.374V119.75H163.05V122ZM169.004 114.854H169.882C170.744 114.854 171.38 114.711 171.79 114.424C172.2 114.137 172.405 113.686 172.405 113.07C172.405 112.461 172.194 112.027 171.772 111.77C171.356 111.512 170.709 111.383 169.83 111.383H169.004V114.854ZM169.004 117.069V122H166.279V109.15H170.023C171.769 109.15 173.061 109.47 173.899 110.108C174.737 110.741 175.156 111.705 175.156 113C175.156 113.756 174.948 114.43 174.532 115.021C174.116 115.607 173.527 116.067 172.765 116.401C174.699 119.29 175.959 121.156 176.545 122H173.521L170.454 117.069H169.004ZM190.365 115.558C190.365 117.685 189.838 119.319 188.783 120.462C187.728 121.604 186.216 122.176 184.248 122.176C182.279 122.176 180.767 121.604 179.713 120.462C178.658 119.319 178.131 117.679 178.131 115.54C178.131 113.401 178.658 111.77 179.713 110.645C180.773 109.514 182.291 108.948 184.265 108.948C186.24 108.948 187.749 109.517 188.792 110.653C189.84 111.79 190.365 113.425 190.365 115.558ZM180.987 115.558C180.987 116.993 181.259 118.074 181.804 118.801C182.349 119.527 183.164 119.891 184.248 119.891C186.422 119.891 187.508 118.446 187.508 115.558C187.508 112.663 186.427 111.216 184.265 111.216C183.181 111.216 182.364 111.582 181.813 112.314C181.262 113.041 180.987 114.122 180.987 115.558ZM204.224 122L201.13 111.919H201.051C201.163 113.97 201.218 115.338 201.218 116.023V122H198.784V109.15H202.493L205.534 118.977H205.586L208.812 109.15H212.521V122H209.981V115.918C209.981 115.631 209.984 115.3 209.99 114.925C210.002 114.55 210.043 113.554 210.113 111.937H210.034L206.72 122H204.224ZM224.17 122L223.239 118.941H218.554L217.623 122H214.687L219.222 109.098H222.553L227.106 122H224.17ZM222.588 116.656C221.727 113.885 221.241 112.317 221.129 111.954C221.024 111.591 220.948 111.304 220.901 111.093C220.708 111.843 220.154 113.697 219.24 116.656H222.588ZM234.15 114.784H239.248V121.446C238.421 121.716 237.642 121.903 236.91 122.009C236.183 122.12 235.439 122.176 234.677 122.176C232.738 122.176 231.255 121.607 230.23 120.471C229.21 119.328 228.701 117.69 228.701 115.558C228.701 113.483 229.292 111.866 230.476 110.706C231.666 109.546 233.312 108.966 235.416 108.966C236.734 108.966 238.005 109.229 239.23 109.757L238.325 111.937C237.387 111.468 236.412 111.233 235.398 111.233C234.22 111.233 233.277 111.629 232.568 112.42C231.859 113.211 231.504 114.274 231.504 115.61C231.504 117.005 231.789 118.071 232.357 118.81C232.931 119.542 233.763 119.908 234.853 119.908C235.421 119.908 235.999 119.85 236.584 119.732V117.052H234.15V114.784ZM254.254 122H250.791L245.202 112.279H245.122C245.234 113.996 245.289 115.221 245.289 115.953V122H242.855V109.15H246.291L251.872 118.774H251.934C251.846 117.104 251.802 115.924 251.802 115.232V109.15H254.254V122ZM265.438 122H258.038V109.15H265.438V111.383H260.762V114.204H265.113V116.437H260.762V119.75H265.438V122ZM273.624 122H270.9V111.418H267.411V109.15H277.114V111.418H273.624V122ZM291.294 115.558C291.294 117.685 290.767 119.319 289.712 120.462C288.658 121.604 287.146 122.176 285.177 122.176C283.208 122.176 281.697 121.604 280.642 120.462C279.587 119.319 279.06 117.679 279.06 115.54C279.06 113.401 279.587 111.77 280.642 110.645C281.702 109.514 283.22 108.948 285.195 108.948C287.169 108.948 288.678 109.517 289.721 110.653C290.77 111.79 291.294 113.425 291.294 115.558ZM281.916 115.558C281.916 116.993 282.189 118.074 282.734 118.801C283.279 119.527 284.093 119.891 285.177 119.891C287.351 119.891 288.438 118.446 288.438 115.558C288.438 112.663 287.357 111.216 285.195 111.216C284.111 111.216 283.293 111.582 282.743 112.314C282.192 113.041 281.916 114.122 281.916 115.558Z" fill="#FEFEFE"/>
<path d="M0 176L14.5833 177.049C29.1667 178.177 58.3333 180.156 87.5 188.667C116.667 197.177 145.833 211.823 175 219.284C204.167 226.667 233.333 226.667 262.5 220.333C291.667 214 320.833 201.333 335.417 195L350 188.667V233H335.417C320.833 233 291.667 233 262.5 233C233.333 233 204.167 233 175 233C145.833 233 116.667 233 87.5 233C58.3333 233 29.1667 233 14.5833 233H0V176Z" fill="#6C59BC"/>
<defs>
<clipPath id="clip0">
<rect width="34" height="34" fill="white" transform="translate(164 51)"/>
</clipPath>
</defs>
</svg>
