<svg width="358" height="241" viewBox="0 0 358 241" fill="none" xmlns="http://www.w3.org/2000/svg">
<rect x="4" width="350" height="232.97" fill="#3D32BF"/>
<g clip-path="url(#clip0)" filter="url(#filter0_d)">
<path d="M4 199.6L18.5833 198.209C33.1667 196.712 62.3333 194.087 91.5 191.2C120.667 188.312 149.833 185.687 179 189.809C208.167 194.087 237.333 205.112 266.5 202.409C295.667 199.6 324.833 182.8 339.417 174.4L354 166V233.2H339.417C324.833 233.2 295.667 233.2 266.5 233.2C237.333 233.2 208.167 233.2 179 233.2C149.833 233.2 120.667 233.2 91.5 233.2C62.3333 233.2 33.1667 233.2 18.5833 233.2H4V199.6Z" fill="#6C59BC"/>
</g>
<path d="M66.3081 109.558C66.3081 111.685 65.7808 113.319 64.7261 114.462C63.6714 115.604 62.1597 116.176 60.1909 116.176C58.2222 116.176 56.7105 115.604 55.6558 114.462C54.6011 113.319 54.0737 111.679 54.0737 109.54C54.0737 107.401 54.6011 105.77 55.6558 104.645C56.7163 103.514 58.2339 102.948 60.2085 102.948C62.1831 102.948 63.6919 103.517 64.7349 104.653C65.7837 105.79 66.3081 107.425 66.3081 109.558ZM56.9302 109.558C56.9302 110.993 57.2027 112.074 57.7476 112.801C58.2925 113.527 59.1069 113.891 60.1909 113.891C62.3648 113.891 63.4517 112.446 63.4517 109.558C63.4517 106.663 62.3706 105.216 60.2085 105.216C59.1245 105.216 58.3071 105.582 57.7564 106.314C57.2056 107.041 56.9302 108.122 56.9302 109.558ZM73.8558 109.197H74.7523C75.5902 109.197 76.2171 109.033 76.6332 108.705C77.0492 108.371 77.2572 107.888 77.2572 107.255C77.2572 106.616 77.0814 106.145 76.7298 105.84C76.3841 105.535 75.8392 105.383 75.0951 105.383H73.8558V109.197ZM80.0082 107.158C80.0082 108.541 79.5746 109.599 78.7074 110.331C77.8461 111.063 76.6185 111.43 75.0248 111.43H73.8558V116H71.1312V103.15H75.2357C76.7943 103.15 77.9779 103.487 78.7865 104.161C79.6009 104.829 80.0082 105.828 80.0082 107.158ZM91.9943 116H84.5939V103.15H91.9943V105.383H87.3186V108.204H91.6691V110.437H87.3186V113.75H91.9943V116ZM108.243 116H104.78L99.1905 106.279H99.1114C99.2227 107.996 99.2784 109.221 99.2784 109.953V116H96.8438V103.15H100.28L105.861 112.774H105.923C105.835 111.104 105.791 109.924 105.791 109.232V103.15H108.243V116ZM125.923 116L122.829 105.919H122.75C122.861 107.97 122.917 109.338 122.917 110.023V116H120.482V103.15H124.191L127.232 112.977H127.285L130.51 103.15H134.219V116H131.679V109.918C131.679 109.631 131.682 109.3 131.688 108.925C131.7 108.55 131.741 107.554 131.811 105.937H131.732L128.419 116H125.923ZM151.286 109.558C151.286 111.685 150.758 113.319 149.704 114.462C148.649 115.604 147.137 116.176 145.169 116.176C143.2 116.176 141.688 115.604 140.633 114.462C139.579 113.319 139.051 111.679 139.051 109.54C139.051 107.401 139.579 105.77 140.633 104.645C141.694 103.514 143.211 102.948 145.186 102.948C147.161 102.948 148.669 103.517 149.712 104.653C150.761 105.79 151.286 107.425 151.286 109.558ZM141.908 109.558C141.908 110.993 142.18 112.074 142.725 112.801C143.27 113.527 144.085 113.891 145.169 113.891C147.342 113.891 148.429 112.446 148.429 109.558C148.429 106.663 147.348 105.216 145.186 105.216C144.102 105.216 143.285 105.582 142.734 106.314C142.183 107.041 141.908 108.122 141.908 109.558ZM163.439 103.15H166.19L161.822 116H158.851L154.492 103.15H157.243L159.66 110.797C159.794 111.248 159.932 111.775 160.073 112.379C160.219 112.977 160.31 113.393 160.345 113.627C160.41 113.088 160.629 112.145 161.004 110.797L163.439 103.15ZM169.976 116V103.15H172.7V116H169.976ZM185.495 116H178.095V103.15H185.495V105.383H180.819V108.204H185.17V110.437H180.819V113.75H185.495V116ZM207.842 109.452C207.842 111.567 207.238 113.188 206.031 114.312C204.83 115.438 203.093 116 200.819 116H197.18V103.15H201.215C203.312 103.15 204.941 103.704 206.101 104.812C207.261 105.919 207.842 107.466 207.842 109.452ZM205.011 109.522C205.011 106.763 203.793 105.383 201.355 105.383H199.905V113.75H201.074C203.699 113.75 205.011 112.341 205.011 109.522ZM220.531 116L219.599 112.941H214.915L213.983 116H211.047L215.583 103.098H218.914L223.466 116H220.531ZM218.949 110.656C218.087 107.885 217.601 106.317 217.49 105.954C217.384 105.591 217.308 105.304 217.261 105.093C217.068 105.843 216.514 107.697 215.6 110.656H218.949ZM232.209 116H229.485V105.418H225.996V103.15H235.699V105.418H232.209V116ZM247.702 116L246.771 112.941H242.086L241.155 116H238.219L242.754 103.098H246.085L250.638 116H247.702ZM246.12 110.656C245.259 107.885 244.773 106.317 244.661 105.954C244.556 105.591 244.48 105.304 244.433 105.093C244.24 105.843 243.686 107.697 242.772 110.656H246.12ZM254.424 103.15H258.423C260.245 103.15 261.567 103.411 262.387 103.933C263.213 104.448 263.626 105.271 263.626 106.402C263.626 107.17 263.444 107.8 263.081 108.292C262.724 108.784 262.246 109.08 261.649 109.18V109.268C262.463 109.449 263.049 109.789 263.406 110.287C263.77 110.785 263.951 111.447 263.951 112.273C263.951 113.445 263.526 114.359 262.677 115.016C261.833 115.672 260.685 116 259.232 116H254.424V103.15ZM257.149 108.239H258.731C259.469 108.239 260.002 108.125 260.33 107.896C260.664 107.668 260.831 107.29 260.831 106.763C260.831 106.271 260.65 105.919 260.286 105.708C259.929 105.491 259.36 105.383 258.581 105.383H257.149V108.239ZM257.149 110.401V113.75H258.924C259.674 113.75 260.228 113.606 260.585 113.319C260.942 113.032 261.121 112.593 261.121 112.001C261.121 110.935 260.359 110.401 258.836 110.401H257.149ZM276.544 116L275.612 112.941H270.928L269.996 116H267.061L271.596 103.098H274.927L279.479 116H276.544ZM274.962 110.656C274.101 107.885 273.614 106.317 273.503 105.954C273.397 105.591 273.321 105.304 273.274 105.093C273.081 105.843 272.527 107.697 271.613 110.656H274.962ZM290.85 112.432C290.85 113.592 290.431 114.506 289.594 115.174C288.762 115.842 287.601 116.176 286.113 116.176C284.742 116.176 283.529 115.918 282.474 115.402V112.871C283.342 113.258 284.074 113.53 284.672 113.688C285.275 113.847 285.826 113.926 286.324 113.926C286.922 113.926 287.379 113.812 287.695 113.583C288.017 113.354 288.179 113.015 288.179 112.563C288.179 112.312 288.108 112.089 287.968 111.896C287.827 111.696 287.619 111.506 287.344 111.324C287.074 111.143 286.52 110.853 285.682 110.454C284.897 110.085 284.308 109.73 283.916 109.391C283.523 109.051 283.21 108.655 282.975 108.204C282.741 107.753 282.624 107.226 282.624 106.622C282.624 105.485 283.008 104.592 283.775 103.941C284.549 103.291 285.615 102.966 286.974 102.966C287.642 102.966 288.278 103.045 288.882 103.203C289.491 103.361 290.127 103.584 290.789 103.871L289.91 105.989C289.224 105.708 288.656 105.512 288.205 105.4C287.76 105.289 287.32 105.233 286.887 105.233C286.371 105.233 285.975 105.354 285.7 105.594C285.425 105.834 285.287 106.147 285.287 106.534C285.287 106.774 285.343 106.985 285.454 107.167C285.565 107.343 285.741 107.516 285.981 107.686C286.227 107.85 286.804 108.148 287.713 108.582C288.914 109.156 289.737 109.733 290.182 110.313C290.628 110.888 290.85 111.594 290.85 112.432ZM302.74 116H295.339V103.15H302.74V105.383H298.064V108.204H302.415V110.437H298.064V113.75H302.74V116Z" fill="white"/>
<path d="M161 63C167.213 63 172.25 61.3211 172.25 59.25C172.25 57.1789 167.213 55.5 161 55.5C154.787 55.5 149.75 57.1789 149.75 59.25C149.75 61.3211 154.787 63 161 63Z" stroke="white" stroke-width="2" stroke-linecap="round" stroke-linejoin="round"/>
<path d="M172.25 68C172.25 70.075 167.25 71.75 161 71.75C154.75 71.75 149.75 70.075 149.75 68" stroke="white" stroke-width="2" stroke-linecap="round" stroke-linejoin="round"/>
<path d="M149.75 59.25V76.75C149.75 78.825 154.75 80.5 161 80.5C167.25 80.5 172.25 78.825 172.25 76.75V59.25" stroke="white" stroke-width="2" stroke-linecap="round" stroke-linejoin="round"/>
<path d="M182 67.6667C186.142 67.6667 189.5 66.5474 189.5 65.1667C189.5 63.7859 186.142 62.6667 182 62.6667C177.858 62.6667 174.5 63.7859 174.5 65.1667C174.5 66.5474 177.858 67.6667 182 67.6667Z" stroke="white" stroke-width="2" stroke-linecap="round" stroke-linejoin="round"/>
<path d="M189.5 71C189.5 72.3833 186.167 73.5 182 73.5C177.833 73.5 174.5 72.3833 174.5 71" stroke="white" stroke-width="2" stroke-linecap="round" stroke-linejoin="round"/>
<path d="M174.5 65.1667V76.8333C174.5 78.2167 177.833 79.3333 182 79.3333C186.167 79.3333 189.5 78.2167 189.5 76.8333V65.1667" stroke="white" stroke-width="2" stroke-linecap="round" stroke-linejoin="round"/>
<defs>
<filter id="filter0_d" x="0" y="149" width="358" height="92" filterUnits="userSpaceOnUse" color-interpolation-filters="sRGB">
<feFlood flood-opacity="0" result="BackgroundImageFix"/>
<feColorMatrix in="SourceAlpha" type="matrix" values="0 0 0 0 0 0 0 0 0 0 0 0 0 0 0 0 0 0 127 0"/>
<feOffset dy="4"/>
<feGaussianBlur stdDeviation="2"/>
<feColorMatrix type="matrix" values="0 0 0 0 0 0 0 0 0 0 0 0 0 0 0 0 0 0 0.25 0"/>
<feBlend mode="normal" in2="BackgroundImageFix" result="effect1_dropShadow"/>
<feBlend mode="normal" in="SourceGraphic" in2="effect1_dropShadow" result="shape"/>
</filter>
<clipPath id="clip0">
<rect width="350" height="84" fill="white" transform="translate(4 149)"/>
</clipPath>
</defs>
</svg>
