<svg width="350" height="233" viewBox="0 0 350 233" fill="none" xmlns="http://www.w3.org/2000/svg">
<rect y="0.721375" width="350" height="232.279" fill="#3D32BF"/>
<path d="M120.146 122H117.431V116.454H112.342V122H109.617V109.15H112.342V114.187H117.431V109.15H120.146V122ZM131.805 122L130.873 118.941H126.188L125.257 122H122.321L126.856 109.098H130.187L134.74 122H131.805ZM130.223 116.656C129.361 113.885 128.875 112.317 128.764 111.954C128.658 111.591 128.582 111.304 128.535 111.093C128.342 111.843 127.788 113.697 126.874 116.656H130.223ZM148.306 122H144.843L139.253 112.279H139.174C139.285 113.996 139.341 115.221 139.341 115.953V122H136.906V109.15H140.343L145.924 118.774H145.985C145.897 117.104 145.853 115.924 145.853 115.232V109.15H148.306V122ZM156.967 114.784H162.064V121.446C161.238 121.716 160.459 121.903 159.726 122.009C159 122.12 158.256 122.176 157.494 122.176C155.555 122.176 154.072 121.607 153.047 120.471C152.027 119.328 151.517 117.69 151.517 115.558C151.517 113.483 152.109 111.866 153.293 110.706C154.482 109.546 156.129 108.966 158.232 108.966C159.551 108.966 160.822 109.229 162.047 109.757L161.141 111.937C160.204 111.468 159.228 111.233 158.215 111.233C157.037 111.233 156.094 111.629 155.385 112.42C154.676 113.211 154.321 114.274 154.321 115.61C154.321 117.005 154.605 118.071 155.174 118.81C155.748 119.542 156.58 119.908 157.67 119.908C158.238 119.908 158.815 119.85 159.401 119.732V117.052H156.967V114.784ZM171.112 122L168.018 111.919H167.939C168.051 113.97 168.106 115.338 168.106 116.023V122H165.672V109.15H169.381L172.422 118.977H172.474L175.7 109.15H179.409V122H176.869V115.918C176.869 115.631 176.872 115.3 176.878 114.925C176.889 114.55 176.931 113.554 177.001 111.937H176.922L173.608 122H171.112ZM191.058 122L190.127 118.941H185.442L184.511 122H181.575L186.11 109.098H189.441L193.994 122H191.058ZM189.476 116.656C188.615 113.885 188.129 112.317 188.017 111.954C187.912 111.591 187.836 111.304 187.789 111.093C187.596 111.843 187.042 113.697 186.128 116.656H189.476ZM207.559 122H204.096L198.507 112.279H198.427C198.539 113.996 198.594 115.221 198.594 115.953V122H196.16V109.15H199.596L205.177 118.774H205.239C205.151 117.104 205.107 115.924 205.107 115.232V109.15H207.559V122ZM221.436 114.784H226.534V121.446C225.708 121.716 224.928 121.903 224.196 122.009C223.469 122.12 222.725 122.176 221.964 122.176C220.024 122.176 218.542 121.607 217.516 120.471C216.497 119.328 215.987 117.69 215.987 115.558C215.987 113.483 216.579 111.866 217.762 110.706C218.952 109.546 220.598 108.966 222.702 108.966C224.02 108.966 225.292 109.229 226.516 109.757L225.611 111.937C224.674 111.468 223.698 111.233 222.684 111.233C221.507 111.233 220.563 111.629 219.854 112.42C219.145 113.211 218.791 114.274 218.791 115.61C218.791 117.005 219.075 118.071 219.643 118.81C220.217 119.542 221.049 119.908 222.139 119.908C222.708 119.908 223.285 119.85 223.871 119.732V117.052H221.436V114.784ZM238.007 122L237.076 118.941H232.391L231.46 122H228.524L233.059 109.098H236.39L240.943 122H238.007ZM236.425 116.656C235.564 113.885 235.078 112.317 234.966 111.954C234.861 111.591 234.785 111.304 234.738 111.093C234.545 111.843 233.991 113.697 233.077 116.656H236.425ZM248.549 122L245.456 111.919H245.377C245.488 113.97 245.544 115.338 245.544 116.023V122H243.109V109.15H246.818L249.859 118.977H249.912L253.137 109.15H256.846V122H254.306V115.918C254.306 115.631 254.309 115.3 254.315 114.925C254.327 114.55 254.368 113.554 254.438 111.937H254.359L251.046 122H248.549ZM268.03 122H260.629V109.15H268.03V111.383H263.354V114.204H267.705V116.437H263.354V119.75H268.03V122Z" fill="#FEFEFE"/>
<path d="M0 176L14.5833 177.049C29.1667 178.177 58.3333 180.156 87.5 188.667C116.667 197.177 145.833 211.823 175 219.284C204.167 226.667 233.333 226.667 262.5 220.333C291.667 214 320.833 201.333 335.417 195L350 188.667V233H335.417C320.833 233 291.667 233 262.5 233C233.333 233 204.167 233 175 233C145.833 233 116.667 233 87.5 233C58.3333 233 29.1667 233 14.5833 233H0V176Z" fill="#6C59BC"/>
<path d="M183.87 72.6906C183.575 72.5922 183.28 72.4992 182.984 72.4117C183.034 72.2094 183.077 72.007 183.121 71.8047C183.794 68.5453 183.351 65.9258 181.858 65.0617C180.42 64.2359 178.073 65.0945 175.7 67.1617C175.465 67.364 175.235 67.5773 175.016 67.7906C174.869 67.6484 174.716 67.5062 174.562 67.3695C172.074 65.1601 169.58 64.2305 168.088 65.1C166.655 65.9312 166.228 68.3976 166.83 71.482C166.89 71.7883 166.955 72.089 167.032 72.3953C166.682 72.4937 166.337 72.6031 166.015 72.718C163.095 73.7297 161 75.3265 161 76.9781C161 78.6844 163.231 80.3961 166.266 81.4351C166.513 81.5172 166.759 81.5992 167.01 81.6703C166.928 81.9984 166.857 82.3211 166.791 82.6547C166.217 85.6898 166.666 88.0961 168.098 88.9219C169.575 89.775 172.058 88.9 174.475 86.7836C174.666 86.614 174.858 86.4391 175.049 86.2531C175.29 86.4883 175.541 86.7125 175.793 86.9312C178.134 88.9437 180.447 89.7586 181.874 88.9328C183.351 88.0797 183.832 85.493 183.209 82.343C183.159 82.1023 183.105 81.8562 183.045 81.6047C183.22 81.5555 183.389 81.5008 183.559 81.4461C186.714 80.4015 189 78.7117 189 76.9781C189 75.3211 186.845 73.7133 183.87 72.6906V72.6906ZM176.471 68.0476C178.505 66.2758 180.403 65.5812 181.267 66.0789C182.191 66.6094 182.547 68.7531 181.967 71.5695C181.929 71.7555 181.891 71.9359 181.841 72.1164C180.627 71.843 179.397 71.6461 178.161 71.5367C177.45 70.5195 176.673 69.5461 175.831 68.6328C176.045 68.4305 176.252 68.2391 176.471 68.0476V68.0476ZM170.144 79.8164C170.423 80.2922 170.707 80.768 171.008 81.2328C170.155 81.1398 169.307 81.0031 168.47 80.8226C168.711 80.0351 169.012 79.2203 169.362 78.389C169.613 78.8703 169.87 79.3461 170.144 79.8164V79.8164ZM168.487 73.2375C169.274 73.0625 170.111 72.9203 170.98 72.8109C170.691 73.2648 170.406 73.7297 170.138 74.2C169.87 74.6648 169.608 75.1406 169.362 75.6219C169.017 74.807 168.727 74.0086 168.487 73.2375ZM169.985 77.0055C170.346 76.2508 170.74 75.5125 171.155 74.7851C171.571 74.0578 172.02 73.3523 172.49 72.6578C173.31 72.5976 174.147 72.5648 175 72.5648C175.853 72.5648 176.695 72.5976 177.51 72.6578C177.975 73.3469 178.418 74.0523 178.839 74.7742C179.26 75.4961 179.654 76.2344 180.026 76.9836C179.659 77.7383 179.266 78.482 178.845 79.2148C178.429 79.9422 177.986 80.6476 177.521 81.3476C176.706 81.4078 175.859 81.4351 175 81.4351C174.141 81.4351 173.31 81.4078 172.506 81.3586C172.03 80.6641 171.582 79.9531 171.161 79.2258C170.74 78.4984 170.352 77.7601 169.985 77.0055ZM179.862 79.8055C180.141 79.3242 180.403 78.8375 180.66 78.3453C181.01 79.1383 181.316 79.9422 181.584 80.768C180.737 80.9594 179.878 81.107 179.014 81.2055C179.309 80.7461 179.588 80.2758 179.862 79.8055ZM180.649 75.6219C180.392 75.1406 180.13 74.6594 179.856 74.189C179.588 73.7242 179.309 73.2648 179.02 72.8109C179.9 72.9203 180.742 73.068 181.53 73.2484C181.278 74.0578 180.983 74.8453 180.649 75.6219V75.6219ZM175.011 69.4695C175.585 70.093 176.127 70.7492 176.63 71.4273C175.547 71.3781 174.459 71.3781 173.376 71.4273C173.912 70.7219 174.464 70.0656 175.011 69.4695ZM168.667 66.1172C169.586 65.5812 171.626 66.3469 173.775 68.25C173.912 68.3703 174.048 68.5016 174.191 68.6328C173.343 69.5461 172.561 70.5195 171.845 71.5367C170.609 71.6461 169.384 71.8375 168.17 72.1055C168.098 71.8265 168.038 71.5422 167.978 71.2578C167.464 68.6109 167.803 66.6148 168.667 66.1172V66.1172ZM167.327 80.5328C167.098 80.4672 166.873 80.3961 166.649 80.3195C165.484 79.9531 164.161 79.3734 163.204 78.6133C162.652 78.2305 162.28 77.6398 162.176 76.9781C162.176 75.9773 163.904 74.6976 166.398 73.8281C166.709 73.7187 167.027 73.6203 167.344 73.5273C167.716 74.714 168.164 75.8789 168.684 77.0055C168.159 78.1484 167.705 79.3297 167.327 80.5328V80.5328ZM173.704 85.8922C172.802 86.718 171.757 87.3742 170.62 87.8226C170.012 88.1125 169.313 88.1398 168.689 87.8937C167.82 87.3906 167.459 85.4601 167.951 82.8625C168.011 82.5562 168.077 82.25 168.153 81.9492C169.378 82.2117 170.614 82.3922 171.866 82.4851C172.588 83.5078 173.381 84.4867 174.229 85.4055C174.054 85.575 173.879 85.739 173.704 85.8922ZM175.044 84.5633C174.486 83.9617 173.928 83.2945 173.387 82.5781C173.912 82.6 174.453 82.6109 175 82.6109C175.563 82.6109 176.116 82.6 176.662 82.5726C176.159 83.2672 175.618 83.9289 175.044 84.5633V84.5633ZM182.191 86.2039C182.142 86.8711 181.814 87.4945 181.289 87.9156C180.42 88.4187 178.566 87.7625 176.564 86.0453C176.334 85.8484 176.105 85.6351 175.87 85.4164C176.706 84.4922 177.477 83.5133 178.177 82.4851C179.43 82.3812 180.677 82.1898 181.907 81.9109C181.962 82.1351 182.011 82.3594 182.055 82.5781C182.323 83.7594 182.366 84.9898 182.191 86.2039V86.2039ZM183.187 80.325C183.034 80.3742 182.88 80.4234 182.722 80.4672C182.339 79.275 181.869 78.1101 181.327 76.9781C181.852 75.8625 182.295 74.714 182.667 73.5383C182.952 73.6203 183.225 73.7078 183.488 73.7953C186.036 74.6703 187.824 75.9719 187.824 76.9672C187.824 78.039 185.916 79.4226 183.187 80.325ZM175 79.5047C176.384 79.5047 177.505 78.3836 177.505 77C177.505 75.6164 176.384 74.4953 175 74.4953C173.616 74.4953 172.495 75.6164 172.495 77C172.495 78.3836 173.616 79.5047 175 79.5047Z" fill="white"/>
</svg>
