<svg width="350" height="233" viewBox="0 0 350 233" fill="none" xmlns="http://www.w3.org/2000/svg">
<rect y="0.721375" width="350" height="232.279" fill="#3D32BF"/>
<path d="M42.2021 118.432C42.2021 119.592 41.7832 120.506 40.9453 121.174C40.1133 121.842 38.9531 122.176 37.4648 122.176C36.0938 122.176 34.8809 121.918 33.8262 121.402V118.871C34.6934 119.258 35.4258 119.53 36.0234 119.688C36.627 119.847 37.1777 119.926 37.6758 119.926C38.2734 119.926 38.7305 119.812 39.0469 119.583C39.3691 119.354 39.5303 119.015 39.5303 118.563C39.5303 118.312 39.46 118.089 39.3193 117.896C39.1787 117.696 38.9707 117.506 38.6953 117.324C38.4258 117.143 37.8721 116.853 37.0342 116.454C36.249 116.085 35.6602 115.73 35.2676 115.391C34.875 115.051 34.5615 114.655 34.3271 114.204C34.0928 113.753 33.9756 113.226 33.9756 112.622C33.9756 111.485 34.3594 110.592 35.127 109.941C35.9004 109.291 36.9668 108.966 38.3262 108.966C38.9941 108.966 39.6299 109.045 40.2334 109.203C40.8428 109.361 41.4785 109.584 42.1406 109.871L41.2617 111.989C40.5762 111.708 40.0078 111.512 39.5566 111.4C39.1113 111.289 38.6719 111.233 38.2383 111.233C37.7227 111.233 37.3271 111.354 37.0518 111.594C36.7764 111.834 36.6387 112.147 36.6387 112.534C36.6387 112.774 36.6943 112.985 36.8057 113.167C36.917 113.343 37.0928 113.516 37.333 113.686C37.5791 113.85 38.1562 114.148 39.0645 114.582C40.2656 115.156 41.0889 115.733 41.5342 116.313C41.9795 116.888 42.2021 117.594 42.2021 118.432ZM50.0283 122H47.3037V111.418H43.8144V109.15H53.5175V111.418H50.0283V122ZM67.6982 115.558C67.6982 117.685 67.1708 119.319 66.1161 120.462C65.0614 121.604 63.5497 122.176 61.581 122.176C59.6122 122.176 58.1005 121.604 57.0458 120.462C55.9911 119.319 55.4638 117.679 55.4638 115.54C55.4638 113.401 55.9911 111.77 57.0458 110.645C58.1064 109.514 59.6239 108.948 61.5986 108.948C63.5732 108.948 65.082 109.517 66.1249 110.653C67.1737 111.79 67.6982 113.425 67.6982 115.558ZM58.3202 115.558C58.3202 116.993 58.5927 118.074 59.1376 118.801C59.6825 119.527 60.497 119.891 61.581 119.891C63.7548 119.891 64.8417 118.446 64.8417 115.558C64.8417 112.663 63.7607 111.216 61.5986 111.216C60.5146 111.216 59.6972 111.582 59.1464 112.314C58.5956 113.041 58.3202 114.122 58.3202 115.558ZM76.3593 111.233C75.3339 111.233 74.5399 111.62 73.9774 112.394C73.4149 113.161 73.1337 114.233 73.1337 115.61C73.1337 118.476 74.2089 119.908 76.3593 119.908C77.2616 119.908 78.3544 119.683 79.6376 119.231V121.517C78.5829 121.956 77.4052 122.176 76.1044 122.176C74.2352 122.176 72.8055 121.61 71.8153 120.479C70.8251 119.343 70.33 117.714 70.33 115.593C70.33 114.257 70.5731 113.088 71.0595 112.086C71.5458 111.078 72.243 110.308 73.1512 109.774C74.0653 109.235 75.1346 108.966 76.3593 108.966C77.6073 108.966 78.8612 109.268 80.121 109.871L79.2421 112.086C78.7616 111.857 78.2782 111.658 77.7919 111.488C77.3055 111.318 76.828 111.233 76.3593 111.233ZM93.2557 122H90.162L86.7957 116.586L85.6444 117.412V122H82.9198V109.15H85.6444V115.03L86.7166 113.519L90.1971 109.15H93.2205L88.7381 114.837L93.2557 122ZM106.069 122L102.975 111.919H102.896C103.008 113.97 103.063 115.338 103.063 116.023V122H100.629V109.15H104.338L107.379 118.977H107.431L110.657 109.15H114.366V122H111.826V115.918C111.826 115.631 111.829 115.3 111.835 114.925C111.846 114.55 111.887 113.554 111.958 111.937H111.879L108.565 122H106.069ZM126.015 122L125.084 118.941H120.399L119.467 122H116.532L121.067 109.098H124.398L128.951 122H126.015ZM124.433 116.656C123.572 113.885 123.086 112.317 122.974 111.954C122.869 111.591 122.793 111.304 122.746 111.093C122.552 111.843 121.999 113.697 121.085 116.656H124.433ZM142.516 122H139.053L133.464 112.279H133.384C133.496 113.996 133.551 115.221 133.551 115.953V122H131.117V109.15H134.553L140.134 118.774H140.196C140.108 117.104 140.064 115.924 140.064 115.232V109.15H142.516V122ZM154.166 122L153.234 118.941H148.549L147.618 122H144.682L149.217 109.098H152.548L157.101 122H154.166ZM152.584 116.656C151.722 113.885 151.236 112.317 151.125 111.954C151.019 111.591 150.943 111.304 150.896 111.093C150.703 111.843 150.149 113.697 149.235 116.656H152.584ZM164.145 114.784H169.243V121.446C168.417 121.716 167.637 121.903 166.905 122.009C166.178 122.12 165.434 122.176 164.672 122.176C162.733 122.176 161.251 121.607 160.225 120.471C159.206 119.328 158.696 117.69 158.696 115.558C158.696 113.483 159.288 111.866 160.471 110.706C161.661 109.546 163.307 108.966 165.411 108.966C166.729 108.966 168.001 109.229 169.225 109.757L168.32 111.937C167.382 111.468 166.407 111.233 165.393 111.233C164.215 111.233 163.272 111.629 162.563 112.42C161.854 113.211 161.5 114.274 161.5 115.61C161.5 117.005 161.784 118.071 162.352 118.81C162.926 119.542 163.758 119.908 164.848 119.908C165.417 119.908 165.994 119.85 166.58 119.732V117.052H164.145V114.784ZM180.251 122H172.85V109.15H180.251V111.383H175.575V114.204H179.925V116.437H175.575V119.75H180.251V122ZM188.92 122L185.827 111.919H185.748C185.859 113.97 185.915 115.338 185.915 116.023V122H183.48V109.15H187.189L190.23 118.977H190.283L193.508 109.15H197.217V122H194.677V115.918C194.677 115.631 194.68 115.3 194.686 114.925C194.698 114.55 194.739 113.554 194.809 111.937H194.73L191.417 122H188.92ZM208.401 122H201V109.15H208.401V111.383H203.725V114.204H208.076V116.437H203.725V119.75H208.401V122ZM223.03 122H219.567L213.977 112.279H213.898C214.009 113.996 214.065 115.221 214.065 115.953V122H211.63V109.15H215.067L220.648 118.774H220.709C220.622 117.104 220.578 115.924 220.578 115.232V109.15H223.03V122ZM231.77 122H229.045V111.418H225.556V109.15H235.259V111.418H231.77V122ZM250.577 118.432C250.577 119.592 250.159 120.506 249.321 121.174C248.489 121.842 247.328 122.176 245.84 122.176C244.469 122.176 243.256 121.918 242.201 121.402V118.871C243.069 119.258 243.801 119.53 244.399 119.688C245.002 119.847 245.553 119.926 246.051 119.926C246.649 119.926 247.106 119.812 247.422 119.583C247.744 119.354 247.906 119.015 247.906 118.563C247.906 118.312 247.835 118.089 247.695 117.896C247.554 117.696 247.346 117.506 247.071 117.324C246.801 117.143 246.247 116.853 245.41 116.454C244.624 116.085 244.035 115.73 243.643 115.391C243.25 115.051 242.937 114.655 242.702 114.204C242.468 113.753 242.351 113.226 242.351 112.622C242.351 111.485 242.735 110.592 243.502 109.941C244.276 109.291 245.342 108.966 246.701 108.966C247.369 108.966 248.005 109.045 248.609 109.203C249.218 109.361 249.854 109.584 250.516 109.871L249.637 111.989C248.951 111.708 248.383 111.512 247.932 111.4C247.487 111.289 247.047 111.233 246.614 111.233C246.098 111.233 245.702 111.354 245.427 111.594C245.152 111.834 245.014 112.147 245.014 112.534C245.014 112.774 245.07 112.985 245.181 113.167C245.292 113.343 245.468 113.516 245.708 113.686C245.954 113.85 246.532 114.148 247.44 114.582C248.641 115.156 249.464 115.733 249.91 116.313C250.355 116.888 250.577 117.594 250.577 118.432ZM257.446 114.441L260.126 109.15H263.062L258.799 116.999V122H256.092V117.087L251.829 109.15H254.783L257.446 114.441ZM272.804 118.432C272.804 119.592 272.385 120.506 271.547 121.174C270.715 121.842 269.555 122.176 268.067 122.176C266.696 122.176 265.483 121.918 264.428 121.402V118.871C265.295 119.258 266.028 119.53 266.625 119.688C267.229 119.847 267.78 119.926 268.278 119.926C268.875 119.926 269.332 119.812 269.649 119.583C269.971 119.354 270.132 119.015 270.132 118.563C270.132 118.312 270.062 118.089 269.921 117.896C269.781 117.696 269.572 117.506 269.297 117.324C269.028 117.143 268.474 116.853 267.636 116.454C266.851 116.085 266.262 115.73 265.869 115.391C265.477 115.051 265.163 114.655 264.929 114.204C264.695 113.753 264.577 113.226 264.577 112.622C264.577 111.485 264.961 110.592 265.729 109.941C266.502 109.291 267.569 108.966 268.928 108.966C269.596 108.966 270.232 109.045 270.835 109.203C271.445 109.361 272.08 109.584 272.742 109.871L271.864 111.989C271.178 111.708 270.61 111.512 270.158 111.4C269.713 111.289 269.274 111.233 268.84 111.233C268.324 111.233 267.929 111.354 267.654 111.594C267.378 111.834 267.24 112.147 267.24 112.534C267.24 112.774 267.296 112.985 267.407 113.167C267.519 113.343 267.695 113.516 267.935 113.686C268.181 113.85 268.758 114.148 269.666 114.582C270.867 115.156 271.691 115.733 272.136 116.313C272.581 116.888 272.804 117.594 272.804 118.432ZM280.63 122H277.905V111.418H274.416V109.15H284.119V111.418H280.63V122ZM294.037 122H286.637V109.15H294.037V111.383H289.361V114.204H293.712V116.437H289.361V119.75H294.037V122ZM302.707 122L299.613 111.919H299.534C299.646 113.97 299.701 115.338 299.701 116.023V122H297.267V109.15H300.976L304.017 118.977H304.069L307.295 109.15H311.004V122H308.464V115.918C308.464 115.631 308.467 115.3 308.473 114.925C308.484 114.55 308.526 113.554 308.596 111.937H308.517L305.203 122H302.707Z" fill="#FEFEFE"/>
<path d="M0 176L14.5833 177.049C29.1667 178.177 58.3333 180.156 87.5 188.667C116.667 197.177 145.833 211.823 175 219.284C204.167 226.667 233.333 226.667 262.5 220.333C291.667 214 320.833 201.333 335.417 195L350 188.667V233H335.417C320.833 233 291.667 233 262.5 233C233.333 233 204.167 233 175 233C145.833 233 116.667 233 87.5 233C58.3333 233 29.1667 233 14.5833 233H0V176Z" fill="#6C59BC"/>
<g clip-path="url(#clip0)">
<path d="M188.165 65.1881H175.952L184.086 73.5217C184.397 73.8402 184.908 73.8661 185.228 73.5576C187.22 71.6349 188.59 69.043 188.992 66.1294C189.061 65.6305 188.657 65.1881 188.165 65.1881ZM187.351 61.7709C186.926 55.4713 182.013 50.4372 175.864 50.0027C175.395 49.9695 175 50.375 175 50.857V62.6568H186.517C186.988 62.6568 187.383 62.2518 187.351 61.7709ZM172.529 65.1881V52.6748C172.529 52.1711 172.097 51.7572 171.611 51.8278C165.477 52.7159 160.789 58.2061 161.007 64.7857C161.231 71.5431 166.91 77.0844 173.509 76.9995C176.103 76.9663 178.5 76.1099 180.47 74.6776C180.877 74.3823 180.904 73.769 180.551 73.4078L172.529 65.1881Z" fill="white"/>
</g>
<defs>
<clipPath id="clip0">
<rect width="28" height="27" fill="white" transform="translate(161 50)"/>
</clipPath>
</defs>
</svg>
