<svg width="350" height="233" viewBox="0 0 350 233" fill="none" xmlns="http://www.w3.org/2000/svg">
<rect y="0.721375" width="350" height="232.279" fill="#3D32BF"/>
<path d="M58.2803 115.558C58.2803 117.685 57.7529 119.319 56.6982 120.462C55.6436 121.604 54.1318 122.176 52.1631 122.176C50.1943 122.176 48.6826 121.604 47.6279 120.462C46.5732 119.319 46.0459 117.679 46.0459 115.54C46.0459 113.401 46.5732 111.77 47.6279 110.645C48.6885 109.514 50.2061 108.948 52.1807 108.948C54.1553 108.948 55.6641 109.517 56.707 110.653C57.7559 111.79 58.2803 113.425 58.2803 115.558ZM48.9023 115.558C48.9023 116.993 49.1748 118.074 49.7197 118.801C50.2646 119.527 51.0791 119.891 52.1631 119.891C54.3369 119.891 55.4238 118.446 55.4238 115.558C55.4238 112.663 54.3428 111.216 52.1807 111.216C51.0967 111.216 50.2793 111.582 49.7285 112.314C49.1777 113.041 48.9023 114.122 48.9023 115.558ZM64.208 115.197H65.1045C65.9423 115.197 66.5693 115.033 66.9853 114.705C67.4013 114.371 67.6093 113.888 67.6093 113.255C67.6093 112.616 67.4336 112.145 67.082 111.84C66.7363 111.535 66.1914 111.383 65.4472 111.383H64.208V115.197ZM70.3603 113.158C70.3603 114.541 69.9267 115.599 69.0595 116.331C68.1982 117.063 66.9707 117.43 65.3769 117.43H64.208V122H61.4834V109.15H65.5879C67.1464 109.15 68.33 109.487 69.1386 110.161C69.9531 110.829 70.3603 111.828 70.3603 113.158ZM80.7265 122H73.3261V109.15H80.7265V111.383H76.0507V114.204H80.4013V116.437H76.0507V119.75H80.7265V122ZM95.3554 122H91.8925L86.3026 112.279H86.2235C86.3348 113.996 86.3905 115.221 86.3905 115.953V122H83.9559V109.15H87.3925L92.9735 118.774H93.035C92.9471 117.104 92.9032 115.924 92.9032 115.232V109.15H95.3554V122ZM115.015 115.452C115.015 117.567 114.412 119.188 113.205 120.312C112.004 121.438 110.266 122 107.993 122H104.354V109.15H108.388C110.486 109.15 112.115 109.704 113.275 110.812C114.435 111.919 115.015 113.466 115.015 115.452ZM112.185 115.522C112.185 112.763 110.967 111.383 108.529 111.383H107.079V119.75H108.248C110.873 119.75 112.185 118.341 112.185 115.522ZM118.219 109.15H122.218C124.04 109.15 125.361 109.411 126.181 109.933C127.008 110.448 127.421 111.271 127.421 112.402C127.421 113.17 127.239 113.8 126.876 114.292C126.518 114.784 126.041 115.08 125.443 115.18V115.268C126.258 115.449 126.844 115.789 127.201 116.287C127.564 116.785 127.746 117.447 127.746 118.273C127.746 119.445 127.321 120.359 126.471 121.016C125.628 121.672 124.479 122 123.026 122H118.219V109.15ZM120.943 114.239H122.525C123.263 114.239 123.797 114.125 124.125 113.896C124.459 113.668 124.626 113.29 124.626 112.763C124.626 112.271 124.444 111.919 124.081 111.708C123.723 111.491 123.155 111.383 122.376 111.383H120.943V114.239ZM120.943 116.401V119.75H122.719C123.469 119.75 124.022 119.606 124.38 119.319C124.737 119.032 124.916 118.593 124.916 118.001C124.916 116.935 124.154 116.401 122.631 116.401H120.943ZM143.653 118.432C143.653 119.592 143.234 120.506 142.396 121.174C141.564 121.842 140.404 122.176 138.916 122.176C137.545 122.176 136.332 121.918 135.277 121.402V118.871C136.144 119.258 136.877 119.53 137.474 119.688C138.078 119.847 138.629 119.926 139.127 119.926C139.724 119.926 140.181 119.812 140.498 119.583C140.82 119.354 140.981 119.015 140.981 118.563C140.981 118.312 140.911 118.089 140.77 117.896C140.63 117.696 140.422 117.506 140.146 117.324C139.877 117.143 139.323 116.853 138.485 116.454C137.7 116.085 137.111 115.73 136.718 115.391C136.326 115.051 136.012 114.655 135.778 114.204C135.544 113.753 135.426 113.226 135.426 112.622C135.426 111.485 135.81 110.592 136.578 109.941C137.351 109.291 138.418 108.966 139.777 108.966C140.445 108.966 141.081 109.045 141.684 109.203C142.294 109.361 142.929 109.584 143.591 109.871L142.713 111.989C142.027 111.708 141.459 111.512 141.007 111.4C140.562 111.289 140.123 111.233 139.689 111.233C139.174 111.233 138.778 111.354 138.503 111.594C138.227 111.834 138.09 112.147 138.09 112.534C138.09 112.774 138.145 112.985 138.257 113.167C138.368 113.343 138.544 113.516 138.784 113.686C139.03 113.85 139.607 114.148 140.515 114.582C141.716 115.156 142.54 115.733 142.985 116.313C143.43 116.888 143.653 117.594 143.653 118.432ZM158.185 115.558C158.185 117.685 157.658 119.319 156.603 120.462C155.548 121.604 154.037 122.176 152.068 122.176C150.099 122.176 148.588 121.604 147.533 120.462C146.478 119.319 145.951 117.679 145.951 115.54C145.951 113.401 146.478 111.77 147.533 110.645C148.593 109.514 150.111 108.948 152.086 108.948C154.06 108.948 155.569 109.517 156.612 110.653C157.661 111.79 158.185 113.425 158.185 115.558ZM148.807 115.558C148.807 116.993 149.08 118.074 149.625 118.801C150.17 119.527 150.984 119.891 152.068 119.891C154.242 119.891 155.329 118.446 155.329 115.558C155.329 112.663 154.248 111.216 152.086 111.216C151.002 111.216 150.184 111.582 149.633 112.314C149.083 113.041 148.807 114.122 148.807 115.558ZM164.113 114.854H164.992C165.853 114.854 166.489 114.711 166.899 114.424C167.309 114.137 167.514 113.686 167.514 113.07C167.514 112.461 167.303 112.027 166.881 111.77C166.465 111.512 165.818 111.383 164.939 111.383H164.113V114.854ZM164.113 117.069V122H161.388V109.15H165.132C166.879 109.15 168.171 109.47 169.008 110.108C169.846 110.741 170.265 111.705 170.265 113C170.265 113.756 170.057 114.43 169.641 115.021C169.225 115.607 168.636 116.067 167.875 116.401C169.808 119.29 171.068 121.156 171.654 122H168.63L165.563 117.069H164.113ZM178.768 122H176.044V111.418H172.554V109.15H182.257V111.418H178.768V122ZM197.857 122L196.925 118.941H192.241L191.309 122H188.374L192.909 109.098H196.24L200.792 122H197.857ZM196.275 116.656C195.414 113.885 194.927 112.317 194.816 111.954C194.71 111.591 194.634 111.304 194.587 111.093C194.394 111.843 193.84 113.697 192.926 116.656H196.275ZM202.958 122V109.15H205.683V119.75H210.895V122H202.958ZM218.554 114.784H223.652V121.446C222.826 121.716 222.046 121.903 221.314 122.009C220.587 122.12 219.843 122.176 219.081 122.176C217.142 122.176 215.66 121.607 214.634 120.471C213.615 119.328 213.105 117.69 213.105 115.558C213.105 113.483 213.697 111.866 214.88 110.706C216.07 109.546 217.716 108.966 219.82 108.966C221.138 108.966 222.41 109.229 223.634 109.757L222.729 111.937C221.791 111.468 220.816 111.233 219.802 111.233C218.624 111.233 217.681 111.629 216.972 112.42C216.263 113.211 215.909 114.274 215.909 115.61C215.909 117.005 216.193 118.071 216.761 118.81C217.335 119.542 218.167 119.908 219.257 119.908C219.826 119.908 220.403 119.85 220.989 119.732V117.052H218.554V114.784ZM238.922 115.558C238.922 117.685 238.395 119.319 237.34 120.462C236.286 121.604 234.774 122.176 232.805 122.176C230.836 122.176 229.325 121.604 228.27 120.462C227.215 119.319 226.688 117.679 226.688 115.54C226.688 113.401 227.215 111.77 228.27 110.645C229.33 109.514 230.848 108.948 232.823 108.948C234.797 108.948 236.306 109.517 237.349 110.653C238.398 111.79 238.922 113.425 238.922 115.558ZM229.544 115.558C229.544 116.993 229.817 118.074 230.362 118.801C230.907 119.527 231.721 119.891 232.805 119.891C234.979 119.891 236.066 118.446 236.066 115.558C236.066 112.663 234.985 111.216 232.823 111.216C231.739 111.216 230.921 111.582 230.37 112.314C229.82 113.041 229.544 114.122 229.544 115.558ZM244.85 114.854H245.729C246.59 114.854 247.226 114.711 247.636 114.424C248.046 114.137 248.251 113.686 248.251 113.07C248.251 112.461 248.04 112.027 247.618 111.77C247.202 111.512 246.555 111.383 245.676 111.383H244.85V114.854ZM244.85 117.069V122H242.125V109.15H245.869C247.616 109.15 248.908 109.47 249.745 110.108C250.583 110.741 251.002 111.705 251.002 113C251.002 113.756 250.794 114.43 250.378 115.021C249.962 115.607 249.373 116.067 248.612 116.401C250.545 119.29 251.805 121.156 252.391 122H249.368L246.3 117.069H244.85ZM254.548 122V109.15H257.273V122H254.548ZM266.004 122H263.28V111.418H259.79V109.15H269.493V111.418H266.004V122ZM282.54 122H279.824V116.454H274.736V122H272.011V109.15H274.736V114.187H279.824V109.15H282.54V122ZM291.773 122L288.679 111.919H288.6C288.711 113.97 288.767 115.338 288.767 116.023V122H286.332V109.15H290.041L293.082 118.977H293.135L296.361 109.15H300.069V122H297.529V115.918C297.529 115.631 297.532 115.3 297.538 114.925C297.55 114.55 297.591 113.554 297.661 111.937H297.582L294.269 122H291.773Z" fill="#FEFEFE"/>
<path d="M0 176L14.5833 177.049C29.1667 178.177 58.3333 180.156 87.5 188.667C116.667 197.177 145.833 211.823 175 219.284C204.167 226.667 233.333 226.667 262.5 220.333C291.667 214 320.833 201.333 335.417 195L350 188.667V233H335.417C320.833 233 291.667 233 262.5 233C233.333 233 204.167 233 175 233C145.833 233 116.667 233 87.5 233C58.3333 233 29.1667 233 14.5833 233H0V176Z" fill="#6C59BC"/>
<path d="M127.227 67.8305C127.121 67.6108 126.898 67.4711 126.654 67.4711C126.654 67.4711 126.653 67.4711 126.653 67.4711L125.889 67.4727C125.645 67.4732 125.422 67.6138 125.317 67.8345L119.062 80.9471C118.968 81.144 118.982 81.3752 119.098 81.5596C119.214 81.7441 119.417 81.856 119.635 81.856H120.574C120.819 81.856 121.042 81.7152 121.147 81.4942L122.784 78.0629H129.809L131.465 81.4966C131.571 81.7164 131.793 81.8561 132.037 81.8561H132.978C132.978 81.8561 132.979 81.8561 132.979 81.8561C133.33 81.8561 133.615 81.5716 133.615 81.2207C133.615 81.1056 133.584 80.9976 133.531 80.9044L127.227 67.8305ZM123.795 75.9451L126.278 70.7392L128.788 75.9451H123.795Z" fill="white"/>
<path d="M153.933 68.1751L153.595 67.4962C153.488 67.2804 153.268 67.144 153.027 67.144H143.543C143.192 67.144 142.908 67.4285 142.908 67.7794V68.6265C142.908 68.9774 143.192 69.2619 143.543 69.2619H150.911L142.803 80.1481C142.66 80.3402 142.637 80.5964 142.744 80.8107L143.082 81.4897C143.19 81.7055 143.41 81.8419 143.651 81.8419H153.081C153.432 81.8419 153.716 81.5574 153.716 81.2065V80.3594C153.716 80.0085 153.432 79.724 153.081 79.724H145.767L153.874 68.8377C154.017 68.6457 154.04 68.3895 153.933 68.1751Z" fill="white"/>
<path d="M142.027 75.8576L141.36 75.3353C141.227 75.2315 141.059 75.1845 140.891 75.2049C140.724 75.2253 140.572 75.3112 140.468 75.4439L138.923 77.4165V67.7795C138.923 67.4286 138.639 67.1441 138.288 67.1441H137.441C137.09 67.1441 136.805 67.4286 136.805 67.7795V77.4165L135.261 75.4439C135.157 75.3113 135.005 75.2253 134.837 75.2049C134.67 75.1845 134.502 75.2315 134.369 75.3353L133.702 75.8576C133.426 76.0739 133.377 76.4732 133.594 76.7495L137.364 81.5652C137.485 81.719 137.669 81.8088 137.864 81.8088C138.06 81.8088 138.244 81.7189 138.365 81.5652L142.135 76.7495C142.351 76.4732 142.303 76.0739 142.027 75.8576Z" fill="white"/>
<path d="M174.429 74.0625H171.857V71.25C171.857 70.9049 171.601 70.625 171.286 70.625H170.714C170.399 70.625 170.143 70.9049 170.143 71.25V74.0625H167.571C167.256 74.0625 167 74.3424 167 74.6875V75.3125C167 75.6576 167.256 75.9375 167.571 75.9375H170.143V78.75C170.143 79.0951 170.399 79.375 170.714 79.375H171.286C171.601 79.375 171.857 79.0951 171.857 78.75V75.9375H174.429C174.744 75.9375 175 75.6576 175 75.3125V74.6875C175 74.3424 174.744 74.0625 174.429 74.0625Z" fill="white"/>
<path d="M215.87 70.6906C215.575 70.5922 215.28 70.4992 214.984 70.4117C215.034 70.2094 215.077 70.007 215.121 69.8047C215.794 66.5453 215.351 63.9258 213.858 63.0617C212.42 62.2359 210.073 63.0945 207.7 65.1617C207.465 65.364 207.235 65.5773 207.016 65.7906C206.869 65.6484 206.716 65.5062 206.562 65.3695C204.074 63.1601 201.58 62.2305 200.088 63.1C198.655 63.9312 198.228 66.3976 198.83 69.482C198.89 69.7883 198.955 70.089 199.032 70.3953C198.682 70.4937 198.337 70.6031 198.015 70.718C195.095 71.7297 193 73.3265 193 74.9781C193 76.6844 195.231 78.3961 198.266 79.4351C198.513 79.5172 198.759 79.5992 199.01 79.6703C198.928 79.9984 198.857 80.3211 198.791 80.6547C198.217 83.6898 198.666 86.0961 200.098 86.9219C201.575 87.775 204.058 86.9 206.475 84.7836C206.666 84.614 206.858 84.4391 207.049 84.2531C207.29 84.4883 207.541 84.7125 207.793 84.9312C210.134 86.9437 212.447 87.7586 213.874 86.9328C215.351 86.0797 215.832 83.493 215.209 80.343C215.159 80.1023 215.105 79.8562 215.045 79.6047C215.22 79.5555 215.389 79.5008 215.559 79.4461C218.714 78.4015 221 76.7117 221 74.9781C221 73.3211 218.845 71.7133 215.87 70.6906ZM208.471 66.0476C210.505 64.2758 212.403 63.5812 213.267 64.0789C214.191 64.6094 214.547 66.7531 213.967 69.5695C213.929 69.7555 213.891 69.9359 213.841 70.1164C212.627 69.843 211.397 69.6461 210.161 69.5367C209.45 68.5195 208.673 67.5461 207.831 66.6328C208.045 66.4305 208.252 66.2391 208.471 66.0476ZM202.144 77.8164C202.423 78.2922 202.707 78.768 203.008 79.2328C202.155 79.1398 201.307 79.0031 200.47 78.8226C200.711 78.0351 201.012 77.2203 201.362 76.389C201.613 76.8703 201.87 77.3461 202.144 77.8164ZM200.487 71.2375C201.274 71.0625 202.111 70.9203 202.98 70.8109C202.691 71.2648 202.406 71.7297 202.138 72.2C201.87 72.6648 201.608 73.1406 201.362 73.6219C201.017 72.807 200.727 72.0086 200.487 71.2375ZM201.985 75.0055C202.346 74.2508 202.74 73.5125 203.155 72.7851C203.571 72.0578 204.02 71.3523 204.49 70.6578C205.31 70.5976 206.147 70.5648 207 70.5648C207.853 70.5648 208.695 70.5976 209.51 70.6578C209.975 71.3469 210.418 72.0523 210.839 72.7742C211.26 73.4961 211.654 74.2344 212.026 74.9836C211.659 75.7383 211.266 76.482 210.845 77.2148C210.429 77.9422 209.986 78.6476 209.521 79.3476C208.706 79.4078 207.859 79.4351 207 79.4351C206.141 79.4351 205.31 79.4078 204.506 79.3586C204.03 78.6641 203.582 77.9531 203.161 77.2258C202.74 76.4984 202.352 75.7601 201.985 75.0055ZM211.862 77.8055C212.141 77.3242 212.403 76.8375 212.66 76.3453C213.01 77.1383 213.316 77.9422 213.584 78.768C212.737 78.9594 211.878 79.107 211.014 79.2055C211.309 78.7461 211.588 78.2758 211.862 77.8055ZM212.649 73.6219C212.392 73.1406 212.13 72.6594 211.856 72.189C211.588 71.7242 211.309 71.2648 211.02 70.8109C211.9 70.9203 212.742 71.068 213.53 71.2484C213.278 72.0578 212.983 72.8453 212.649 73.6219ZM207.011 67.4695C207.585 68.093 208.127 68.7492 208.63 69.4273C207.547 69.3781 206.459 69.3781 205.376 69.4273C205.912 68.7219 206.464 68.0656 207.011 67.4695ZM200.667 64.1172C201.586 63.5812 203.626 64.3469 205.775 66.25C205.912 66.3703 206.048 66.5015 206.191 66.6328C205.343 67.5461 204.561 68.5195 203.845 69.5367C202.609 69.6461 201.384 69.8375 200.17 70.1055C200.098 69.8265 200.038 69.5422 199.978 69.2578C199.464 66.6109 199.803 64.6148 200.667 64.1172ZM199.327 78.5328C199.098 78.4672 198.873 78.3961 198.649 78.3195C197.484 77.9531 196.161 77.3734 195.204 76.6133C194.652 76.2305 194.28 75.6398 194.176 74.9781C194.176 73.9773 195.904 72.6976 198.398 71.8281C198.709 71.7187 199.027 71.6203 199.344 71.5273C199.716 72.714 200.164 73.8789 200.684 75.0055C200.159 76.1484 199.705 77.3297 199.327 78.5328ZM205.704 83.8922C204.802 84.718 203.757 85.3742 202.62 85.8226C202.012 86.1125 201.312 86.1398 200.689 85.8937C199.82 85.3906 199.459 83.4601 199.951 80.8625C200.011 80.5562 200.077 80.25 200.153 79.9492C201.378 80.2117 202.614 80.3922 203.866 80.4851C204.588 81.5078 205.381 82.4867 206.229 83.4055C206.054 83.575 205.879 83.739 205.704 83.8922ZM207.044 82.5633C206.486 81.9617 205.928 81.2945 205.387 80.5781C205.912 80.6 206.453 80.6109 207 80.6109C207.563 80.6109 208.116 80.6 208.662 80.5726C208.159 81.2672 207.618 81.9289 207.044 82.5633ZM214.191 84.2039C214.142 84.8711 213.814 85.4945 213.289 85.9156C212.42 86.4187 210.566 85.7625 208.564 84.0453C208.334 83.8484 208.105 83.6351 207.87 83.4164C208.706 82.4922 209.477 81.5133 210.177 80.4851C211.43 80.3812 212.677 80.1898 213.907 79.9109C213.962 80.1351 214.011 80.3594 214.055 80.5781C214.323 81.7594 214.366 82.9898 214.191 84.2039ZM215.187 78.325C215.034 78.3742 214.88 78.4234 214.722 78.4672C214.339 77.275 213.869 76.1101 213.327 74.9781C213.852 73.8625 214.295 72.714 214.667 71.5383C214.952 71.6203 215.225 71.7078 215.488 71.7953C218.036 72.6703 219.824 73.9719 219.824 74.9672C219.824 76.039 217.916 77.4226 215.187 78.325ZM207 77.5047C208.384 77.5047 209.505 76.3836 209.505 75C209.505 73.6164 208.384 72.4953 207 72.4953C205.616 72.4953 204.495 73.6164 204.495 75C204.495 76.3836 205.616 77.5047 207 77.5047Z" fill="white"/>
</svg>
