<svg width="350" height="233" viewBox="0 0 350 233" fill="none" xmlns="http://www.w3.org/2000/svg">
<rect y="0.721375" width="350" height="232.279" fill="#007BFF"/>
<g clip-path="url(#clip0)">
<path d="M183.885 79.6666H178.551C178.183 79.6666 177.885 79.9646 177.885 80.3333C177.885 80.702 178.183 81 178.551 81H183.885C184.253 81 184.551 80.702 184.551 80.3333C184.551 79.9646 184.253 79.6666 183.885 79.6666Z" fill="white"/>
<path d="M175.319 73.6479C175.442 73.7573 175.6 73.8166 175.762 73.8166C175.796 73.8166 175.83 73.8139 175.863 73.8086C176.06 73.7786 176.233 73.6619 176.334 73.4913L178.022 70.6773C178.131 70.4966 178.148 70.2746 178.067 70.0786C177.987 69.8833 177.818 69.7373 177.612 69.6866L170.853 67.9966C170.557 67.9206 170.245 68.0606 170.101 68.3319C169.958 68.6033 170.019 68.9373 170.249 69.1413L175.319 73.6479ZM176.415 70.7613L175.603 72.1159L173.165 69.9486L176.415 70.7613Z" fill="white"/>
<path d="M183.935 70.0786C183.854 70.2746 183.871 70.4966 183.98 70.6773L185.669 73.4913C185.771 73.6619 185.943 73.7786 186.139 73.8086C186.173 73.8139 186.207 73.8166 186.241 73.8166C186.403 73.8166 186.561 73.7573 186.683 73.6479L191.753 69.1413C191.983 68.9373 192.043 68.6033 191.899 68.3319C191.756 68.0606 191.444 67.9199 191.149 67.9966L184.389 69.6866C184.184 69.7379 184.015 69.8833 183.935 70.0786ZM188.839 69.9486L186.401 72.1166L185.589 70.7613L188.839 69.9486Z" fill="white"/>
<path d="M192.5 51.41C192.379 51.1186 192.074 50.952 191.759 51.0113C191.449 51.0713 191.223 51.34 191.218 51.656C191.169 54.7393 190.805 57.196 190.263 59.1646C187.614 56.9093 184.292 55.6666 180.785 55.6666C177.457 55.6666 174.261 56.808 171.665 58.8813C171.165 56.9613 170.833 54.594 170.785 51.656C170.78 51.3406 170.554 51.072 170.244 51.012C169.928 50.9526 169.624 51.1193 169.503 51.4106C169.284 51.936 164.78 62.8886 166.149 69.6853L166.141 69.8246C166.129 69.9933 166.119 70.162 166.119 70.3333C166.119 78.4206 172.698 85 180.785 85C188.536 85 194.933 78.9593 195.403 71.2293C197.97 64.7093 192.737 51.978 192.5 51.41ZM193.38 74.2906C192.117 77.684 190.011 79.702 188.785 80.5473V77.3533L193.38 74.2906ZM192.373 54.9193C193.869 59.3413 196.102 67.5146 193.807 71.4893C193.709 71.658 193.607 71.82 193.495 71.9686C193.494 71.97 193.493 71.972 193.492 71.9733C193.37 72.136 193.238 72.2866 193.098 72.426C193.084 72.44 193.069 72.4513 193.055 72.4653C192.933 72.5833 192.805 72.6926 192.669 72.794C192.632 72.822 192.593 72.8466 192.555 72.8726C192.437 72.954 192.315 73.03 192.189 73.0993C192.14 73.126 192.09 73.1513 192.039 73.176C191.915 73.2373 191.786 73.2926 191.653 73.3433C191.597 73.3646 191.542 73.3866 191.484 73.406C191.344 73.4533 191.198 73.4926 191.049 73.528C190.993 73.5413 190.94 73.5573 190.883 73.5693C190.677 73.6126 190.463 73.6473 190.238 73.67C189.281 73.7666 188.419 73.86 187.544 74.0353L183.64 74.816C183.498 74.8426 183.396 74.782 183.347 74.7426C183.299 74.7033 183.219 74.616 183.219 74.4713V68.6593C183.219 68.4853 183.341 68.3406 183.444 68.322C183.451 68.322 183.466 68.3206 183.485 68.3193C183.497 68.3186 183.513 68.3166 183.528 68.3153C183.533 68.3146 183.537 68.3146 183.543 68.314C184.474 68.2253 191.169 67.1673 192.373 54.9193ZM180.785 57C184.155 57 187.345 58.2506 189.815 60.5313C187.593 66.6513 183.545 66.9793 183.31 66.996C183.277 67.0006 183.247 67.0126 183.215 67.0193C182.44 67.1813 181.885 67.8526 181.885 68.6586V74.4706C181.885 74.5973 181.899 74.722 181.927 74.8426C181.93 74.8573 181.937 74.8706 181.941 74.8853C181.956 74.942 181.978 74.9953 181.998 75.05L181.058 76.2753L180.057 74.9033C180.063 74.8826 180.073 74.864 180.078 74.8426C180.105 74.722 180.119 74.5973 180.119 74.4706V68.6586C180.119 67.854 179.566 67.1846 178.739 67.0153C178.703 67.008 178.669 66.996 178.632 66.99C178.452 66.978 174.284 66.642 172.087 60.2493C174.514 58.1513 177.587 57 180.785 57ZM169.631 54.9206C170.835 67.1733 177.533 68.2266 178.405 68.308C178.409 68.3086 178.413 68.3086 178.417 68.3093C178.433 68.3106 178.447 68.312 178.459 68.3126C178.476 68.314 178.489 68.3146 178.495 68.3146C178.663 68.34 178.786 68.4846 178.786 68.6586V74.4706C178.786 74.6153 178.705 74.7033 178.657 74.742C178.647 74.7506 178.624 74.76 178.609 74.7693C178.553 74.8033 178.474 74.8373 178.365 74.8153L174.461 74.0346C173.586 73.8593 172.724 73.766 171.768 73.6693C171.503 73.6426 171.253 73.5966 171.011 73.5413C170.959 73.5293 170.907 73.516 170.855 73.5026C170.369 73.3746 169.929 73.188 169.543 72.9353C169.527 72.9253 169.512 72.914 169.497 72.9033C169.099 72.6353 168.753 72.3006 168.461 71.8953C168.454 71.8866 168.448 71.8766 168.442 71.8673C168.324 71.7006 168.219 71.5166 168.119 71.3266C168.07 71.236 168.025 71.142 167.981 71.0466C167.898 70.8673 167.819 70.6826 167.75 70.4846C167.729 70.4253 167.71 70.3646 167.691 70.304C167.61 70.0506 167.535 69.788 167.475 69.506C166.545 65.2113 168.353 58.7 169.631 54.9206ZM172.785 80.5473C171.559 79.7026 169.454 77.6853 168.191 74.294L172.785 77.3533V80.5473ZM173.952 81.7693C174.055 81.6166 174.118 81.4373 174.118 81.2453V77.142C174.118 76.8353 173.967 76.5473 173.705 76.3646L171.655 75C172.566 75.092 173.389 75.1813 174.199 75.3433L178.103 76.124C178.213 76.146 178.325 76.1573 178.436 76.1573C178.443 76.1573 178.451 76.1553 178.458 76.1553C178.485 76.1553 178.512 76.15 178.539 76.1486C178.625 76.1433 178.709 76.1326 178.792 76.1146C178.829 76.1066 178.864 76.0966 178.899 76.0866C178.976 76.0646 179.051 76.036 179.124 76.0033C179.145 75.994 179.168 75.9893 179.189 75.9786L180.504 77.7833C180.628 77.9533 180.824 78.0546 181.035 78.0573C181.037 78.0573 181.04 78.0573 181.043 78.0573C181.25 78.0573 181.445 77.9606 181.571 77.796L182.929 76.0266C182.986 76.0506 183.045 76.07 183.105 76.0873C183.139 76.0973 183.174 76.1073 183.209 76.1146C183.293 76.1333 183.379 76.144 183.465 76.1493C183.492 76.1513 183.518 76.156 183.545 76.156C183.553 76.156 183.56 76.158 183.567 76.158C183.678 76.158 183.79 76.1466 183.901 76.1246L187.805 75.344C188.453 75.214 189.122 75.1333 189.827 75.0586L187.853 76.3733C187.602 76.5486 187.451 76.836 187.451 77.1426V81.246C187.451 81.438 187.514 81.6166 187.617 81.7693C185.615 82.9693 183.28 83.6666 180.785 83.6666C178.287 83.6666 175.953 82.9693 173.952 81.7693Z" fill="white"/>
</g>
<path d="M84.2021 120.432C84.2021 121.592 83.7832 122.506 82.9453 123.174C82.1133 123.842 80.9531 124.176 79.4648 124.176C78.0938 124.176 76.8809 123.918 75.8262 123.402V120.871C76.6934 121.258 77.4258 121.53 78.0234 121.688C78.627 121.847 79.1777 121.926 79.6758 121.926C80.2734 121.926 80.7305 121.812 81.0469 121.583C81.3691 121.354 81.5303 121.015 81.5303 120.563C81.5303 120.312 81.46 120.089 81.3193 119.896C81.1787 119.696 80.9707 119.506 80.6953 119.324C80.4258 119.143 79.8721 118.853 79.0342 118.454C78.249 118.085 77.6602 117.73 77.2676 117.391C76.875 117.051 76.5615 116.655 76.3271 116.204C76.0928 115.753 75.9756 115.226 75.9756 114.622C75.9756 113.485 76.3594 112.592 77.127 111.941C77.9004 111.291 78.9668 110.966 80.3262 110.966C80.9941 110.966 81.6299 111.045 82.2334 111.203C82.8428 111.361 83.4785 111.584 84.1406 111.871L83.2617 113.989C82.5762 113.708 82.0078 113.512 81.5566 113.4C81.1113 113.289 80.6719 113.233 80.2383 113.233C79.7227 113.233 79.3271 113.354 79.0518 113.594C78.7764 113.834 78.6387 114.147 78.6387 114.534C78.6387 114.774 78.6943 114.985 78.8057 115.167C78.917 115.343 79.0928 115.516 79.333 115.686C79.5791 115.85 80.1562 116.148 81.0645 116.582C82.2656 117.156 83.0889 117.733 83.5342 118.313C83.9795 118.888 84.2021 119.594 84.2021 120.432ZM97.5302 111.15V119.465C97.5302 120.414 97.3164 121.246 96.8886 121.961C96.4668 122.676 95.8545 123.224 95.0517 123.604C94.249 123.985 93.2998 124.176 92.2041 124.176C90.5517 124.176 89.2685 123.754 88.3545 122.91C87.4404 122.061 86.9834 120.9 86.9834 119.43V111.15H89.6992V119.017C89.6992 120.007 89.8984 120.733 90.2968 121.196C90.6953 121.659 91.3545 121.891 92.2744 121.891C93.165 121.891 93.8095 121.659 94.208 121.196C94.6123 120.728 94.8144 119.995 94.8144 118.999V111.15H97.5302ZM103.941 117.197H104.838C105.676 117.197 106.303 117.033 106.719 116.705C107.135 116.371 107.343 115.888 107.343 115.255C107.343 114.616 107.167 114.145 106.815 113.84C106.47 113.535 105.925 113.383 105.181 113.383H103.941V117.197ZM110.094 115.158C110.094 116.541 109.66 117.599 108.793 118.331C107.932 119.063 106.704 119.43 105.11 119.43H103.941V124H101.217V111.15H105.321C106.88 111.15 108.063 111.487 108.872 112.161C109.686 112.829 110.094 113.828 110.094 115.158ZM120.46 124H113.059V111.15H120.46V113.383H115.784V116.204H120.135V118.437H115.784V121.75H120.46V124ZM126.414 116.854H127.293C128.154 116.854 128.79 116.711 129.2 116.424C129.61 116.137 129.815 115.686 129.815 115.07C129.815 114.461 129.604 114.027 129.182 113.77C128.766 113.512 128.119 113.383 127.24 113.383H126.414V116.854ZM126.414 119.069V124H123.689V111.15H127.433C129.18 111.15 130.472 111.47 131.309 112.108C132.147 112.741 132.566 113.705 132.566 115C132.566 115.756 132.358 116.43 131.942 117.021C131.526 117.607 130.937 118.067 130.176 118.401C132.109 121.29 133.369 123.156 133.955 124H130.931L127.864 119.069H126.414ZM151.857 124H149.141V118.454H144.052V124H141.328V111.15H144.052V116.187H149.141V111.15H151.857V124ZM163.05 124H155.649V111.15H163.05V113.383H158.374V116.204H162.724V118.437H158.374V121.75H163.05V124ZM169.004 116.854H169.882C170.744 116.854 171.38 116.711 171.79 116.424C172.2 116.137 172.405 115.686 172.405 115.07C172.405 114.461 172.194 114.027 171.772 113.77C171.356 113.512 170.709 113.383 169.83 113.383H169.004V116.854ZM169.004 119.069V124H166.279V111.15H170.023C171.769 111.15 173.061 111.47 173.899 112.108C174.737 112.741 175.156 113.705 175.156 115C175.156 115.756 174.948 116.43 174.532 117.021C174.116 117.607 173.527 118.067 172.765 118.401C174.699 121.29 175.959 123.156 176.545 124H173.521L170.454 119.069H169.004ZM190.365 117.558C190.365 119.685 189.838 121.319 188.783 122.462C187.728 123.604 186.216 124.176 184.248 124.176C182.279 124.176 180.767 123.604 179.713 122.462C178.658 121.319 178.131 119.679 178.131 117.54C178.131 115.401 178.658 113.77 179.713 112.645C180.773 111.514 182.291 110.948 184.265 110.948C186.24 110.948 187.749 111.517 188.792 112.653C189.84 113.79 190.365 115.425 190.365 117.558ZM180.987 117.558C180.987 118.993 181.259 120.074 181.804 120.801C182.349 121.527 183.164 121.891 184.248 121.891C186.422 121.891 187.508 120.446 187.508 117.558C187.508 114.663 186.427 113.216 184.265 113.216C183.181 113.216 182.364 113.582 181.813 114.314C181.262 115.041 180.987 116.122 180.987 117.558ZM198.784 111.15H202.783C204.605 111.15 205.926 111.411 206.747 111.933C207.573 112.448 207.986 113.271 207.986 114.402C207.986 115.17 207.804 115.8 207.441 116.292C207.084 116.784 206.606 117.08 206.008 117.18V117.268C206.823 117.449 207.409 117.789 207.766 118.287C208.129 118.785 208.311 119.447 208.311 120.273C208.311 121.445 207.886 122.359 207.037 123.016C206.193 123.672 205.044 124 203.591 124H198.784V111.15ZM201.508 116.239H203.09C203.829 116.239 204.362 116.125 204.69 115.896C205.024 115.668 205.191 115.29 205.191 114.763C205.191 114.271 205.009 113.919 204.646 113.708C204.289 113.491 203.72 113.383 202.941 113.383H201.508V116.239ZM201.508 118.401V121.75H203.284C204.034 121.75 204.587 121.606 204.945 121.319C205.302 121.032 205.481 120.593 205.481 120.001C205.481 118.935 204.719 118.401 203.196 118.401H201.508ZM219.284 124L218.352 120.941H213.667L212.736 124H209.8L214.335 111.098H217.667L222.219 124H219.284ZM217.702 118.656C216.84 115.885 216.354 114.317 216.243 113.954C216.137 113.591 216.061 113.304 216.014 113.093C215.821 113.843 215.267 115.697 214.353 118.656H217.702ZM229.342 124H226.618V113.418H223.128V111.15H232.832V113.418H229.342V124ZM240.789 124L237.696 113.919H237.617C237.728 115.97 237.784 117.338 237.784 118.023V124H235.349V111.15H239.058L242.099 120.977H242.152L245.377 111.15H249.086V124H246.546V117.918C246.546 117.631 246.549 117.3 246.555 116.925C246.567 116.55 246.608 115.554 246.678 113.937H246.599L243.286 124H240.789ZM260.736 124L259.804 120.941H255.12L254.188 124H251.252L255.788 111.098H259.119L263.671 124H260.736ZM259.154 118.656C258.292 115.885 257.806 114.317 257.695 113.954C257.589 113.591 257.513 113.304 257.466 113.093C257.273 113.843 256.719 115.697 255.805 118.656H259.154ZM277.237 124H273.774L268.184 114.279H268.105C268.216 115.996 268.272 117.221 268.272 117.953V124H265.837V111.15H269.274L274.855 120.774H274.916C274.828 119.104 274.785 117.924 274.785 117.232V111.15H277.237V124Z" fill="#FEFEFE"/>
<path d="M0 176L14.5833 177.049C29.1667 178.177 58.3333 180.156 87.5 188.667C116.667 197.177 145.833 211.823 175 219.284C204.167 226.667 233.333 226.667 262.5 220.333C291.667 214 320.833 201.333 335.417 195L350 188.667V233H335.417C320.833 233 291.667 233 262.5 233C233.333 233 204.167 233 175 233C145.833 233 116.667 233 87.5 233C58.3333 233 29.1667 233 14.5833 233H0V176Z" fill="#17A2B8"/>
<g clip-path="url(#clip1)">
<path d="M-65.1033 43.4675C-75.0737 33.3574 -71.4026 9.96319 -66.6363 -13.8571C-61.8698 -37.6452 -55.976 -61.8596 -40.6958 -70.9889C-25.3832 -80.1184 -0.651807 -74.1308 21.5895 -63.4152C43.831 -52.6674 63.5503 -37.1591 67.5669 -18.459C71.5837 0.273418 59.8655 22.1979 44.6637 33.6833C29.462 45.1688 10.8087 46.1829 -10.356 48.3094C-31.4886 50.4034 -55.1329 53.5776 -65.1033 43.4675Z" fill="#17A2B8"/>
</g>
<defs>
<clipPath id="clip0">
<rect width="34" height="34" fill="white" transform="translate(164 51)"/>
</clipPath>
<clipPath id="clip1">
<rect width="69" height="69" fill="white" transform="translate(69.4062 69.9988) rotate(179.662)"/>
</clipPath>
</defs>
</svg>
