<svg width="358" height="241" viewBox="0 0 358 241" fill="none" xmlns="http://www.w3.org/2000/svg">
<rect x="4" y="0.721375" width="350" height="232.279" fill="#3D32BF"/>
<g clip-path="url(#clip0)">
<path d="M187.885 79.6666H182.551C182.183 79.6666 181.885 79.9646 181.885 80.3333C181.885 80.702 182.183 81 182.551 81H187.885C188.253 81 188.551 80.702 188.551 80.3333C188.551 79.9646 188.253 79.6666 187.885 79.6666Z" fill="white"/>
<path d="M179.319 73.6479C179.442 73.7573 179.6 73.8166 179.762 73.8166C179.796 73.8166 179.83 73.8139 179.863 73.8086C180.06 73.7786 180.233 73.6619 180.334 73.4913L182.022 70.6773C182.131 70.4966 182.148 70.2746 182.067 70.0786C181.987 69.8833 181.818 69.7373 181.612 69.6866L174.853 67.9966C174.557 67.9206 174.245 68.0606 174.101 68.3319C173.958 68.6033 174.019 68.9373 174.249 69.1413L179.319 73.6479ZM180.415 70.7613L179.603 72.1159L177.165 69.9486L180.415 70.7613Z" fill="white"/>
<path d="M187.935 70.0786C187.854 70.2746 187.871 70.4966 187.98 70.6773L189.669 73.4913C189.771 73.6619 189.943 73.7786 190.139 73.8086C190.173 73.8139 190.207 73.8166 190.241 73.8166C190.403 73.8166 190.561 73.7573 190.683 73.6479L195.753 69.1413C195.983 68.9373 196.043 68.6033 195.899 68.3319C195.756 68.0606 195.444 67.9199 195.149 67.9966L188.389 69.6866C188.184 69.7379 188.015 69.8833 187.935 70.0786ZM192.839 69.9486L190.401 72.1166L189.589 70.7613L192.839 69.9486Z" fill="white"/>
<path d="M196.5 51.41C196.379 51.1186 196.074 50.952 195.759 51.0113C195.449 51.0713 195.223 51.34 195.218 51.656C195.169 54.7393 194.805 57.196 194.263 59.1646C191.614 56.9093 188.292 55.6666 184.785 55.6666C181.457 55.6666 178.261 56.808 175.665 58.8813C175.165 56.9613 174.833 54.594 174.785 51.656C174.78 51.3406 174.554 51.072 174.244 51.012C173.928 50.9526 173.624 51.1193 173.503 51.4106C173.284 51.936 168.78 62.8886 170.149 69.6853L170.141 69.8246C170.129 69.9933 170.119 70.162 170.119 70.3333C170.119 78.4206 176.698 85 184.785 85C192.536 85 198.933 78.9593 199.403 71.2293C201.97 64.7093 196.737 51.978 196.5 51.41ZM197.38 74.2906C196.117 77.684 194.011 79.702 192.785 80.5473V77.3533L197.38 74.2906ZM196.373 54.9193C197.869 59.3413 200.102 67.5146 197.807 71.4893C197.709 71.658 197.607 71.82 197.495 71.9686C197.494 71.97 197.493 71.972 197.492 71.9733C197.37 72.136 197.238 72.2866 197.098 72.426C197.084 72.44 197.069 72.4513 197.055 72.4653C196.933 72.5833 196.805 72.6926 196.669 72.794C196.632 72.822 196.593 72.8466 196.555 72.8726C196.437 72.954 196.315 73.03 196.189 73.0993C196.14 73.126 196.09 73.1513 196.039 73.176C195.915 73.2373 195.786 73.2926 195.653 73.3433C195.597 73.3646 195.542 73.3866 195.484 73.406C195.344 73.4533 195.198 73.4926 195.049 73.528C194.993 73.5413 194.94 73.5573 194.883 73.5693C194.677 73.6126 194.463 73.6473 194.238 73.67C193.281 73.7666 192.419 73.86 191.544 74.0353L187.64 74.816C187.498 74.8426 187.396 74.782 187.347 74.7426C187.299 74.7033 187.219 74.616 187.219 74.4713V68.6593C187.219 68.4853 187.341 68.3406 187.444 68.322C187.451 68.322 187.466 68.3206 187.485 68.3193C187.497 68.3186 187.513 68.3166 187.528 68.3153C187.533 68.3146 187.537 68.3146 187.543 68.314C188.474 68.2253 195.169 67.1673 196.373 54.9193ZM184.785 57C188.155 57 191.345 58.2506 193.815 60.5313C191.593 66.6513 187.545 66.9793 187.31 66.996C187.277 67.0006 187.247 67.0126 187.215 67.0193C186.44 67.1813 185.885 67.8526 185.885 68.6586V74.4706C185.885 74.5973 185.899 74.722 185.927 74.8426C185.93 74.8573 185.937 74.8706 185.941 74.8853C185.956 74.942 185.978 74.9953 185.998 75.05L185.058 76.2753L184.057 74.9033C184.063 74.8826 184.073 74.864 184.078 74.8426C184.105 74.722 184.119 74.5973 184.119 74.4706V68.6586C184.119 67.854 183.566 67.1846 182.739 67.0153C182.703 67.008 182.669 66.996 182.632 66.99C182.452 66.978 178.284 66.642 176.087 60.2493C178.514 58.1513 181.587 57 184.785 57ZM173.631 54.9206C174.835 67.1733 181.533 68.2266 182.405 68.308C182.409 68.3086 182.413 68.3086 182.417 68.3093C182.433 68.3106 182.447 68.312 182.459 68.3126C182.476 68.314 182.489 68.3146 182.495 68.3146C182.663 68.34 182.786 68.4846 182.786 68.6586V74.4706C182.786 74.6153 182.705 74.7033 182.657 74.742C182.647 74.7506 182.624 74.76 182.609 74.7693C182.553 74.8033 182.474 74.8373 182.365 74.8153L178.461 74.0346C177.586 73.8593 176.724 73.766 175.768 73.6693C175.503 73.6426 175.253 73.5966 175.011 73.5413C174.959 73.5293 174.907 73.516 174.855 73.5026C174.369 73.3746 173.929 73.188 173.543 72.9353C173.527 72.9253 173.512 72.914 173.497 72.9033C173.099 72.6353 172.753 72.3006 172.461 71.8953C172.454 71.8866 172.448 71.8766 172.442 71.8673C172.324 71.7006 172.219 71.5166 172.119 71.3266C172.07 71.236 172.025 71.142 171.981 71.0466C171.898 70.8673 171.819 70.6826 171.75 70.4846C171.729 70.4253 171.71 70.3646 171.691 70.304C171.61 70.0506 171.535 69.788 171.475 69.506C170.545 65.2113 172.353 58.7 173.631 54.9206ZM176.785 80.5473C175.559 79.7026 173.454 77.6853 172.191 74.294L176.785 77.3533V80.5473ZM177.952 81.7693C178.055 81.6166 178.118 81.4373 178.118 81.2453V77.142C178.118 76.8353 177.967 76.5473 177.705 76.3646L175.655 75C176.566 75.092 177.389 75.1813 178.199 75.3433L182.103 76.124C182.213 76.146 182.325 76.1573 182.436 76.1573C182.443 76.1573 182.451 76.1553 182.458 76.1553C182.485 76.1553 182.512 76.15 182.539 76.1486C182.625 76.1433 182.709 76.1326 182.792 76.1146C182.829 76.1066 182.864 76.0966 182.899 76.0866C182.976 76.0646 183.051 76.036 183.124 76.0033C183.145 75.994 183.168 75.9893 183.189 75.9786L184.504 77.7833C184.628 77.9533 184.824 78.0546 185.035 78.0573C185.037 78.0573 185.04 78.0573 185.043 78.0573C185.25 78.0573 185.445 77.9606 185.571 77.796L186.929 76.0266C186.986 76.0506 187.045 76.07 187.105 76.0873C187.139 76.0973 187.174 76.1073 187.209 76.1146C187.293 76.1333 187.379 76.144 187.465 76.1493C187.492 76.1513 187.518 76.156 187.545 76.156C187.553 76.156 187.56 76.158 187.567 76.158C187.678 76.158 187.79 76.1466 187.901 76.1246L191.805 75.344C192.453 75.214 193.122 75.1333 193.827 75.0586L191.853 76.3733C191.602 76.5486 191.451 76.836 191.451 77.1426V81.246C191.451 81.438 191.514 81.6166 191.617 81.7693C189.615 82.9693 187.28 83.6666 184.785 83.6666C182.287 83.6666 179.953 82.9693 177.952 81.7693Z" fill="white"/>
</g>
<path d="M88.2021 118.432C88.2021 119.592 87.7832 120.506 86.9453 121.174C86.1133 121.842 84.9531 122.176 83.4648 122.176C82.0938 122.176 80.8809 121.918 79.8262 121.402V118.871C80.6934 119.258 81.4258 119.53 82.0234 119.688C82.627 119.847 83.1777 119.926 83.6758 119.926C84.2734 119.926 84.7305 119.812 85.0469 119.583C85.3691 119.354 85.5303 119.015 85.5303 118.563C85.5303 118.312 85.46 118.089 85.3193 117.896C85.1787 117.696 84.9707 117.506 84.6953 117.324C84.4258 117.143 83.8721 116.853 83.0342 116.454C82.249 116.085 81.6602 115.73 81.2676 115.391C80.875 115.051 80.5615 114.655 80.3271 114.204C80.0928 113.753 79.9756 113.226 79.9756 112.622C79.9756 111.485 80.3594 110.592 81.127 109.941C81.9004 109.291 82.9668 108.966 84.3262 108.966C84.9941 108.966 85.6299 109.045 86.2334 109.203C86.8428 109.361 87.4785 109.584 88.1406 109.871L87.2617 111.989C86.5762 111.708 86.0078 111.512 85.5566 111.4C85.1113 111.289 84.6719 111.233 84.2383 111.233C83.7227 111.233 83.3271 111.354 83.0518 111.594C82.7764 111.834 82.6387 112.147 82.6387 112.534C82.6387 112.774 82.6943 112.985 82.8057 113.167C82.917 113.343 83.0928 113.516 83.333 113.686C83.5791 113.85 84.1562 114.148 85.0645 114.582C86.2656 115.156 87.0889 115.733 87.5342 116.313C87.9795 116.888 88.2021 117.594 88.2021 118.432ZM101.53 109.15V117.465C101.53 118.414 101.316 119.246 100.889 119.961C100.467 120.676 99.8545 121.224 99.0517 121.604C98.249 121.985 97.2998 122.176 96.2041 122.176C94.5517 122.176 93.2685 121.754 92.3545 120.91C91.4404 120.061 90.9834 118.9 90.9834 117.43V109.15H93.6992V117.017C93.6992 118.007 93.8984 118.733 94.2968 119.196C94.6953 119.659 95.3545 119.891 96.2744 119.891C97.165 119.891 97.8095 119.659 98.208 119.196C98.6123 118.728 98.8144 117.995 98.8144 116.999V109.15H101.53ZM107.941 115.197H108.838C109.676 115.197 110.303 115.033 110.719 114.705C111.135 114.371 111.343 113.888 111.343 113.255C111.343 112.616 111.167 112.145 110.815 111.84C110.47 111.535 109.925 111.383 109.181 111.383H107.941V115.197ZM114.094 113.158C114.094 114.541 113.66 115.599 112.793 116.331C111.932 117.063 110.704 117.43 109.11 117.43H107.941V122H105.217V109.15H109.321C110.88 109.15 112.063 109.487 112.872 110.161C113.686 110.829 114.094 111.828 114.094 113.158ZM124.46 122H117.059V109.15H124.46V111.383H119.784V114.204H124.135V116.437H119.784V119.75H124.46V122ZM130.414 114.854H131.293C132.154 114.854 132.79 114.711 133.2 114.424C133.61 114.137 133.815 113.686 133.815 113.07C133.815 112.461 133.604 112.027 133.182 111.77C132.766 111.512 132.119 111.383 131.24 111.383H130.414V114.854ZM130.414 117.069V122H127.689V109.15H131.433C133.18 109.15 134.472 109.47 135.309 110.108C136.147 110.741 136.566 111.705 136.566 113C136.566 113.756 136.358 114.43 135.942 115.021C135.526 115.607 134.937 116.067 134.176 116.401C136.109 119.29 137.369 121.156 137.955 122H134.931L131.864 117.069H130.414ZM155.857 122H153.141V116.454H148.052V122H145.328V109.15H148.052V114.187H153.141V109.15H155.857V122ZM167.05 122H159.649V109.15H167.05V111.383H162.374V114.204H166.724V116.437H162.374V119.75H167.05V122ZM173.004 114.854H173.882C174.744 114.854 175.38 114.711 175.79 114.424C176.2 114.137 176.405 113.686 176.405 113.07C176.405 112.461 176.194 112.027 175.772 111.77C175.356 111.512 174.709 111.383 173.83 111.383H173.004V114.854ZM173.004 117.069V122H170.279V109.15H174.023C175.769 109.15 177.061 109.47 177.899 110.108C178.737 110.741 179.156 111.705 179.156 113C179.156 113.756 178.948 114.43 178.532 115.021C178.116 115.607 177.527 116.067 176.765 116.401C178.699 119.29 179.959 121.156 180.545 122H177.521L174.454 117.069H173.004ZM194.365 115.558C194.365 117.685 193.838 119.319 192.783 120.462C191.728 121.604 190.216 122.176 188.248 122.176C186.279 122.176 184.767 121.604 183.713 120.462C182.658 119.319 182.131 117.679 182.131 115.54C182.131 113.401 182.658 111.77 183.713 110.645C184.773 109.514 186.291 108.948 188.265 108.948C190.24 108.948 191.749 109.517 192.792 110.653C193.84 111.79 194.365 113.425 194.365 115.558ZM184.987 115.558C184.987 116.993 185.259 118.074 185.804 118.801C186.349 119.527 187.164 119.891 188.248 119.891C190.422 119.891 191.508 118.446 191.508 115.558C191.508 112.663 190.427 111.216 188.265 111.216C187.181 111.216 186.364 111.582 185.813 112.314C185.262 113.041 184.987 114.122 184.987 115.558ZM202.784 109.15H206.783C208.605 109.15 209.926 109.411 210.747 109.933C211.573 110.448 211.986 111.271 211.986 112.402C211.986 113.17 211.804 113.8 211.441 114.292C211.084 114.784 210.606 115.08 210.008 115.18V115.268C210.823 115.449 211.409 115.789 211.766 116.287C212.129 116.785 212.311 117.447 212.311 118.273C212.311 119.445 211.886 120.359 211.037 121.016C210.193 121.672 209.044 122 207.591 122H202.784V109.15ZM205.508 114.239H207.09C207.829 114.239 208.362 114.125 208.69 113.896C209.024 113.668 209.191 113.29 209.191 112.763C209.191 112.271 209.009 111.919 208.646 111.708C208.289 111.491 207.72 111.383 206.941 111.383H205.508V114.239ZM205.508 116.401V119.75H207.284C208.034 119.75 208.587 119.606 208.945 119.319C209.302 119.032 209.481 118.593 209.481 118.001C209.481 116.935 208.719 116.401 207.196 116.401H205.508ZM223.284 122L222.352 118.941H217.667L216.736 122H213.8L218.335 109.098H221.667L226.219 122H223.284ZM221.702 116.656C220.84 113.885 220.354 112.317 220.243 111.954C220.137 111.591 220.061 111.304 220.014 111.093C219.821 111.843 219.267 113.697 218.353 116.656H221.702ZM233.342 122H230.618V111.418H227.128V109.15H236.832V111.418H233.342V122ZM244.789 122L241.696 111.919H241.617C241.728 113.97 241.784 115.338 241.784 116.023V122H239.349V109.15H243.058L246.099 118.977H246.152L249.377 109.15H253.086V122H250.546V115.918C250.546 115.631 250.549 115.3 250.555 114.925C250.567 114.55 250.608 113.554 250.678 111.937H250.599L247.286 122H244.789ZM264.736 122L263.804 118.941H259.12L258.188 122H255.252L259.788 109.098H263.119L267.671 122H264.736ZM263.154 116.656C262.292 113.885 261.806 112.317 261.695 111.954C261.589 111.591 261.513 111.304 261.466 111.093C261.273 111.843 260.719 113.697 259.805 116.656H263.154ZM281.237 122H277.774L272.184 112.279H272.105C272.216 113.996 272.272 115.221 272.272 115.953V122H269.837V109.15H273.274L278.855 118.774H278.916C278.828 117.104 278.785 115.924 278.785 115.232V109.15H281.237V122Z" fill="#FEFEFE"/>
<g filter="url(#filter0_d)">
<path d="M4 176L18.5833 177.049C33.1667 178.177 62.3333 180.156 91.5 188.667C120.667 197.177 149.833 211.823 179 219.284C208.167 226.667 237.333 226.667 266.5 220.333C295.667 214 324.833 201.333 339.417 195L354 188.667V233H339.417C324.833 233 295.667 233 266.5 233C237.333 233 208.167 233 179 233C149.833 233 120.667 233 91.5 233C62.3333 233 33.1667 233 18.5833 233H4V176Z" fill="#6C59BC"/>
</g>
<defs>
<filter id="filter0_d" x="0" y="176" width="358" height="65" filterUnits="userSpaceOnUse" color-interpolation-filters="sRGB">
<feFlood flood-opacity="0" result="BackgroundImageFix"/>
<feColorMatrix in="SourceAlpha" type="matrix" values="0 0 0 0 0 0 0 0 0 0 0 0 0 0 0 0 0 0 127 0"/>
<feOffset dy="4"/>
<feGaussianBlur stdDeviation="2"/>
<feColorMatrix type="matrix" values="0 0 0 0 0 0 0 0 0 0 0 0 0 0 0 0 0 0 0.25 0"/>
<feBlend mode="normal" in2="BackgroundImageFix" result="effect1_dropShadow"/>
<feBlend mode="normal" in="SourceGraphic" in2="effect1_dropShadow" result="shape"/>
</filter>
<clipPath id="clip0">
<rect width="34" height="34" fill="white" transform="translate(168 51)"/>
</clipPath>
</defs>
</svg>
