<svg width="350" height="233" viewBox="0 0 350 233" fill="none" xmlns="http://www.w3.org/2000/svg">
<rect width="350" height="232.279" fill="#007BFF"/>
<path d="M42.5742 123.279H39.8496V112.697H36.3604V110.429H46.0635V112.697H42.5742V123.279ZM51.3056 116.133H52.1845C53.0459 116.133 53.6816 115.99 54.0918 115.702C54.5019 115.415 54.707 114.964 54.707 114.349C54.707 113.74 54.4961 113.306 54.0742 113.048C53.6582 112.79 53.0107 112.661 52.1318 112.661H51.3056V116.133ZM51.3056 118.348V123.279H48.581V110.429H52.3252C54.0712 110.429 55.3632 110.748 56.2011 111.387C57.039 112.02 57.458 112.984 57.458 114.279C57.458 115.034 57.25 115.708 56.8339 116.3C56.4179 116.886 55.8291 117.346 55.0673 117.68C57.0009 120.569 58.2607 122.435 58.8466 123.279H55.8232L52.7558 118.348H51.3056ZM68.87 123.279L67.9384 120.22H63.2538L62.3222 123.279H59.3866L63.9218 110.376H67.2529L71.8056 123.279H68.87ZM67.288 117.935C66.4267 115.163 65.9404 113.596 65.829 113.233C65.7236 112.869 65.6474 112.582 65.6005 112.371C65.4071 113.121 64.8534 114.976 63.9394 117.935H67.288ZM73.9716 123.279V110.429H76.6962V123.279H73.9716ZM91.87 123.279H88.4071L82.8172 113.558H82.7381C82.8495 115.275 82.9051 116.499 82.9051 117.232V123.279H80.4705V110.429H83.9071L89.4881 120.053H89.5496C89.4618 118.383 89.4178 117.202 89.4178 116.511V110.429H91.87V123.279ZM105.826 123.279H103.101V112.697H99.6121V110.429H109.315V112.697H105.826V123.279ZM111.833 123.279V110.429H114.557V123.279H111.833ZM123.79 112.512C122.764 112.512 121.97 112.899 121.408 113.672C120.845 114.44 120.564 115.512 120.564 116.889C120.564 119.754 121.639 121.187 123.79 121.187C124.692 121.187 125.785 120.961 127.068 120.51V122.795C126.013 123.235 124.836 123.454 123.535 123.454C121.666 123.454 120.236 122.889 119.246 121.758C118.256 120.621 117.76 118.992 117.76 116.871C117.76 115.535 118.004 114.367 118.49 113.365C118.976 112.357 119.674 111.586 120.582 111.053C121.496 110.514 122.565 110.244 123.79 110.244C125.038 110.244 126.292 110.546 127.551 111.15L126.673 113.365C126.192 113.136 125.709 112.937 125.222 112.767C124.736 112.597 124.258 112.512 123.79 112.512ZM140.686 123.279H137.592L134.226 117.865L133.075 118.691V123.279H130.35V110.429H133.075V116.309L134.147 114.797L137.628 110.429H140.651L136.169 116.116L140.686 123.279ZM150.244 123.279H142.843V110.429H150.244V112.661H145.568V115.483H149.919V117.715H145.568V121.029H150.244V123.279ZM158.43 123.279H155.706V112.697H152.216V110.429H161.919V112.697H158.43V123.279ZM169.653 110.429H173.652C175.474 110.429 176.795 110.69 177.616 111.211C178.442 111.727 178.855 112.55 178.855 113.681C178.855 114.449 178.673 115.078 178.31 115.571C177.953 116.063 177.475 116.359 176.877 116.458V116.546C177.692 116.728 178.278 117.068 178.635 117.566C178.999 118.064 179.18 118.726 179.18 119.552C179.18 120.724 178.755 121.638 177.906 122.294C177.062 122.951 175.914 123.279 174.46 123.279H169.653V110.429ZM172.377 115.518H173.959C174.698 115.518 175.231 115.404 175.559 115.175C175.893 114.947 176.06 114.569 176.06 114.041C176.06 113.549 175.878 113.198 175.515 112.987C175.158 112.77 174.589 112.661 173.81 112.661H172.377V115.518ZM172.377 117.68V121.029H174.153C174.903 121.029 175.457 120.885 175.814 120.598C176.171 120.311 176.35 119.871 176.35 119.28C176.35 118.213 175.588 117.68 174.065 117.68H172.377ZM193.95 116.836C193.95 118.963 193.422 120.598 192.368 121.741C191.313 122.883 189.801 123.454 187.832 123.454C185.864 123.454 184.352 122.883 183.297 121.741C182.243 120.598 181.715 118.957 181.715 116.819C181.715 114.68 182.243 113.048 183.297 111.923C184.358 110.792 185.875 110.227 187.85 110.227C189.825 110.227 191.333 110.795 192.376 111.932C193.425 113.069 193.95 114.703 193.95 116.836ZM184.572 116.836C184.572 118.272 184.844 119.353 185.389 120.079C185.934 120.806 186.748 121.169 187.832 121.169C190.006 121.169 191.093 119.725 191.093 116.836C191.093 113.942 190.012 112.494 187.85 112.494C186.766 112.494 185.949 112.861 185.398 113.593C184.847 114.32 184.572 115.401 184.572 116.836ZM208.816 116.836C208.816 118.963 208.288 120.598 207.234 121.741C206.179 122.883 204.667 123.454 202.699 123.454C200.73 123.454 199.218 122.883 198.163 121.741C197.109 120.598 196.581 118.957 196.581 116.819C196.581 114.68 197.109 113.048 198.163 111.923C199.224 110.792 200.742 110.227 202.716 110.227C204.691 110.227 206.2 110.795 207.243 111.932C208.291 113.069 208.816 114.703 208.816 116.836ZM199.438 116.836C199.438 118.272 199.71 119.353 200.255 120.079C200.8 120.806 201.615 121.169 202.699 121.169C204.872 121.169 205.959 119.725 205.959 116.836C205.959 113.942 204.878 112.494 202.716 112.494C201.632 112.494 200.815 112.861 200.264 113.593C199.713 114.32 199.438 115.401 199.438 116.836ZM222.355 123.279H219.261L215.895 117.865L214.744 118.691V123.279H212.019V110.429H214.744V116.309L215.816 114.797L219.296 110.429H222.32L217.837 116.116L222.355 123.279ZM224.512 123.279V110.429H227.237V123.279H224.512ZM242.41 123.279H238.948L233.358 113.558H233.279C233.39 115.275 233.446 116.499 233.446 117.232V123.279H231.011V110.429H234.448L240.029 120.053H240.09C240.002 118.383 239.958 117.202 239.958 116.511V110.429H242.41V123.279ZM251.072 116.063H256.169V122.725C255.343 122.994 254.564 123.182 253.831 123.287C253.105 123.399 252.361 123.454 251.599 123.454C249.659 123.454 248.177 122.886 247.152 121.749C246.132 120.607 245.622 118.969 245.622 116.836C245.622 114.762 246.214 113.145 247.398 111.985C248.587 110.825 250.234 110.244 252.337 110.244C253.656 110.244 254.927 110.508 256.152 111.035L255.246 113.215C254.309 112.746 253.333 112.512 252.32 112.512C251.142 112.512 250.198 112.908 249.489 113.699C248.781 114.49 248.426 115.553 248.426 116.889C248.426 118.284 248.71 119.35 249.279 120.088C249.853 120.821 250.685 121.187 251.775 121.187C252.343 121.187 252.92 121.128 253.506 121.011V118.33H251.072V116.063ZM272.577 119.71C272.577 120.87 272.158 121.784 271.32 122.452C270.488 123.12 269.328 123.454 267.84 123.454C266.469 123.454 265.256 123.197 264.201 122.681V120.15C265.069 120.536 265.801 120.809 266.399 120.967C267.002 121.125 267.553 121.204 268.051 121.204C268.649 121.204 269.106 121.09 269.422 120.862C269.744 120.633 269.905 120.293 269.905 119.842C269.905 119.59 269.835 119.367 269.694 119.174C269.554 118.975 269.346 118.784 269.07 118.603C268.801 118.421 268.247 118.131 267.409 117.733C266.624 117.364 266.035 117.009 265.643 116.669C265.25 116.329 264.937 115.934 264.702 115.483C264.468 115.032 264.351 114.504 264.351 113.901C264.351 112.764 264.735 111.87 265.502 111.22C266.276 110.57 267.342 110.244 268.701 110.244C269.369 110.244 270.005 110.324 270.609 110.482C271.218 110.64 271.854 110.863 272.516 111.15L271.637 113.268C270.951 112.987 270.383 112.79 269.932 112.679C269.486 112.568 269.047 112.512 268.613 112.512C268.098 112.512 267.702 112.632 267.427 112.872C267.152 113.113 267.014 113.426 267.014 113.813C267.014 114.053 267.069 114.264 267.181 114.446C267.292 114.621 267.468 114.794 267.708 114.964C267.954 115.128 268.531 115.427 269.44 115.861C270.641 116.435 271.464 117.012 271.909 117.592C272.355 118.166 272.577 118.872 272.577 119.71ZM279.445 115.72L282.126 110.429H285.062L280.799 118.278V123.279H278.092V118.366L273.829 110.429H276.782L279.445 115.72ZM294.804 119.71C294.804 120.87 294.385 121.784 293.547 122.452C292.715 123.12 291.555 123.454 290.066 123.454C288.695 123.454 287.482 123.197 286.428 122.681V120.15C287.295 120.536 288.027 120.809 288.625 120.967C289.229 121.125 289.779 121.204 290.277 121.204C290.875 121.204 291.332 121.09 291.649 120.862C291.971 120.633 292.132 120.293 292.132 119.842C292.132 119.59 292.062 119.367 291.921 119.174C291.78 118.975 291.572 118.784 291.297 118.603C291.027 118.421 290.474 118.131 289.636 117.733C288.851 117.364 288.262 117.009 287.869 116.669C287.477 116.329 287.163 115.934 286.929 115.483C286.694 115.032 286.577 114.504 286.577 113.901C286.577 112.764 286.961 111.87 287.729 111.22C288.502 110.57 289.568 110.244 290.928 110.244C291.596 110.244 292.232 110.324 292.835 110.482C293.444 110.64 294.08 110.863 294.742 111.15L293.863 113.268C293.178 112.987 292.609 112.79 292.158 112.679C291.713 112.568 291.274 112.512 290.84 112.512C290.324 112.512 289.929 112.632 289.653 112.872C289.378 113.113 289.24 113.426 289.24 113.813C289.24 114.053 289.296 114.264 289.407 114.446C289.519 114.621 289.694 114.794 289.935 114.964C290.181 115.128 290.758 115.427 291.666 115.861C292.867 116.435 293.691 117.012 294.136 117.592C294.581 118.166 294.804 118.872 294.804 119.71ZM302.63 123.279H299.905V112.697H296.416V110.429H306.119V112.697H302.63V123.279ZM316.037 123.279H308.637V110.429H316.037V112.661H311.361V115.483H315.712V117.715H311.361V121.029H316.037V123.279ZM324.707 123.279L321.613 113.198H321.534C321.645 115.248 321.701 116.617 321.701 117.302V123.279H319.267V110.429H322.976L326.017 120.255H326.069L329.295 110.429H333.004V123.279H330.464V117.197C330.464 116.909 330.467 116.578 330.473 116.203C330.484 115.828 330.525 114.832 330.596 113.215H330.517L327.203 123.279H324.707Z" fill="#FEFEFE"/>
<path d="M0 175.279L14.5833 176.328C29.1667 177.456 58.3333 179.435 87.5 187.945C116.667 196.456 145.833 211.102 175 218.563C204.167 225.945 233.333 225.945 262.5 219.612C291.667 213.279 320.833 200.612 335.417 194.279L350 187.945V232.279H335.417C320.833 232.279 291.667 232.279 262.5 232.279C233.333 232.279 204.167 232.279 175 232.279C145.833 232.279 116.667 232.279 87.5 232.279C58.3333 232.279 29.1667 232.279 14.5833 232.279H0V175.279Z" fill="#17A2B8"/>
<path d="M166.667 71.5286H183.333V82.0286H166.667V71.5286ZM187.5 76.7786C187.5 78.2284 188.619 79.4036 190 79.4036V84.6536C190 86.1034 188.881 87.2786 187.5 87.2786H162.5C161.119 87.2786 160 86.1034 160 84.6536V79.4036C161.381 79.4036 162.5 78.2284 162.5 76.7786C162.5 75.3289 161.381 74.1536 160 74.1536V68.9036C160 67.4539 161.119 66.2786 162.5 66.2786H187.5C188.881 66.2786 190 67.4539 190 68.9036V74.1536C188.619 74.1536 187.5 75.3289 187.5 76.7786ZM185 71.0911C185 70.3662 184.44 69.7786 183.75 69.7786H166.25C165.56 69.7786 165 70.3662 165 71.0911V82.4661C165 83.191 165.56 83.7786 166.25 83.7786H183.75C184.44 83.7786 185 83.191 185 82.4661V71.0911Z" fill="white"/>
<g clip-path="url(#clip0)">
<path d="M-65.1032 42.4675C-75.0736 32.3574 -71.4025 8.96319 -66.6362 -14.8571C-61.8697 -38.6452 -55.9759 -62.8596 -40.6957 -71.9889C-25.3831 -81.1184 -0.651719 -75.1308 21.5896 -64.4152C43.8311 -53.6674 63.5504 -38.1591 67.567 -19.459C71.5838 -0.726582 59.8656 21.1979 44.6638 32.6833C29.4621 44.1688 10.8088 45.1829 -10.3559 47.3094C-31.4885 49.4034 -55.1328 52.5776 -65.1032 42.4675Z" fill="#17A2B8"/>
</g>
<defs>
<clipPath id="clip0">
<rect width="69" height="69" fill="white" transform="translate(69.4062 68.9988) rotate(179.662)"/>
</clipPath>
</defs>
</svg>
