<svg width="350" height="233" viewBox="0 0 350 233" fill="none" xmlns="http://www.w3.org/2000/svg">
<rect y="0.721375" width="350" height="232.279" fill="#3D32BF"/>
<path d="M42.5742 124H39.8496V113.418H36.3604V111.15H46.0635V113.418H42.5742V124ZM51.3056 116.854H52.1845C53.0459 116.854 53.6816 116.711 54.0918 116.424C54.5019 116.137 54.707 115.686 54.707 115.07C54.707 114.461 54.4961 114.027 54.0742 113.77C53.6582 113.512 53.0107 113.383 52.1318 113.383H51.3056V116.854ZM51.3056 119.069V124H48.581V111.15H52.3252C54.0712 111.15 55.3632 111.47 56.2011 112.108C57.039 112.741 57.458 113.705 57.458 115C57.458 115.756 57.25 116.43 56.8339 117.021C56.4179 117.607 55.8291 118.067 55.0673 118.401C57.0009 121.29 58.2607 123.156 58.8466 124H55.8232L52.7558 119.069H51.3056ZM68.87 124L67.9384 120.941H63.2538L62.3222 124H59.3866L63.9218 111.098H67.2529L71.8056 124H68.87ZM67.288 118.656C66.4267 115.885 65.9404 114.317 65.829 113.954C65.7236 113.591 65.6474 113.304 65.6005 113.093C65.4071 113.843 64.8534 115.697 63.9394 118.656H67.288ZM73.9716 124V111.15H76.6962V124H73.9716ZM91.87 124H88.4071L82.8172 114.279H82.7381C82.8495 115.996 82.9051 117.221 82.9051 117.953V124H80.4705V111.15H83.9071L89.4881 120.774H89.5496C89.4618 119.104 89.4178 117.924 89.4178 117.232V111.15H91.87V124ZM105.826 124H103.101V113.418H99.6121V111.15H109.315V113.418H105.826V124ZM111.833 124V111.15H114.557V124H111.833ZM123.79 113.233C122.764 113.233 121.97 113.62 121.408 114.394C120.845 115.161 120.564 116.233 120.564 117.61C120.564 120.476 121.639 121.908 123.79 121.908C124.692 121.908 125.785 121.683 127.068 121.231V123.517C126.013 123.956 124.836 124.176 123.535 124.176C121.666 124.176 120.236 123.61 119.246 122.479C118.256 121.343 117.76 119.714 117.76 117.593C117.76 116.257 118.004 115.088 118.49 114.086C118.976 113.078 119.674 112.308 120.582 111.774C121.496 111.235 122.565 110.966 123.79 110.966C125.038 110.966 126.292 111.268 127.551 111.871L126.673 114.086C126.192 113.857 125.709 113.658 125.222 113.488C124.736 113.318 124.258 113.233 123.79 113.233ZM140.686 124H137.592L134.226 118.586L133.075 119.412V124H130.35V111.15H133.075V117.03L134.147 115.519L137.628 111.15H140.651L136.169 116.837L140.686 124ZM150.244 124H142.843V111.15H150.244V113.383H145.568V116.204H149.919V118.437H145.568V121.75H150.244V124ZM158.43 124H155.706V113.418H152.216V111.15H161.919V113.418H158.43V124ZM169.653 111.15H173.652C175.474 111.15 176.795 111.411 177.616 111.933C178.442 112.448 178.855 113.271 178.855 114.402C178.855 115.17 178.673 115.8 178.31 116.292C177.953 116.784 177.475 117.08 176.877 117.18V117.268C177.692 117.449 178.278 117.789 178.635 118.287C178.999 118.785 179.18 119.447 179.18 120.273C179.18 121.445 178.755 122.359 177.906 123.016C177.062 123.672 175.914 124 174.46 124H169.653V111.15ZM172.377 116.239H173.959C174.698 116.239 175.231 116.125 175.559 115.896C175.893 115.668 176.06 115.29 176.06 114.763C176.06 114.271 175.878 113.919 175.515 113.708C175.158 113.491 174.589 113.383 173.81 113.383H172.377V116.239ZM172.377 118.401V121.75H174.153C174.903 121.75 175.457 121.606 175.814 121.319C176.171 121.032 176.35 120.593 176.35 120.001C176.35 118.935 175.588 118.401 174.065 118.401H172.377ZM193.95 117.558C193.95 119.685 193.422 121.319 192.368 122.462C191.313 123.604 189.801 124.176 187.832 124.176C185.864 124.176 184.352 123.604 183.297 122.462C182.243 121.319 181.715 119.679 181.715 117.54C181.715 115.401 182.243 113.77 183.297 112.645C184.358 111.514 185.875 110.948 187.85 110.948C189.825 110.948 191.333 111.517 192.376 112.653C193.425 113.79 193.95 115.425 193.95 117.558ZM184.572 117.558C184.572 118.993 184.844 120.074 185.389 120.801C185.934 121.527 186.748 121.891 187.832 121.891C190.006 121.891 191.093 120.446 191.093 117.558C191.093 114.663 190.012 113.216 187.85 113.216C186.766 113.216 185.949 113.582 185.398 114.314C184.847 115.041 184.572 116.122 184.572 117.558ZM208.816 117.558C208.816 119.685 208.288 121.319 207.234 122.462C206.179 123.604 204.667 124.176 202.699 124.176C200.73 124.176 199.218 123.604 198.163 122.462C197.109 121.319 196.581 119.679 196.581 117.54C196.581 115.401 197.109 113.77 198.163 112.645C199.224 111.514 200.742 110.948 202.716 110.948C204.691 110.948 206.2 111.517 207.243 112.653C208.291 113.79 208.816 115.425 208.816 117.558ZM199.438 117.558C199.438 118.993 199.71 120.074 200.255 120.801C200.8 121.527 201.615 121.891 202.699 121.891C204.872 121.891 205.959 120.446 205.959 117.558C205.959 114.663 204.878 113.216 202.716 113.216C201.632 113.216 200.815 113.582 200.264 114.314C199.713 115.041 199.438 116.122 199.438 117.558ZM222.355 124H219.261L215.895 118.586L214.744 119.412V124H212.019V111.15H214.744V117.03L215.816 115.519L219.296 111.15H222.32L217.837 116.837L222.355 124ZM224.512 124V111.15H227.237V124H224.512ZM242.41 124H238.948L233.358 114.279H233.279C233.39 115.996 233.446 117.221 233.446 117.953V124H231.011V111.15H234.448L240.029 120.774H240.09C240.002 119.104 239.958 117.924 239.958 117.232V111.15H242.41V124ZM251.072 116.784H256.169V123.446C255.343 123.716 254.564 123.903 253.831 124.009C253.105 124.12 252.361 124.176 251.599 124.176C249.659 124.176 248.177 123.607 247.152 122.471C246.132 121.328 245.622 119.69 245.622 117.558C245.622 115.483 246.214 113.866 247.398 112.706C248.587 111.546 250.234 110.966 252.337 110.966C253.656 110.966 254.927 111.229 256.152 111.757L255.246 113.937C254.309 113.468 253.333 113.233 252.32 113.233C251.142 113.233 250.198 113.629 249.489 114.42C248.781 115.211 248.426 116.274 248.426 117.61C248.426 119.005 248.71 120.071 249.279 120.81C249.853 121.542 250.685 121.908 251.775 121.908C252.343 121.908 252.92 121.85 253.506 121.732V119.052H251.072V116.784ZM272.577 120.432C272.577 121.592 272.158 122.506 271.32 123.174C270.488 123.842 269.328 124.176 267.84 124.176C266.469 124.176 265.256 123.918 264.201 123.402V120.871C265.069 121.258 265.801 121.53 266.399 121.688C267.002 121.847 267.553 121.926 268.051 121.926C268.649 121.926 269.106 121.812 269.422 121.583C269.744 121.354 269.905 121.015 269.905 120.563C269.905 120.312 269.835 120.089 269.694 119.896C269.554 119.696 269.346 119.506 269.07 119.324C268.801 119.143 268.247 118.853 267.409 118.454C266.624 118.085 266.035 117.73 265.643 117.391C265.25 117.051 264.937 116.655 264.702 116.204C264.468 115.753 264.351 115.226 264.351 114.622C264.351 113.485 264.735 112.592 265.502 111.941C266.276 111.291 267.342 110.966 268.701 110.966C269.369 110.966 270.005 111.045 270.609 111.203C271.218 111.361 271.854 111.584 272.516 111.871L271.637 113.989C270.951 113.708 270.383 113.512 269.932 113.4C269.486 113.289 269.047 113.233 268.613 113.233C268.098 113.233 267.702 113.354 267.427 113.594C267.152 113.834 267.014 114.147 267.014 114.534C267.014 114.774 267.069 114.985 267.181 115.167C267.292 115.343 267.468 115.516 267.708 115.686C267.954 115.85 268.531 116.148 269.44 116.582C270.641 117.156 271.464 117.733 271.909 118.313C272.355 118.888 272.577 119.594 272.577 120.432ZM279.445 116.441L282.126 111.15H285.062L280.799 118.999V124H278.092V119.087L273.829 111.15H276.782L279.445 116.441ZM294.804 120.432C294.804 121.592 294.385 122.506 293.547 123.174C292.715 123.842 291.555 124.176 290.066 124.176C288.695 124.176 287.482 123.918 286.428 123.402V120.871C287.295 121.258 288.027 121.53 288.625 121.688C289.229 121.847 289.779 121.926 290.277 121.926C290.875 121.926 291.332 121.812 291.649 121.583C291.971 121.354 292.132 121.015 292.132 120.563C292.132 120.312 292.062 120.089 291.921 119.896C291.78 119.696 291.572 119.506 291.297 119.324C291.027 119.143 290.474 118.853 289.636 118.454C288.851 118.085 288.262 117.73 287.869 117.391C287.477 117.051 287.163 116.655 286.929 116.204C286.694 115.753 286.577 115.226 286.577 114.622C286.577 113.485 286.961 112.592 287.729 111.941C288.502 111.291 289.568 110.966 290.928 110.966C291.596 110.966 292.232 111.045 292.835 111.203C293.444 111.361 294.08 111.584 294.742 111.871L293.863 113.989C293.178 113.708 292.609 113.512 292.158 113.4C291.713 113.289 291.274 113.233 290.84 113.233C290.324 113.233 289.929 113.354 289.653 113.594C289.378 113.834 289.24 114.147 289.24 114.534C289.24 114.774 289.296 114.985 289.407 115.167C289.519 115.343 289.694 115.516 289.935 115.686C290.181 115.85 290.758 116.148 291.666 116.582C292.867 117.156 293.691 117.733 294.136 118.313C294.581 118.888 294.804 119.594 294.804 120.432ZM302.63 124H299.905V113.418H296.416V111.15H306.119V113.418H302.63V124ZM316.037 124H308.637V111.15H316.037V113.383H311.361V116.204H315.712V118.437H311.361V121.75H316.037V124ZM324.707 124L321.613 113.919H321.534C321.645 115.97 321.701 117.338 321.701 118.023V124H319.267V111.15H322.976L326.017 120.977H326.069L329.295 111.15H333.004V124H330.464V117.918C330.464 117.631 330.467 117.3 330.473 116.925C330.484 116.55 330.525 115.554 330.596 113.937H330.517L327.203 124H324.707Z" fill="#FEFEFE"/>
<path d="M0 176L14.5833 177.049C29.1667 178.177 58.3333 180.156 87.5 188.667C116.667 197.177 145.833 211.823 175 219.284C204.167 226.667 233.333 226.667 262.5 220.333C291.667 214 320.833 201.333 335.417 195L350 188.667V233H335.417C320.833 233 291.667 233 262.5 233C233.333 233 204.167 233 175 233C145.833 233 116.667 233 87.5 233C58.3333 233 29.1667 233 14.5833 233H0V176Z" fill="#6C59BC"/>
<path d="M166.667 72.25H183.333V82.75H166.667V72.25ZM187.5 77.5C187.5 78.9498 188.619 80.125 190 80.125V85.375C190 86.8248 188.881 88 187.5 88H162.5C161.119 88 160 86.8248 160 85.375V80.125C161.381 80.125 162.5 78.9498 162.5 77.5C162.5 76.0502 161.381 74.875 160 74.875V69.625C160 68.1752 161.119 67 162.5 67H187.5C188.881 67 190 68.1752 190 69.625V74.875C188.619 74.875 187.5 76.0502 187.5 77.5ZM185 71.8125C185 71.0876 184.44 70.5 183.75 70.5H166.25C165.56 70.5 165 71.0876 165 71.8125V83.1875C165 83.9124 165.56 84.5 166.25 84.5H183.75C184.44 84.5 185 83.9124 185 83.1875V71.8125Z" fill="white"/>
</svg>
