<svg width="350" height="233" viewBox="0 0 350 233" fill="none" xmlns="http://www.w3.org/2000/svg">
<rect width="350" height="232.279" fill="#007BFF"/>
<path d="M131.349 123H128.246L126.506 116.25C126.441 116.01 126.33 115.515 126.172 114.765C126.019 114.009 125.932 113.502 125.908 113.244C125.873 113.561 125.785 114.07 125.644 114.773C125.504 115.471 125.395 115.969 125.319 116.268L123.588 123H120.494L117.216 110.15H119.896L121.54 117.164C121.827 118.459 122.035 119.581 122.164 120.53C122.199 120.196 122.278 119.681 122.401 118.983C122.53 118.28 122.65 117.735 122.762 117.349L124.634 110.15H127.209L129.081 117.349C129.163 117.671 129.266 118.163 129.389 118.825C129.512 119.487 129.605 120.056 129.67 120.53C129.728 120.073 129.822 119.505 129.951 118.825C130.08 118.14 130.197 117.586 130.303 117.164L131.937 110.15H134.618L131.349 123ZM144.176 123H136.775V110.15H144.176V112.383H139.5V115.204H143.851V117.437H139.5V120.75H144.176V123ZM155.271 123L154.34 119.941H149.655L148.724 123H145.788L150.323 110.098H153.654L158.207 123H155.271ZM153.689 117.656C152.828 114.885 152.342 113.317 152.23 112.954C152.125 112.591 152.049 112.304 152.002 112.093C151.808 112.843 151.255 114.697 150.341 117.656H153.689ZM165.33 123H162.605V112.418H159.116V110.15H168.819V112.418H165.33V123ZM181.866 123H179.15V117.454H174.061V123H171.337V110.15H174.061V115.187H179.15V110.15H181.866V123ZM193.058 123H185.658V110.15H193.058V112.383H188.383V115.204H192.733V117.437H188.383V120.75H193.058V123ZM199.012 115.854H199.891C200.753 115.854 201.388 115.711 201.799 115.424C202.209 115.137 202.414 114.686 202.414 114.07C202.414 113.461 202.203 113.027 201.781 112.77C201.365 112.512 200.717 112.383 199.839 112.383H199.012V115.854ZM199.012 118.069V123H196.288V110.15H200.032C201.778 110.15 203.07 110.47 203.908 111.108C204.746 111.741 205.165 112.705 205.165 114C205.165 114.756 204.957 115.43 204.541 116.021C204.125 116.607 203.536 117.067 202.774 117.401C204.708 120.29 205.967 122.156 206.553 123H203.53L200.463 118.069H199.012ZM221.793 123L220.861 119.941H216.176L215.245 123H212.309L216.844 110.098H220.175L224.728 123H221.793ZM220.211 117.656C219.349 114.885 218.863 113.317 218.752 112.954C218.646 112.591 218.57 112.304 218.523 112.093C218.33 112.843 217.776 114.697 216.862 117.656H220.211ZM229.619 116.197H230.515C231.353 116.197 231.98 116.033 232.396 115.705C232.812 115.371 233.02 114.888 233.02 114.255C233.02 113.616 232.844 113.145 232.493 112.84C232.147 112.535 231.602 112.383 230.858 112.383H229.619V116.197ZM235.771 114.158C235.771 115.541 235.338 116.599 234.47 117.331C233.609 118.063 232.381 118.43 230.788 118.43H229.619V123H226.894V110.15H230.999C232.557 110.15 233.741 110.487 234.549 111.161C235.364 111.829 235.771 112.828 235.771 114.158ZM238.737 123V110.15H241.461V123H238.737Z" fill="#FEFEFE"/>
<path d="M0 175L14.5833 176.049C29.1667 177.177 58.3333 179.156 87.5 187.667C116.667 196.177 145.833 210.823 175 218.284C204.167 225.667 233.333 225.667 262.5 219.333C291.667 213 320.833 200.333 335.417 194L350 187.667V232H335.417C320.833 232 291.667 232 262.5 232C233.333 232 204.167 232 175 232C145.833 232 116.667 232 87.5 232C58.3333 232 29.1667 232 14.5833 232H0V175Z" fill="#17A2B8"/>
<g clip-path="url(#clip0)">
<path d="M192.769 69.6172C192.218 66.7109 189.631 64.5 186.5 64.5C185.518 64.5 184.591 64.7344 183.761 65.125C182.371 63.2422 180.119 62 177.556 62C173.323 62 169.889 65.3594 169.889 69.5C169.889 69.5391 169.905 69.5859 169.905 69.625C166.982 70.2031 164.778 72.7188 164.778 75.75C164.778 79.2031 167.637 82 171.167 82H191.611C195.141 82 198 79.2031 198 75.75C198 72.6875 195.748 70.1484 192.769 69.6172ZM161.911 72.3047C158.924 69.3828 158.924 64.625 161.911 61.6953C164.674 58.9922 169.026 58.8203 172.029 61.1172C173.626 60.1094 175.511 59.5 177.556 59.5C177.611 59.5 177.659 59.5156 177.715 59.5156L178.426 57.4297C178.698 56.6328 177.923 55.8828 177.108 56.1484L171.095 58.1094L168.26 52.5625C167.876 51.8125 166.782 51.8125 166.399 52.5625L163.564 58.1094L157.55 56.1484C156.736 55.8828 155.969 56.6406 156.241 57.4375L158.245 63.3203L152.575 66.0938C151.808 66.4688 151.808 67.5391 152.575 67.9141L158.245 70.6875L156.241 76.5703C155.969 77.3672 156.744 78.1172 157.558 77.8594L162.286 76.3203C162.27 76.1328 162.23 75.9531 162.23 75.7578C162.23 74.7812 162.414 73.8438 162.725 72.9531C162.438 72.7422 162.158 72.5469 161.911 72.3047ZM167.485 67.7734C167.828 65.8594 168.747 64.1484 170.033 62.7734C169.25 62.2891 168.324 62 167.333 62C164.514 62 162.222 64.2422 162.222 67C162.222 68.4609 162.877 69.7656 163.907 70.6797C164.81 69.4375 166.032 68.4219 167.485 67.7734ZM193.887 84.6641C193.28 84.3281 192.498 84.5234 192.146 85.1328L189.223 90.1328C188.872 90.7344 189.088 91.4922 189.702 91.8359C189.902 91.9453 190.118 92 190.333 92C190.773 92 191.204 91.7734 191.443 91.3672L194.366 86.3672C194.71 85.7656 194.502 85.0078 193.887 84.6641ZM186.22 84.6641C185.614 84.3281 184.831 84.5234 184.48 85.1328L181.557 90.1328C181.205 90.7344 181.421 91.4922 182.036 91.8359C182.235 91.9453 182.451 92 182.667 92C183.106 92 183.537 91.7734 183.777 91.3672L186.7 86.3672C187.043 85.7656 186.835 85.0078 186.22 84.6641ZM178.554 84.6641C177.947 84.3281 177.164 84.5234 176.813 85.1328L173.89 90.1328C173.539 90.7344 173.754 91.4922 174.369 91.8359C174.569 91.9453 174.784 92 175 92C175.439 92 175.87 91.7734 176.11 91.3672L179.033 86.3672C179.376 85.7656 179.169 85.0078 178.554 84.6641ZM170.887 84.6641C170.28 84.3281 169.498 84.5234 169.146 85.1328L166.223 90.1328C165.872 90.7344 166.088 91.4922 166.702 91.8359C166.902 91.9453 167.118 92 167.333 92C167.773 92 168.204 91.7734 168.443 91.3672L171.366 86.3672C171.71 85.7656 171.502 85.0078 170.887 84.6641Z" fill="white"/>
</g>
<g clip-path="url(#clip1)">
<path d="M-65.1033 42.4675C-75.0738 32.3574 -71.4026 8.96319 -66.6363 -14.8571C-61.8699 -38.6452 -55.976 -62.8596 -40.6958 -71.9889C-25.3833 -81.1184 -0.651838 -75.1308 21.5895 -64.4152C43.831 -53.6674 63.5503 -38.1591 67.5669 -19.459C71.5837 -0.726582 59.8655 21.1979 44.6637 32.6833C29.462 44.1688 10.8087 45.1829 -10.356 47.3094C-31.4887 49.4034 -55.1329 52.5776 -65.1033 42.4675Z" fill="#17A2B8"/>
</g>
<defs>
<clipPath id="clip0">
<rect width="46" height="40" fill="white" transform="translate(152 52)"/>
</clipPath>
<clipPath id="clip1">
<rect width="69" height="69" fill="white" transform="translate(69.4062 68.9988) rotate(179.662)"/>
</clipPath>
</defs>
</svg>
