<svg width="350" height="233" viewBox="0 0 350 233" fill="none" xmlns="http://www.w3.org/2000/svg">
<rect width="350" height="232.279" fill="#007BFF"/>
<path d="M53.6172 108.429H57.6162C59.4385 108.429 60.7598 108.69 61.5801 109.211C62.4062 109.727 62.8193 110.55 62.8193 111.681C62.8193 112.449 62.6377 113.078 62.2744 113.571C61.917 114.063 61.4395 114.359 60.8418 114.458V114.546C61.6562 114.728 62.2422 115.068 62.5996 115.566C62.9629 116.064 63.1445 116.726 63.1445 117.552C63.1445 118.724 62.7197 119.638 61.8701 120.294C61.0264 120.951 59.8779 121.279 58.4248 121.279H53.6172V108.429ZM56.3418 113.518H57.9238C58.6621 113.518 59.1953 113.404 59.5234 113.175C59.8574 112.947 60.0244 112.569 60.0244 112.041C60.0244 111.549 59.8428 111.198 59.4795 110.987C59.1221 110.77 58.5537 110.661 57.7744 110.661H56.3418V113.518ZM56.3418 115.68V119.029H58.1172C58.8672 119.029 59.4209 118.885 59.7783 118.598C60.1357 118.311 60.3145 117.871 60.3145 117.28C60.3145 116.213 59.5527 115.68 58.0293 115.68H56.3418ZM66.2509 121.279V108.429H68.9755V121.279H66.2509ZM72.7499 121.279V108.429H75.4745V119.029H80.6864V121.279H72.7499ZM83.4677 121.279V108.429H86.1923V119.029H91.4042V121.279H83.4677ZM104.279 114.063H109.377V120.725C108.551 120.994 107.771 121.182 107.039 121.287C106.312 121.399 105.568 121.454 104.806 121.454C102.867 121.454 101.385 120.886 100.359 119.749C99.3396 118.607 98.8299 116.969 98.8299 114.836C98.8299 112.762 99.4217 111.145 100.605 109.985C101.795 108.825 103.441 108.244 105.545 108.244C106.863 108.244 108.135 108.508 109.359 109.035L108.454 111.215C107.516 110.746 106.541 110.512 105.527 110.512C104.349 110.512 103.406 110.908 102.697 111.699C101.988 112.49 101.634 113.553 101.634 114.889C101.634 116.284 101.918 117.35 102.486 118.088C103.06 118.821 103.892 119.187 104.982 119.187C105.551 119.187 106.128 119.128 106.714 119.011V116.33H104.279V114.063ZM120.385 121.279H112.984V108.429H120.385V110.661H115.709V113.483H120.059V115.715H115.709V119.029H120.385V121.279ZM135.013 121.279H131.551L125.961 111.558H125.882C125.993 113.275 126.049 114.499 126.049 115.232V121.279H123.614V108.429H127.051L132.632 118.053H132.693C132.605 116.383 132.561 115.202 132.561 114.511V108.429H135.013V121.279ZM146.197 121.279H138.797V108.429H146.197V110.661H141.521V113.483H145.872V115.715H141.521V119.029H146.197V121.279ZM152.151 114.133H153.03C153.891 114.133 154.527 113.99 154.937 113.702C155.347 113.415 155.552 112.964 155.552 112.349C155.552 111.74 155.341 111.306 154.92 111.048C154.504 110.79 153.856 110.661 152.977 110.661H152.151V114.133ZM152.151 116.348V121.279H149.426V108.429H153.171C154.917 108.429 156.209 108.748 157.047 109.387C157.884 110.02 158.303 110.984 158.303 112.279C158.303 113.034 158.095 113.708 157.679 114.3C157.263 114.886 156.674 115.346 155.913 115.68C157.846 118.569 159.106 120.435 159.692 121.279H156.669L153.601 116.348H152.151ZM169.715 121.279L168.784 118.22H164.099L163.168 121.279H160.232L164.767 108.376H168.098L172.651 121.279H169.715ZM168.133 115.935C167.272 113.163 166.786 111.596 166.674 111.233C166.569 110.869 166.493 110.582 166.446 110.371C166.253 111.121 165.699 112.976 164.785 115.935H168.133ZM179.774 121.279H177.049V110.697H173.56V108.429H183.263V110.697H179.774V121.279ZM197.444 114.836C197.444 116.963 196.917 118.598 195.862 119.741C194.807 120.883 193.295 121.454 191.327 121.454C189.358 121.454 187.846 120.883 186.792 119.741C185.737 118.598 185.209 116.957 185.209 114.819C185.209 112.68 185.737 111.048 186.792 109.923C187.852 108.792 189.37 108.227 191.344 108.227C193.319 108.227 194.828 108.795 195.871 109.932C196.919 111.069 197.444 112.703 197.444 114.836ZM188.066 114.836C188.066 116.272 188.338 117.353 188.883 118.079C189.428 118.806 190.243 119.169 191.327 119.169C193.501 119.169 194.587 117.725 194.587 114.836C194.587 111.942 193.506 110.494 191.344 110.494C190.26 110.494 189.443 110.861 188.892 111.593C188.341 112.32 188.066 113.401 188.066 114.836ZM203.372 114.133H204.25C205.112 114.133 205.748 113.99 206.158 113.702C206.568 113.415 206.773 112.964 206.773 112.349C206.773 111.74 206.562 111.306 206.14 111.048C205.724 110.79 205.077 110.661 204.198 110.661H203.372V114.133ZM203.372 116.348V121.279H200.647V108.429H204.391C206.137 108.429 207.429 108.748 208.267 109.387C209.105 110.02 209.524 110.984 209.524 112.279C209.524 113.034 209.316 113.708 208.9 114.3C208.484 114.886 207.895 115.346 207.133 115.68C209.067 118.569 210.327 120.435 210.913 121.279H207.889L204.822 116.348H203.372ZM225.871 117.71C225.871 118.87 225.452 119.784 224.614 120.452C223.782 121.12 222.621 121.454 221.133 121.454C219.762 121.454 218.549 121.197 217.495 120.681V118.15C218.362 118.536 219.094 118.809 219.692 118.967C220.295 119.125 220.846 119.204 221.344 119.204C221.942 119.204 222.399 119.09 222.715 118.862C223.038 118.633 223.199 118.293 223.199 117.842C223.199 117.59 223.128 117.367 222.988 117.174C222.847 116.975 222.639 116.784 222.364 116.603C222.094 116.421 221.54 116.131 220.703 115.733C219.917 115.364 219.329 115.009 218.936 114.669C218.543 114.329 218.23 113.934 217.996 113.483C217.761 113.032 217.644 112.504 217.644 111.901C217.644 110.764 218.028 109.87 218.795 109.22C219.569 108.57 220.635 108.244 221.995 108.244C222.663 108.244 223.298 108.324 223.902 108.482C224.511 108.64 225.147 108.863 225.809 109.15L224.93 111.268C224.245 110.987 223.676 110.79 223.225 110.679C222.78 110.568 222.34 110.512 221.907 110.512C221.391 110.512 220.996 110.632 220.72 110.872C220.445 111.113 220.307 111.426 220.307 111.813C220.307 112.053 220.363 112.264 220.474 112.446C220.585 112.621 220.761 112.794 221.001 112.964C221.247 113.128 221.825 113.427 222.733 113.861C223.934 114.435 224.757 115.012 225.203 115.592C225.648 116.166 225.871 116.872 225.871 117.71ZM232.739 113.72L235.419 108.429H238.355L234.092 116.278V121.279H231.385V116.366L227.122 108.429H230.076L232.739 113.72ZM248.097 117.71C248.097 118.87 247.678 119.784 246.84 120.452C246.008 121.12 244.848 121.454 243.36 121.454C241.989 121.454 240.776 121.197 239.721 120.681V118.15C240.588 118.536 241.321 118.809 241.918 118.967C242.522 119.125 243.073 119.204 243.571 119.204C244.168 119.204 244.625 119.09 244.942 118.862C245.264 118.633 245.425 118.293 245.425 117.842C245.425 117.59 245.355 117.367 245.214 117.174C245.074 116.975 244.866 116.784 244.59 116.603C244.321 116.421 243.767 116.131 242.929 115.733C242.144 115.364 241.555 115.009 241.162 114.669C240.77 114.329 240.456 113.934 240.222 113.483C239.988 113.032 239.87 112.504 239.87 111.901C239.87 110.764 240.254 109.87 241.022 109.22C241.795 108.57 242.862 108.244 244.221 108.244C244.889 108.244 245.525 108.324 246.128 108.482C246.738 108.64 247.373 108.863 248.035 109.15L247.157 111.268C246.471 110.987 245.903 110.79 245.451 110.679C245.006 110.568 244.567 110.512 244.133 110.512C243.618 110.512 243.222 110.632 242.947 110.872C242.671 111.113 242.534 111.426 242.534 111.813C242.534 112.053 242.589 112.264 242.701 112.446C242.812 112.621 242.988 112.794 243.228 112.964C243.474 113.128 244.051 113.427 244.959 113.861C246.16 114.435 246.984 115.012 247.429 115.592C247.874 116.166 248.097 116.872 248.097 117.71ZM255.923 121.279H253.199V110.697H249.709V108.429H259.412V110.697H255.923V121.279ZM269.33 121.279H261.93V108.429H269.33V110.661H264.655V113.483H269.005V115.715H264.655V119.029H269.33V121.279ZM278 121.279L274.906 111.198H274.827C274.939 113.248 274.994 114.617 274.994 115.302V121.279H272.56V108.429H276.269L279.31 118.255H279.363L282.588 108.429H286.297V121.279H283.757V115.197C283.757 114.909 283.76 114.578 283.766 114.203C283.778 113.828 283.819 112.832 283.889 111.215H283.81L280.496 121.279H278Z" fill="#FEFEFE"/>
<path d="M0 175.279L14.5833 176.328C29.1667 177.456 58.3333 179.435 87.5 187.945C116.667 196.456 145.833 211.102 175 218.563C204.167 225.945 233.333 225.945 262.5 219.612C291.667 213.279 320.833 200.612 335.417 194.279L350 187.945V232.279H335.417C320.833 232.279 291.667 232.279 262.5 232.279C233.333 232.279 204.167 232.279 175 232.279C145.833 232.279 116.667 232.279 87.5 232.279C58.3333 232.279 29.1667 232.279 14.5833 232.279H0V175.279Z" fill="#17A2B8"/>
<path d="M128.5 75.5H117.5V79.125H128.5V75.5ZM133.599 66.9473L127.99 61.3965C127.732 61.1416 127.383 61 127.016 61H126.667V68.25H134V67.9045C134 67.5477 133.857 67.2021 133.599 66.9473ZM124.833 68.7031V61H113.375C112.613 61 112 61.6061 112 62.3594V88.6406C112 89.3939 112.613 90 113.375 90H132.625C133.387 90 134 89.3939 134 88.6406V70.0625H126.208C125.452 70.0625 124.833 69.4508 124.833 68.7031ZM115.667 65.0781C115.667 64.8278 115.872 64.625 116.125 64.625H120.708C120.962 64.625 121.167 64.8278 121.167 65.0781V65.9844C121.167 66.2347 120.962 66.4375 120.708 66.4375H116.125C115.872 66.4375 115.667 66.2347 115.667 65.9844V65.0781ZM115.667 68.7031C115.667 68.4528 115.872 68.25 116.125 68.25H120.708C120.962 68.25 121.167 68.4528 121.167 68.7031V69.6094C121.167 69.8597 120.962 70.0625 120.708 70.0625H116.125C115.872 70.0625 115.667 69.8597 115.667 69.6094V68.7031ZM130.333 85.9219C130.333 86.1722 130.128 86.375 129.875 86.375H125.292C125.038 86.375 124.833 86.1722 124.833 85.9219V85.0156C124.833 84.7653 125.038 84.5625 125.292 84.5625H129.875C130.128 84.5625 130.333 84.7653 130.333 85.0156V85.9219ZM130.333 74.5938V80.0312C130.333 80.532 129.923 80.9375 129.417 80.9375H116.583C116.077 80.9375 115.667 80.532 115.667 80.0312V74.5938C115.667 74.093 116.077 73.6875 116.583 73.6875H129.417C129.923 73.6875 130.333 74.093 130.333 74.5938Z" fill="white"/>
<g clip-path="url(#clip0)">
<path d="M-71.7351 46.1601C-81.7055 36.05 -78.0344 12.6558 -73.2681 -11.1645C-68.5016 -34.9526 -62.6078 -59.167 -47.3276 -68.2963C-32.015 -77.4258 -7.28362 -71.4382 14.9577 -60.7226C37.1992 -49.9747 56.9185 -34.4665 60.9351 -15.7664C64.9519 2.96605 53.2337 24.8905 38.0319 36.376C22.8302 47.8615 4.17691 48.8755 -16.9878 51.002C-38.1204 53.096 -61.7647 56.2702 -71.7351 46.1601Z" fill="#17A2B8"/>
</g>
<path d="M164.429 78.4375H161.857V75.625C161.857 75.2799 161.601 75 161.286 75H160.714C160.399 75 160.143 75.2799 160.143 75.625V78.4375H157.571C157.256 78.4375 157 78.7174 157 79.0625V79.6875C157 80.0326 157.256 80.3125 157.571 80.3125H160.143V83.125C160.143 83.4701 160.399 83.75 160.714 83.75H161.286C161.601 83.75 161.857 83.4701 161.857 83.125V80.3125H164.429C164.744 80.3125 165 80.0326 165 79.6875V79.0625C165 78.7174 164.744 78.4375 164.429 78.4375Z" fill="white"/>
<path d="M197.87 72.9399C197.575 72.8415 197.28 72.7485 196.984 72.661C197.034 72.4587 197.077 72.2563 197.121 72.054C197.794 68.7946 197.351 66.1751 195.858 65.311C194.42 64.4853 192.073 65.3438 189.7 67.411C189.465 67.6134 189.235 67.8267 189.016 68.0399C188.869 67.8978 188.716 67.7556 188.562 67.6188C186.074 65.4095 183.58 64.4798 182.088 65.3493C180.655 66.1806 180.228 68.647 180.83 71.7313C180.89 72.0376 180.955 72.3384 181.032 72.6446C180.682 72.7431 180.337 72.8524 180.015 72.9673C177.095 73.979 175 75.5759 175 77.2274C175 78.9337 177.231 80.6454 180.266 81.6845C180.513 81.7665 180.759 81.8485 181.01 81.9196C180.928 82.2478 180.857 82.5704 180.791 82.904C180.217 85.9392 180.666 88.3454 182.098 89.1712C183.575 90.0243 186.058 89.1493 188.475 87.0329C188.666 86.8634 188.858 86.6884 189.049 86.5024C189.29 86.7376 189.541 86.9618 189.793 87.1806C192.134 89.1931 194.447 90.0079 195.874 89.1821C197.351 88.329 197.832 85.7423 197.209 82.5923C197.159 82.3517 197.105 82.1056 197.045 81.854C197.22 81.8048 197.389 81.7501 197.559 81.6954C200.714 80.6509 203 78.961 203 77.2274C203 75.5704 200.845 73.9626 197.87 72.9399V72.9399ZM190.471 68.297C192.505 66.5251 194.403 65.8306 195.267 66.3282C196.191 66.8587 196.547 69.0024 195.967 71.8188C195.929 72.0048 195.891 72.1853 195.841 72.3657C194.627 72.0923 193.397 71.8954 192.161 71.786C191.45 70.7688 190.673 69.7954 189.831 68.8821C190.045 68.6798 190.252 68.4884 190.471 68.297V68.297ZM184.144 80.0657C184.423 80.5415 184.707 81.0173 185.008 81.4821C184.155 81.3892 183.307 81.2524 182.47 81.072C182.711 80.2845 183.012 79.4696 183.362 78.6384C183.613 79.1196 183.87 79.5954 184.144 80.0657V80.0657ZM182.487 73.4868C183.274 73.3118 184.111 73.1696 184.98 73.0603C184.691 73.5142 184.406 73.979 184.138 74.4493C183.87 74.9142 183.608 75.3899 183.362 75.8712C183.017 75.0563 182.727 74.2579 182.487 73.4868ZM183.985 77.2548C184.346 76.5001 184.74 75.7618 185.155 75.0345C185.571 74.3071 186.02 73.6017 186.49 72.9071C187.31 72.847 188.147 72.8142 189 72.8142C189.853 72.8142 190.695 72.847 191.51 72.9071C191.975 73.5962 192.418 74.3017 192.839 75.0235C193.26 75.7454 193.654 76.4837 194.026 77.2329C193.659 77.9876 193.266 78.7313 192.845 79.4642C192.429 80.1915 191.986 80.897 191.521 81.597C190.706 81.6571 189.859 81.6845 189 81.6845C188.141 81.6845 187.31 81.6571 186.506 81.6079C186.03 80.9134 185.582 80.2024 185.161 79.4751C184.74 78.7478 184.352 78.0095 183.985 77.2548ZM193.862 80.0548C194.141 79.5735 194.403 79.0868 194.66 78.5946C195.01 79.3876 195.316 80.1915 195.584 81.0173C194.737 81.2087 193.878 81.3563 193.014 81.4548C193.309 80.9954 193.588 80.5251 193.862 80.0548ZM194.649 75.8712C194.392 75.3899 194.13 74.9087 193.856 74.4384C193.588 73.9735 193.309 73.5142 193.02 73.0603C193.9 73.1696 194.742 73.3173 195.53 73.4978C195.278 74.3071 194.983 75.0946 194.649 75.8712V75.8712ZM189.011 69.7188C189.585 70.3423 190.127 70.9985 190.63 71.6767C189.547 71.6274 188.459 71.6274 187.376 71.6767C187.912 70.9712 188.464 70.3149 189.011 69.7188ZM182.667 66.3665C183.586 65.8306 185.626 66.5962 187.775 68.4993C187.912 68.6196 188.048 68.7509 188.191 68.8821C187.343 69.7954 186.561 70.7688 185.845 71.786C184.609 71.8954 183.384 72.0868 182.17 72.3548C182.098 72.0759 182.038 71.7915 181.978 71.5071C181.464 68.8603 181.803 66.8642 182.667 66.3665V66.3665ZM181.327 80.7821C181.098 80.7165 180.873 80.6454 180.649 80.5688C179.484 80.2024 178.161 79.6228 177.204 78.8626C176.652 78.4798 176.28 77.8892 176.176 77.2274C176.176 76.2267 177.904 74.947 180.398 74.0774C180.709 73.9681 181.027 73.8696 181.344 73.7767C181.716 74.9634 182.164 76.1282 182.684 77.2548C182.159 78.3978 181.705 79.579 181.327 80.7821V80.7821ZM187.704 86.1415C186.802 86.9673 185.757 87.6235 184.62 88.072C184.012 88.3618 183.313 88.3892 182.689 88.1431C181.82 87.6399 181.459 85.7095 181.951 83.1118C182.011 82.8056 182.077 82.4993 182.153 82.1985C183.378 82.461 184.614 82.6415 185.866 82.7345C186.588 83.7571 187.381 84.736 188.229 85.6548C188.054 85.8243 187.879 85.9884 187.704 86.1415ZM189.044 84.8126C188.486 84.211 187.928 83.5438 187.387 82.8274C187.912 82.8493 188.453 82.8603 189 82.8603C189.563 82.8603 190.116 82.8493 190.662 82.822C190.159 83.5165 189.618 84.1782 189.044 84.8126V84.8126ZM196.191 86.4532C196.142 87.1204 195.814 87.7438 195.289 88.1649C194.42 88.6681 192.566 88.0118 190.564 86.2946C190.334 86.0978 190.105 85.8845 189.87 85.6657C190.706 84.7415 191.477 83.7626 192.177 82.7345C193.43 82.6306 194.677 82.4392 195.907 82.1603C195.962 82.3845 196.011 82.6087 196.055 82.8274C196.323 84.0087 196.366 85.2392 196.191 86.4532V86.4532ZM197.187 80.5743C197.034 80.6235 196.88 80.6728 196.722 80.7165C196.339 79.5243 195.869 78.3595 195.327 77.2274C195.852 76.1118 196.295 74.9634 196.667 73.7876C196.952 73.8696 197.225 73.9571 197.488 74.0446C200.036 74.9196 201.824 76.2212 201.824 77.2165C201.824 78.2884 199.916 79.672 197.187 80.5743ZM189 79.754C190.384 79.754 191.505 78.6329 191.505 77.2493C191.505 75.8657 190.384 74.7446 189 74.7446C187.616 74.7446 186.495 75.8657 186.495 77.2493C186.495 78.6329 187.616 79.754 189 79.754Z" fill="white"/>
<defs>
<clipPath id="clip0">
<rect width="69" height="69" fill="white" transform="translate(69.4062 68.9988) rotate(179.662)"/>
</clipPath>
</defs>
</svg>
