<svg width="350" height="233" viewBox="0 0 350 233" fill="none" xmlns="http://www.w3.org/2000/svg">
<rect y="0.721375" width="350" height="232.279" fill="#3D32BF"/>
<path d="M89.0752 111.233C88.0498 111.233 87.2559 111.62 86.6934 112.394C86.1309 113.161 85.8496 114.233 85.8496 115.61C85.8496 118.476 86.9248 119.908 89.0752 119.908C89.9775 119.908 91.0703 119.683 92.3535 119.231V121.517C91.2988 121.956 90.1211 122.176 88.8203 122.176C86.9512 122.176 85.5215 121.61 84.5312 120.479C83.541 119.343 83.0459 117.714 83.0459 115.593C83.0459 114.257 83.2891 113.088 83.7754 112.086C84.2617 111.078 84.959 110.308 85.8672 109.774C86.7812 109.235 87.8506 108.966 89.0752 108.966C90.3232 108.966 91.5771 109.268 92.8369 109.871L91.958 112.086C91.4775 111.857 90.9941 111.658 90.5078 111.488C90.0215 111.318 89.5439 111.233 89.0752 111.233ZM107.299 115.558C107.299 117.685 106.771 119.319 105.717 120.462C104.662 121.604 103.15 122.176 101.182 122.176C99.2129 122.176 97.7011 121.604 96.6464 120.462C95.5918 119.319 95.0644 117.679 95.0644 115.54C95.0644 113.401 95.5918 111.77 96.6464 110.645C97.707 109.514 99.2246 108.948 101.199 108.948C103.174 108.948 104.683 109.517 105.726 110.653C106.774 111.79 107.299 113.425 107.299 115.558ZM97.9209 115.558C97.9209 116.993 98.1933 118.074 98.7382 118.801C99.2832 119.527 100.098 119.891 101.182 119.891C103.355 119.891 104.442 118.446 104.442 115.558C104.442 112.663 103.361 111.216 101.199 111.216C100.115 111.216 99.2978 111.582 98.747 112.314C98.1962 113.041 97.9209 114.122 97.9209 115.558ZM115.942 122L112.849 111.919H112.769C112.881 113.97 112.936 115.338 112.936 116.023V122H110.502V109.15H114.211L117.252 118.977H117.305L120.53 109.15H124.239V122H121.699V115.918C121.699 115.631 121.702 115.3 121.708 114.925C121.72 114.55 121.761 113.554 121.831 111.937H121.752L118.438 122H115.942ZM130.747 115.197H131.643C132.481 115.197 133.108 115.033 133.524 114.705C133.94 114.371 134.148 113.888 134.148 113.255C134.148 112.616 133.973 112.145 133.621 111.84C133.275 111.535 132.73 111.383 131.986 111.383H130.747V115.197ZM136.899 113.158C136.899 114.541 136.466 115.599 135.599 116.331C134.737 117.063 133.51 117.43 131.916 117.43H130.747V122H128.022V109.15H132.127C133.685 109.15 134.869 109.487 135.678 110.161C136.492 110.829 136.899 111.828 136.899 113.158ZM147.731 122L146.8 118.941H142.115L141.183 122H138.248L142.783 109.098H146.114L150.667 122H147.731ZM146.149 116.656C145.288 113.885 144.802 112.317 144.69 111.954C144.585 111.591 144.509 111.304 144.462 111.093C144.268 111.843 143.715 113.697 142.801 116.656H146.149ZM164.232 122H160.769L155.179 112.279H155.1C155.212 113.996 155.267 115.221 155.267 115.953V122H152.833V109.15H156.269L161.85 118.774H161.912C161.824 117.104 161.78 115.924 161.78 115.232V109.15H164.232V122ZM168.015 122V109.15H170.74V122H168.015ZM181.915 122H174.514V109.15H181.915V111.383H177.239V114.204H181.59V116.437H177.239V119.75H181.915V122ZM192.729 118.432C192.729 119.592 192.31 120.506 191.472 121.174C190.64 121.842 189.48 122.176 187.992 122.176C186.621 122.176 185.408 121.918 184.353 121.402V118.871C185.22 119.258 185.953 119.53 186.55 119.688C187.154 119.847 187.705 119.926 188.203 119.926C188.8 119.926 189.257 119.812 189.574 119.583C189.896 119.354 190.057 119.015 190.057 118.563C190.057 118.312 189.987 118.089 189.846 117.896C189.706 117.696 189.498 117.506 189.222 117.324C188.953 117.143 188.399 116.853 187.561 116.454C186.776 116.085 186.187 115.73 185.795 115.391C185.402 115.051 185.089 114.655 184.854 114.204C184.62 113.753 184.503 113.226 184.503 112.622C184.503 111.485 184.886 110.592 185.654 109.941C186.427 109.291 187.494 108.966 188.853 108.966C189.521 108.966 190.157 109.045 190.76 109.203C191.37 109.361 192.006 109.584 192.668 109.871L191.789 111.989C191.103 111.708 190.535 111.512 190.084 111.4C189.638 111.289 189.199 111.233 188.765 111.233C188.25 111.233 187.854 111.354 187.579 111.594C187.303 111.834 187.166 112.147 187.166 112.534C187.166 112.774 187.221 112.985 187.333 113.167C187.444 113.343 187.62 113.516 187.86 113.686C188.106 113.85 188.683 114.148 189.591 114.582C190.793 115.156 191.616 115.733 192.061 116.313C192.507 116.888 192.729 117.594 192.729 118.432ZM211.475 115.452C211.475 117.567 210.872 119.188 209.665 120.312C208.463 121.438 206.726 122 204.453 122H200.814V109.15H204.848C206.946 109.15 208.575 109.704 209.735 110.812C210.895 111.919 211.475 113.466 211.475 115.452ZM208.645 115.522C208.645 112.763 207.426 111.383 204.989 111.383H203.539V119.75H204.708C207.333 119.75 208.645 118.341 208.645 115.522ZM222.544 122L221.613 118.941H216.928L215.997 122H213.061L217.596 109.098H220.927L225.48 122H222.544ZM220.962 116.656C220.101 113.885 219.615 112.317 219.503 111.954C219.398 111.591 219.322 111.304 219.275 111.093C219.082 111.843 218.528 113.697 217.614 116.656H220.962ZM232.603 122H229.878V111.418H226.389V109.15H236.092V111.418H232.603V122ZM246.476 122L245.544 118.941H240.86L239.928 122H236.993L241.528 109.098H244.859L249.412 122H246.476ZM244.894 116.656C244.033 113.885 243.546 112.317 243.435 111.954C243.33 111.591 243.253 111.304 243.207 111.093C243.013 111.843 242.459 113.697 241.545 116.656H244.894ZM251.578 109.15H255.577C257.399 109.15 258.72 109.411 259.54 109.933C260.367 110.448 260.78 111.271 260.78 112.402C260.78 113.17 260.598 113.8 260.235 114.292C259.877 114.784 259.4 115.08 258.802 115.18V115.268C259.617 115.449 260.203 115.789 260.56 116.287C260.923 116.785 261.105 117.447 261.105 118.273C261.105 119.445 260.68 120.359 259.831 121.016C258.987 121.672 257.838 122 256.385 122H251.578V109.15ZM254.302 114.239H255.884C256.622 114.239 257.156 114.125 257.484 113.896C257.818 113.668 257.985 113.29 257.985 112.763C257.985 112.271 257.803 111.919 257.44 111.708C257.082 111.491 256.514 111.383 255.735 111.383H254.302V114.239ZM254.302 116.401V119.75H256.078C256.828 119.75 257.381 119.606 257.739 119.319C258.096 119.032 258.275 118.593 258.275 118.001C258.275 116.935 257.513 116.401 255.99 116.401H254.302ZM272.078 122L271.146 118.941H266.461L265.53 122H262.594L267.129 109.098H270.46L275.013 122H272.078ZM270.496 116.656C269.634 113.885 269.148 112.317 269.037 111.954C268.931 111.591 268.855 111.304 268.808 111.093C268.615 111.843 268.061 113.697 267.147 116.656H270.496ZM284.764 118.432C284.764 119.592 284.345 120.506 283.507 121.174C282.675 121.842 281.515 122.176 280.027 122.176C278.656 122.176 277.443 121.918 276.388 121.402V118.871C277.255 119.258 277.988 119.53 278.585 119.688C279.189 119.847 279.74 119.926 280.238 119.926C280.835 119.926 281.292 119.812 281.609 119.583C281.931 119.354 282.092 119.015 282.092 118.563C282.092 118.312 282.022 118.089 281.881 117.896C281.741 117.696 281.533 117.506 281.257 117.324C280.988 117.143 280.434 116.853 279.596 116.454C278.811 116.085 278.222 115.73 277.829 115.391C277.437 115.051 277.123 114.655 276.889 114.204C276.655 113.753 276.537 113.226 276.537 112.622C276.537 111.485 276.921 110.592 277.689 109.941C278.462 109.291 279.529 108.966 280.888 108.966C281.556 108.966 282.192 109.045 282.795 109.203C283.405 109.361 284.04 109.584 284.702 109.871L283.824 111.989C283.138 111.708 282.57 111.512 282.119 111.4C281.673 111.289 281.234 111.233 280.8 111.233C280.285 111.233 279.889 111.354 279.614 111.594C279.338 111.834 279.201 112.147 279.201 112.534C279.201 112.774 279.256 112.985 279.368 113.167C279.479 113.343 279.655 113.516 279.895 113.686C280.141 113.85 280.718 114.148 281.626 114.582C282.827 115.156 283.651 115.733 284.096 116.313C284.541 116.888 284.764 117.594 284.764 118.432ZM295.034 122H287.633V109.15H295.034V111.383H290.358V114.204H294.708V116.437H290.358V119.75H295.034V122Z" fill="#FEFEFE"/>
<path d="M0 176L14.5833 177.049C29.1667 178.177 58.3333 180.156 87.5 188.667C116.667 197.177 145.833 211.823 175 219.284C204.167 226.667 233.333 226.667 262.5 220.333C291.667 214 320.833 201.333 335.417 195L350 188.667V233H335.417C320.833 233 291.667 233 262.5 233C233.333 233 204.167 233 175 233C145.833 233 116.667 233 87.5 233C58.3333 233 29.1667 233 14.5833 233H0V176Z" fill="#6C59BC"/>
</svg>
